<svg xmlns="http://www.w3.org/2000/svg" width="161.927" height="114.829" viewBox="0 0 161.927 114.829">
  <g id="Group_16425" data-name="Group 16425" transform="translate(-460.073 -355.171)">
    <circle id="Ellipse_488" data-name="Ellipse 488" cx="55.5" cy="55.5" r="55.5" transform="translate(511 359)" fill="#125be4" opacity="0.304"/>
    <g id="Group" transform="translate(437.645 214.512)">
      <path id="Path" d="M5.074.073S12.622-1.4,13.089,8.917C13.089,16.563,1.2,13.891,1.3,20.34-1.835,15.734,1.112,9.562,5.811,7.351c-1.658-1.2-2.344-4.632-2.344-4.632" transform="translate(121.833 147.631)" fill="#a8542a"/>
      <path id="Path-2" data-name="Path" d="M5.384.563l.057-.01.07-.01c.026,0-.078.009-.017,0L5.545.539c.2-.023.4-.035.608-.039a7.123,7.123,0,0,1,.884.04l.118.014.024,0,.071.01c.087.013.174.027.26.043q.286.053.566.131a5.827,5.827,0,0,1,2.279,1.215A7.161,7.161,0,0,1,12.3,4.883a12.257,12.257,0,0,1,.6,2.361,10.25,10.25,0,0,1,.154,2.6,4.73,4.73,0,0,1-1.38,2.919A8.864,8.864,0,0,1,8.9,14.481c-1.051.452-2.14.807-3.2,1.226a10.508,10.508,0,0,0-2.843,1.523,4.071,4.071,0,0,0-1.492,2.507,5.1,5.1,0,0,0-.062.854l.46-.125A7.447,7.447,0,0,1,.638,14.854,10.16,10.16,0,0,1,6.18,7.816a.25.25,0,0,0,0-.427A4.97,4.97,0,0,1,4.746,5.371a12.4,12.4,0,0,1-.7-2.041c-.036-.141-.071-.283-.1-.426-.063-.311-.539-.18-.476.131A11.631,11.631,0,0,0,3.815,4.3a9.72,9.72,0,0,0,1.1,2.407,4.279,4.279,0,0,0,1.02,1.105V7.389a10.693,10.693,0,0,0-4.545,4.179A9.182,9.182,0,0,0,.069,17.421a7.722,7.722,0,0,0,1.259,3.3.249.249,0,0,0,.46-.125,3.631,3.631,0,0,1,1.043-2.681,7.887,7.887,0,0,1,2.61-1.573c1.084-.449,2.2-.811,3.286-1.255A10.819,10.819,0,0,0,11.713,13.4a5.189,5.189,0,0,0,1.73-2.867,7.63,7.63,0,0,0,.069-2.341,14.762,14.762,0,0,0-.477-2.641,8.519,8.519,0,0,0-1.858-3.483A6.355,6.355,0,0,0,8.754.443,7.022,7.022,0,0,0,6.548.01,5.451,5.451,0,0,0,5.31.077l-.057.01c-.312.061-.18.537.131.476Z" transform="translate(121.588 147.38)"/>
      <path id="Path-3" data-name="Path" d="M25.551,5.4,24.128,27.534c-.464,3.091-4.723,5.409-9.1,3.57h0a14.133,14.133,0,0,1-3.806-1.746L0,22.064c.557-.758,3.653-3.741,4.205-4.768a19.38,19.38,0,0,0,1.756-4.277l9.188,5L17.584,5.8a6.875,6.875,0,0,1,6.1-5.5L26.829,0" transform="translate(92.503 158.119)" fill="#ff9416"/>
      <path id="Path-4" data-name="Path" d="M25.55,5.646l-.13,2.017L25.1,12.569l-.391,6.082-.356,5.542-.211,3.287c-.006.089-.01.179-.017.268-.005.062,0-.012-.008.055a3.974,3.974,0,0,1-.245.836,5.126,5.126,0,0,1-2.757,2.583,7.186,7.186,0,0,1-4.533.306c-.428-.107-.829-.269-1.243-.415s-.832-.261-1.24-.422a14.069,14.069,0,0,1-2.507-1.3L9.049,27.737l-5-3.25-3.5-2.274L.371,22.1l.089.338c.009-.012.046-.046.005-.008A.522.522,0,0,0,.5,22.381l.089-.107c.074-.087.15-.172.226-.256.193-.214.391-.425.589-.635.5-.525,1-1.047,1.489-1.576.451-.485.9-.973,1.313-1.491a9.6,9.6,0,0,0,1.116-1.963,16.644,16.644,0,0,0,1.12-3.02l-.363.148,3.109,1.693,4.95,2.7,1.129.615a.25.25,0,0,0,.363-.148l.556-2.794,1.09-5.472.753-3.782A7.181,7.181,0,0,1,18.816,4.1a6.682,6.682,0,0,1,2.8-2.648A7.651,7.651,0,0,1,24.4.745L26.876.514l.2-.019c.314-.029.317-.524,0-.494L24.946.2a11.66,11.66,0,0,0-2.573.413,7.191,7.191,0,0,0-4.785,5.383c-.214,1.062-.423,2.124-.635,3.187l-1.105,5.55L15.4,16.988c-.076.383-.186.775-.232,1.163,0,.018-.007.036-.011.054l.363-.148-3.109-1.693-4.95-2.7-1.129-.615a.25.25,0,0,0-.363.148,15.463,15.463,0,0,1-.953,2.647A10.061,10.061,0,0,1,3.9,17.913c-.832,1.071-1.813,2.031-2.743,3.014a14.22,14.22,0,0,0-1.126,1.26.25.25,0,0,0,.089.338l2.6,1.69,5.038,3.273,3.45,2.242a15.263,15.263,0,0,0,3.05,1.548c.418.154.845.279,1.262.436a8.389,8.389,0,0,0,1.27.368,7.922,7.922,0,0,0,2.4.13,6.821,6.821,0,0,0,3.9-1.675,4.518,4.518,0,0,0,1.521-2.77c.072-.776.1-1.559.15-2.337l.331-5.149L25.5,14.14l.35-5.441.187-2.917.009-.136c.02-.317-.474-.316-.494,0Z" transform="translate(92.257 157.871)"/>
      <path id="Path-5" data-name="Path" d="M.268,3.434c.465.249,1.44-.592,2.512-2.056L.665,0C-.022,1.8-.215,3.175.268,3.434Z" transform="translate(92.238 176.769)"/>
      <path id="Path-6" data-name="Path" d="M.392,3.893c.446.223.921-.1,1.263-.372A9.107,9.107,0,0,0,3.242,1.748a.25.25,0,0,0-.089-.338L1.039.032A.25.25,0,0,0,.676.18,9.931,9.931,0,0,0,.022,2.6c-.046.425-.06,1.042.37,1.288a.247.247,0,0,0,.249-.427S.594,3.432.618,3.453.6,3.439.6,3.433c-.041-.05.016.026-.006-.006A.436.436,0,0,1,.565,3.38c-.02-.04,0,.011-.008-.015s-.014-.039-.02-.059a.985.985,0,0,1-.03-.133A2.608,2.608,0,0,1,.529,2.5,10.291,10.291,0,0,1,1.152.311L.79.459,2.9,1.836,2.815,1.5a9.392,9.392,0,0,1-1.38,1.565,2.209,2.209,0,0,1-.527.359.682.682,0,0,1-.1.035.652.652,0,0,0-.065.017c-.018,0-.108,0-.052.006a.239.239,0,0,1-.04-.009c-.06-.016.041.023-.014,0C.358,3.324.107,3.75.392,3.893Z" transform="translate(91.989 176.523)"/>
      <path id="Path-7" data-name="Path" d="M6.156,6.717a19.383,19.383,0,0,0,1.75-4.279L6.2,1.516,3.393,0,0,6.521,2.352,8.053,4.466,9.431A23.211,23.211,0,0,0,6.156,6.717Z" transform="translate(90.552 168.716)" fill="#fc7272"/>
      <path id="Path-8" data-name="Path" d="M6.614,7.088A18.913,18.913,0,0,0,8.388,2.75a.252.252,0,0,0-.114-.279l-3.694-2L3.763.033a.25.25,0,0,0-.338.089L2.274,2.333.451,5.836l-.419.806A.253.253,0,0,0,.12,6.98L3.641,9.274l.945.616A.253.253,0,0,0,4.924,9.8a23.334,23.334,0,0,0,1.69-2.714c.151-.28-.276-.53-.427-.249A23.334,23.334,0,0,1,4.5,9.552l.338-.089L1.246,7.125.37,6.554l.089.338L1.609,4.68l1.823-3.5L3.851.371,3.513.459,6.959,2.321,8.026,2.9l-.114-.279a18.37,18.37,0,0,1-1.725,4.22C6.037,7.119,6.464,7.369,6.614,7.088Z" transform="translate(90.307 168.47)"/>
      <path id="Path-9" data-name="Path" d="M13.323,6.624l-1.69-.909L10.121,2.1A3.319,3.319,0,0,0,7.367,0L2.239.581S-1.571.845.749,3.13c0,0-.951,1.042.621,2.17-.389.813,1.777,2.09,2.4,2.165-.231.88.361,1.537,1.525,1.5l1.043.128.842,1.821a3.523,3.523,0,0,0,1.3,1.491l1.351.864" transform="translate(82.319 163.009)" fill="#fc7272"/>
      <path id="Path-10" data-name="Path" d="M13.682,6.65l-1.69-.909.114.148L10.782,2.723a5.132,5.132,0,0,0-.934-1.637A3.6,3.6,0,0,0,8.493.2,2.345,2.345,0,0,0,7.536,0C6.317.1,5.1.276,3.883.414,3.175.494,2.441.534,1.742.68a2.793,2.793,0,0,0-1.436.655,1.241,1.241,0,0,0,.02,1.649,4.343,4.343,0,0,0,.483.56V3.2a1.474,1.474,0,0,0-.353.853A2.037,2.037,0,0,0,1.48,5.753l-.089-.338c-.29.653.337,1.253.807,1.619a6,6,0,0,0,.944.606,2.587,2.587,0,0,0,.793.3l-.173-.3a1.428,1.428,0,0,0,.143,1.135,1.524,1.524,0,0,0,.98.623c.31.065.63.052.944.091l.739.091-.213-.122.8,1.741a3.885,3.885,0,0,0,.916,1.271,7.061,7.061,0,0,0,.948.67l.912.584c.269.172.517-.256.249-.427l-1.251-.8a3.594,3.594,0,0,1-1.36-1.571L6.863,9.379a1.394,1.394,0,0,0-.078-.169.345.345,0,0,0-.292-.135l-.855-.1a2.289,2.289,0,0,1-1.086-.233.854.854,0,0,1-.312-.967.249.249,0,0,0-.173-.3,2.022,2.022,0,0,1-.606-.218,5.835,5.835,0,0,1-.825-.5,3.071,3.071,0,0,1-.65-.6,1,1,0,0,1-.159-.28.3.3,0,0,1-.01-.205.257.257,0,0,0-.089-.338A1.52,1.52,0,0,1,.951,4.034a.948.948,0,0,1,.127-.368c.024-.041.051-.08.077-.12.009-.013-.037.042,0,0a.252.252,0,0,0,0-.349,2.083,2.083,0,0,1-.67-1.02.379.379,0,0,1-.006-.064c0-.029,0-.057,0-.086s0,0,.008-.05a.757.757,0,0,1,.033-.108c-.017.042.012-.02.018-.032s.031-.052.048-.076-.022.026,0,0l.03-.035c.024-.026.048-.051.074-.075A1.919,1.919,0,0,1,1.347,1.3a4.865,4.865,0,0,1,.776-.187l.14-.021.015,0L2.34,1.08l.129-.013c.094-.009.187-.021.281-.032L4.716.814,6.957.56c.2-.022.392-.052.588-.067A2.262,2.262,0,0,1,8.625.788,3.09,3.09,0,0,1,9.872,1.921a4.873,4.873,0,0,1,.332.692l.822,1.967c.2.478.383.969.6,1.439.1.215.421.315.618.421l.993.534.193.1c.28.151.53-.276.249-.427Z" transform="translate(82.085 162.769)"/>
      <path id="Path-11" data-name="Path" d="M7.693,1.068,8,2.449A4.094,4.094,0,0,1,5.9,6.954L1.252,9.4,0,0" transform="translate(127.367 180.69)"/>
      <path id="Path-12" data-name="Path" d="M7.7,1.381a11.272,11.272,0,0,1,.39,2.095A3.871,3.871,0,0,1,6.506,6.692,11.9,11.9,0,0,1,5.1,7.474L2.87,8.646l-1.5.786.372.213L1.324,6.475.65,1.416.494.247A.256.256,0,0,0,.247,0,.248.248,0,0,0,0,.247L.423,3.418,1.1,8.477l.156,1.169a.251.251,0,0,0,.372.213L5.208,7.976c.469-.246.965-.471,1.409-.762A4.39,4.39,0,0,0,8.568,3.971a8.86,8.86,0,0,0-.39-2.722c-.068-.31-.545-.179-.476.131Z" transform="translate(127.12 180.443)"/>
      <path id="Path-13" data-name="Path" d="M18.551,0l-1.2,12.641L0,11.056S.154,6.112,6.661,6.173a2.334,2.334,0,0,0,2.355-2.14c.125-1.538.239-3.027.239-3.027" transform="translate(101.498 234.339)" fill="#fc7272"/>
      <path id="Path-14" data-name="Path" d="M18.551.237l-.406,4.3L17.5,11.326l-.147,1.552.247-.247-1.725-.158-4.144-.378L6.72,11.637l-4.335-.4L.952,11.11a5.83,5.83,0,0,0-.675-.062l-.03,0,.247.247a.605.605,0,0,1,0-.066c0-.026,0-.053.007-.079s0-.03.005-.045c.007-.069,0,0,0-.007a5.159,5.159,0,0,1,.141-.664,4.826,4.826,0,0,1,.987-1.85,5.381,5.381,0,0,1,2.623-1.6,8.848,8.848,0,0,1,2.17-.315A4.8,4.8,0,0,0,7.65,6.556a2.637,2.637,0,0,0,.995-.546,2.584,2.584,0,0,0,.721-1.059,5.607,5.607,0,0,0,.21-1.5q.088-1.1.173-2.208c.024-.317-.47-.316-.494,0q-.068.892-.139,1.784a3.8,3.8,0,0,1-.639,2.46,2.1,2.1,0,0,1-.909.579,4.4,4.4,0,0,1-1.193.1,9.393,9.393,0,0,0-2.222.325A5.906,5.906,0,0,0,1.381,8.13a5.4,5.4,0,0,0-1.153,2A4.35,4.35,0,0,0,0,11.293a.253.253,0,0,0,.247.247l1.725.158,4.144.378,5.014.458,4.335.4,1.433.131c.223.02.451.057.675.062l.03,0c.142.013.235-.124.247-.247l.406-4.3L18.9,1.788,19.045.237c.03-.316-.464-.314-.494,0Z" transform="translate(101.25 234.102)"/>
      <path id="Path-15" data-name="Path" d="M8.664,0A2.4,2.4,0,0,1,6.836.811C.158.748,0,5.823,0,5.823l13.116.02-.206-.752A7.982,7.982,0,0,0,8.664,0Z" transform="translate(101.007 239.764)" fill="#fff"/>
      <path id="Path-16" data-name="Path" d="M8.736.078A2.213,2.213,0,0,1,7.9.669,2.9,2.9,0,0,1,6.843.817,10.708,10.708,0,0,0,4.907,1a6.706,6.706,0,0,0-2.67,1.106A5.5,5.5,0,0,0,.126,5.266,4.066,4.066,0,0,0,0,6.076a.25.25,0,0,0,.247.247l1.3,0,3.131,0,3.788.006,3.276.005c.529,0,1.065.026,1.594,0h.023a.25.25,0,0,0,.238-.313A11.994,11.994,0,0,0,12.782,3.7,8.243,8.243,0,0,0,9.035.04C8.75-.1,8.5.329,8.786.466a7.8,7.8,0,0,1,4.1,4.833c.083.286.158.575.237.863l.238-.313-1.3,0-3.131,0L5.14,5.837,1.864,5.832l-1.076,0a3.8,3.8,0,0,0-.518,0H.247l.247.247c0-.055.008-.11.014-.164,0-.028.007-.056.01-.083-.011.09,0-.019.008-.051q.02-.125.047-.249a4.98,4.98,0,0,1,.5-1.364A5.5,5.5,0,0,1,4.9,1.508a9.962,9.962,0,0,1,2.065-.2A2.769,2.769,0,0,0,9.086.428C9.3.193,8.95-.158,8.736.078Z" transform="translate(100.76 239.511)"/>
      <path id="Path-17" data-name="Path" d="M5.371,3.929,0,56.38,13.842,57.6s3.4-38.275,3.508-44.056S16.9,0,16.9,0" transform="translate(109.54 178.627)" fill="#389b48"/>
      <path id="Path-18" data-name="Path" d="M5.372,4.166l-.143,1.4L4.838,9.381,4.26,15.022l-.7,6.884-.772,7.541L2,37.059l-.727,7.1-.615,6L.22,54.479c-.07.682-.166,1.368-.21,2.052,0,.029-.006.058-.009.087-.014.141.125.236.247.247l4.664.412,7.468.66,1.71.151a.252.252,0,0,0,.247-.247q.065-.734.13-1.468.174-1.973.346-3.945.25-2.868.5-5.736.295-3.42.584-6.84.307-3.628.6-7.257.287-3.493.561-6.988.236-3.026.454-6.054c.1-1.454.2-2.91.276-4.366.11-2.173.073-4.352.014-6.527q-.11-4-.375-7.991Q17.415.454,17.4.237c-.022-.315-.516-.318-.494,0,.139,1.969.238,3.942.318,5.915.112,2.755.215,5.528.107,8.285-.051,1.294-.138,2.586-.225,3.877q-.192,2.846-.415,5.69-.262,3.408-.54,6.816-.295,3.628-.6,7.255-.3,3.518-.6,7.035-.259,3.022-.522,6.044-.194,2.233-.391,4.465c-.062.7-.176,1.424-.188,2.132,0,.03-.005.061-.008.091l.247-.247-4.664-.412-7.468-.66-1.71-.151.247.247.143-1.4L1.029,51.4l.578-5.641.7-6.883.772-7.541.779-7.613.727-7.1.615-6,.442-4.318c.07-.682.166-1.368.21-2.052,0-.029.006-.058.009-.087.032-.316-.462-.314-.494,0Z" transform="translate(109.292 178.389)"/>
      <path id="Path-19" data-name="Path" d="M1.461,0,13.35,4.46,7.281,20.8S2.549,19.355,4.31,13.091a2.334,2.334,0,0,0-1.45-2.833C1.407,9.735,0,9.235,0,9.235" transform="translate(153.172 215.559)" fill="#fc7272"/>
      <path id="Path-20" data-name="Path" d="M1.63.493,5.671,2.009l6.388,2.4,1.459.547-.173-.3-.6,1.624-1.449,3.9L9.541,14.893,8.025,18.974l-.5,1.349a5.8,5.8,0,0,0-.236.635.257.257,0,0,1-.01.028l.3-.173c-.023-.007-.046-.014-.068-.023l-.072-.027L7.4,20.745l-.013,0a5.166,5.166,0,0,1-.605-.313,4.836,4.836,0,0,1-1.539-1.464A5.433,5.433,0,0,1,4.4,15.936a9.162,9.162,0,0,1,.318-2.283A3.342,3.342,0,0,0,4.871,12.5a2.65,2.65,0,0,0-.317-1.052,2.59,2.59,0,0,0-.855-.913,6.852,6.852,0,0,0-1.448-.59L.3,9.252c-.3-.107-.429.371-.131.476l1.621.578a4.157,4.157,0,0,1,2.2,1.176,2.107,2.107,0,0,1,.385,1.02,3.351,3.351,0,0,1-.166,1.138A9.691,9.691,0,0,0,3.9,15.889a5.982,5.982,0,0,0,.823,3.191A5.387,5.387,0,0,0,6.37,20.755a4.359,4.359,0,0,0,1.08.536.253.253,0,0,0,.3-.173l.6-1.624,1.449-3.9,1.753-4.719,1.516-4.081.5-1.349c.078-.21.172-.42.236-.635,0-.009.007-.019.01-.028a.252.252,0,0,0-.173-.3L9.609,2.961,3.221.564,1.761.017c-.3-.112-.427.366-.131.476Z" transform="translate(152.937 215.303)"/>
      <path id="Path-21" data-name="Path" d="M.1,2.769A2.4,2.4,0,0,1,.4,4.745c-1.807,6.43,3.05,7.909,3.05,7.909L6.9,0,6.123,0A7.982,7.982,0,0,0,.1,2.769Z" transform="translate(157.057 224.225)" fill="#fff"/>
      <path id="Path-22" data-name="Path" d="M.136,3.146a2.211,2.211,0,0,1,.354,1A3.315,3.315,0,0,1,.328,5.263a10.566,10.566,0,0,0-.305,1.87,6.657,6.657,0,0,0,.39,2.86A5.5,5.5,0,0,0,2.9,12.815a4.048,4.048,0,0,0,.742.33.25.25,0,0,0,.3-.173l.343-1.258.823-3.02,1-3.655.862-3.161c.139-.511.3-1.021.419-1.538,0-.007,0-.015.006-.022A.25.25,0,0,0,7.154.005a12.2,12.2,0,0,0-2.4.168A8.237,8.237,0,0,0,.175,2.847c-.207.24.141.591.349.349A7.8,7.8,0,0,1,6.344.5c.27,0,.54,0,.81,0L6.916.187,6.573,1.444,5.75,4.465l-1,3.655-.862,3.161-.283,1.039a3.792,3.792,0,0,0-.136.5.167.167,0,0,1-.006.022l.3-.173c-.052-.016-.1-.036-.154-.056l-.076-.031c.08.033-.02-.009-.048-.021q-.117-.052-.23-.111a4.982,4.982,0,0,1-1.183-.835A5.463,5.463,0,0,1,.507,7.307,9.827,9.827,0,0,1,.843,5.245,3.156,3.156,0,0,0,.971,4.023,2.7,2.7,0,0,0,.563,2.9C.392,2.63-.035,2.877.136,3.146Z" transform="translate(156.805 223.973)"/>
      <path id="Path-23" data-name="Path" d="M10.191,0l3.76,8.2a29.208,29.208,0,0,1,2.342,7.883l1.774,11.937c5.553,1.612,19.444,7.517,19.444,7.517l-4.8,13.04L17.575,43.228A20.253,20.253,0,0,1,5.362,31.256L.438,18.092,0,5.869" transform="translate(119.819 177.302)" fill="#389b48"/>
      <path id="Path-24" data-name="Path" d="M10.225.377l1.991,4.341c.729,1.59,1.5,3.168,2.175,4.785A29.227,29.227,0,0,1,16.2,15.778c.09.526.164,1.054.242,1.582l.911,6.13.458,3.079c.083.561.148,1.129.251,1.686,0,.027.008.054.012.081a.243.243,0,0,0,.173.173c3.05.888,6.022,2.076,8.976,3.237q4.36,1.713,8.68,3.527c.616.257,1.173.491,1.73.727l-.114-.279-1.626,4.416-2.587,7.027-.588,1.6.3-.173L29.65,47.4l-6.67-2.356L18.2,43.351a20.663,20.663,0,0,1-7.034-4.117A20.148,20.148,0,0,1,5.82,31.37Q5,29.177,4.179,26.983L1.761,20.517,1.03,18.563c-.026-.07-.049-.142-.079-.211-.018-.041-.032-.135-.019-.008C.92,18.228.924,18.107.92,17.99L.712,12.185.506,6.45.494,6.121C.483,5.8-.011,5.8,0,6.121l.156,4.363L.4,17.153l.032.9a1.941,1.941,0,0,0,.02.361,9.544,9.544,0,0,0,.418,1.117l2.256,6.031,2.052,5.486c.269.718.546,1.431.874,2.125a20.5,20.5,0,0,0,11.71,10.549q1.744.619,3.49,1.233l6.727,2.376,4.678,1.652.24.085a.252.252,0,0,0,.3-.173l1.626-4.416,2.587-7.027.588-1.6a.247.247,0,0,0-.114-.279q-2.528-1.075-5.073-2.112c-3.241-1.328-6.492-2.633-9.778-3.846-1.536-.567-3.08-1.126-4.653-1.584l.173.173-.6-4.032L17,17.744l-.216-1.457a29.415,29.415,0,0,0-1.367-5.494C14.742,8.9,13.841,7.08,13,5.252L10.7.226l-.045-.1c-.132-.289-.558-.038-.427.249Z" transform="translate(119.572 177.049)"/>
      <path id="Path-25" data-name="Path" d="M5.972,4.276a.662.662,0,0,0,.419.837l.595.2L2.3,17.867A7.381,7.381,0,0,1,0,16.682L6.113,0,8.664.842,7.451,4.071l-.642-.214a.662.662,0,0,0-.837.419Z" transform="translate(159.445 219.648)" fill="#fff"/>
      <path id="Path-26" data-name="Path" d="M5.982,4.456A.921.921,0,0,0,6.525,5.58c.21.083.429.145.643.216L7,5.492,6.531,6.737,5.409,9.744,4.058,13.365,2.89,16.5,2.5,17.535a4.218,4.218,0,0,0-.183.49.2.2,0,0,1-.008.023l.3-.173A6.088,6.088,0,0,1,.423,16.753l.064.24.607-1.657,1.459-3.981L4.318,6.537,5.845,2.37,6.348,1a6.46,6.46,0,0,0,.24-.654A.288.288,0,0,1,6.6.312l-.3.173,2.551.842-.173-.3L7.612,3.849l-.151.4.3-.173c-.214-.071-.426-.15-.642-.214a.926.926,0,0,0-1.141.592c-.112.3.365.427.476.131.188-.5.84-.144,1.176-.033a.252.252,0,0,0,.3-.173L9,1.555l.151-.4a.251.251,0,0,0-.173-.3L6.426.008a.252.252,0,0,0-.3.172L5.515,1.838,4.056,5.819,2.291,10.636.764,14.8l-.5,1.375c-.079.217-.174.433-.24.654,0,.01-.007.02-.011.029a.241.241,0,0,0,.064.24,6.669,6.669,0,0,0,2.411,1.249.253.253,0,0,0,.3-.173l.464-1.245,1.122-3.007,1.351-3.621L6.894,7.174c.188-.5.42-1.011.57-1.528,0-.008.006-.015.008-.023a.251.251,0,0,0-.173-.3c-.354-.118-.993-.21-.841-.732A.247.247,0,0,0,5.982,4.456Z" transform="translate(159.197 219.402)"/>
      <path id="Path-27" data-name="Path" d="M.49,2.167C.5,2.149.5,2.131.51,2.113c.022-.062-.02.042,0-.006.014-.029.026-.058.041-.087a2.853,2.853,0,0,1,.289-.468c-.022.029.022-.027.029-.036l.057-.068q.065-.076.136-.147a2.655,2.655,0,0,1,.293-.257A2.715,2.715,0,0,1,2.212.621a3.771,3.771,0,0,1,1.447-.1A.249.249,0,0,0,3.906.272.252.252,0,0,0,3.659.025,3.714,3.714,0,0,0,1.211.545,3.193,3.193,0,0,0,.158,1.71a2.226,2.226,0,0,0-.144.326c-.1.3.377.432.476.131Z" transform="translate(160.961 229.403)"/>
      <path id="Path-28" data-name="Path" d="M2.339,8.318,2.161.934A1,1,0,0,0,.828.056h0A.848.848,0,0,0,0,.925L.178,8.309Z" transform="translate(160.983 216.253)" fill="#fff"/>
      <path id="Path-29" data-name="Path" d="M2.833,8.552,2.759,5.468l-.1-4.051c0-.083,0-.167-.006-.25A1.264,1.264,0,0,0,1.86.072,1.4,1.4,0,0,0,1.075.043,1.254,1.254,0,0,0,.306.378a1.161,1.161,0,0,0-.3.849C.025,2.435.06,3.643.089,4.851S.129,7.27.176,8.478c0,.022,0,.043,0,.065a.251.251,0,0,0,.247.247L2.586,8.8a.247.247,0,0,0,0-.494L.425,8.3l.247.247L.6,5.647.5,1.569C.5,1.441.5,1.314.495,1.187a.62.62,0,0,1,.58-.65.986.986,0,0,1,.717.048.781.781,0,0,1,.347.452,1.211,1.211,0,0,1,.026.3l.09,3.728c.027,1.14.037,2.282.082,3.421,0,.02,0,.041,0,.061A.247.247,0,0,0,2.833,8.552Z" transform="translate(160.736 216.02)"/>
      <circle id="Oval" cx="1.647" cy="1.647" r="1.647" transform="translate(160.634 222.689)"/>
      <path id="Path-30" data-name="Path" d="M1.718,3.778A1.893,1.893,0,1,0,.007,2.058,1.893,1.893,0,0,0,1.718,3.778a.248.248,0,0,0,.247-.247.253.253,0,0,0-.247-.247,1.4,1.4,0,1,1,1.511-.971,1.4,1.4,0,0,1-1.511.971C1.4,3.255,1.4,3.749,1.718,3.778Z" transform="translate(160.387 222.442)"/>
      <path id="Path-31" data-name="Path" d="M14.078,2.52a.662.662,0,0,0-.7.623l-.036.626L0,2.532A7.38,7.38,0,0,1,.543,0l17.7,1.537L18.1,4.219l-3.434-.325.039-.676A.662.662,0,0,0,14.078,2.52Z" transform="translate(100.717 244.415)" fill="#fff"/>
      <path id="Path-32" data-name="Path" d="M14.325,2.52a.92.92,0,0,0-.941.819c-.025.224-.028.452-.041.677l.247-.247-1.323-.123-3.2-.3L5.223,2.993,1.895,2.685l-1.1-.1a4.239,4.239,0,0,0-.52-.048l-.024,0,.247.247A6.086,6.086,0,0,1,1,.372L.79.494,2.548.647l4.224.367,5.112.444,4.421.384,1.459.127a6.489,6.489,0,0,0,.694.06l.031,0-.247-.247L18.1,4.467l.247-.247-3.007-.285-.428-.041.247.247c.013-.225.033-.45.039-.676a.926.926,0,0,0-.87-.946c-.316-.03-.314.464,0,.494.531.051.358.775.338,1.127a.252.252,0,0,0,.247.247l3.007.285.428.041a.251.251,0,0,0,.247-.247l.145-2.682a.252.252,0,0,0-.247-.247l-1.759-.153-4.224-.367L7.4.574,2.974.19,1.515.063C1.285.043,1.051.008.821,0L.79,0A.24.24,0,0,0,.576.122,6.677,6.677,0,0,0,0,2.779a.253.253,0,0,0,.247.247l1.323.123,3.2.3L8.614,3.8l3.329.309c.536.05,1.085.142,1.624.151l.024,0a.251.251,0,0,0,.247-.247c.021-.373-.057-1.012.487-1A.247.247,0,0,0,14.325,2.52Z" transform="translate(100.469 244.168)"/>
      <path id="Path-33" data-name="Path" d="M.238.495.3.5C.37.506.226.487.3.5L.4.517A2.979,2.979,0,0,1,.933.678c.042.017,0,0,0,0L.965.692l.084.039q.093.045.183.1t.157.1c.052.034.142.1.157.112a2.722,2.722,0,0,1,.636.72,3.774,3.774,0,0,1,.475,1.367.249.249,0,0,0,.3.173.253.253,0,0,0,.173-.3A3.7,3.7,0,0,0,1.984.761,3.19,3.19,0,0,0,.582.052,2.218,2.218,0,0,0,.238,0C-.08-.017-.079.477.238.495Z" transform="translate(106.141 244.613)"/>
      <path id="Path-34" data-name="Path" d="M.557,4.226l7.081-2.1a1,1,0,0,0,.5-1.516h0A.848.848,0,0,0,7.081.035L0,2.138Z" transform="translate(113.065 240.857)" fill="#fff"/>
      <path id="Path-35" data-name="Path" d="M.869,4.707l2.921-.867L7.673,2.686c.091-.027.184-.052.275-.082A1.265,1.265,0,0,0,8.8,1.5,1.793,1.793,0,0,0,8.559.624a1.1,1.1,0,0,0-.611-.56,1.192,1.192,0,0,0-.774,0L3.666,1.107c-1.141.339-2.288.66-3.423,1.017L.18,2.142a.251.251,0,0,0-.172.3L.565,4.534A.247.247,0,0,0,1.041,4.4L.484,2.314l-.173.3L3.053,1.8,6.953.646C7.345.53,7.841.326,8.1.8a1.139,1.139,0,0,1,.195.788.775.775,0,0,1-.417.515,2.131,2.131,0,0,1-.255.08l-3.6,1.069c-1.076.319-2.161.617-3.229.959L.737,4.23A.247.247,0,0,0,.869,4.707Z" transform="translate(112.819 240.615)"/>
      <circle id="Oval-2" data-name="Oval" cx="1.647" cy="1.647" r="1.647" transform="translate(111.93 242.369)"/>
      <path id="Path-36" data-name="Path" d="M.027,2.219A1.893,1.893,0,1,0,1.239.116a1.893,1.893,0,0,0-1.212,2.1.249.249,0,0,0,.3.173.254.254,0,0,0,.173-.3A1.4,1.4,0,1,1,1.835,3.293,1.4,1.4,0,0,1,.5,2.087C.449,1.775-.027,1.907.027,2.219Z" transform="translate(111.685 242.122)"/>
      <path id="Path-37" data-name="Path" d="M13.967,1.262l-1.375-.125-3.3-.3-4-.364L1.831.157.685.052A4.842,4.842,0,0,0,.143,0L.118,0C-.04-.014-.039.233.118.248L1.493.373l3.3.3,4,.364,3.459.315,1.146.1a4.841,4.841,0,0,0,.541.049l.025,0c.158.014.157-.233,0-.247Z" transform="translate(109.721 231.326)"/>
      <path id="Path-38" data-name="Path" d="M4.8.084l-.478,1.3-1.141,3.1L1.8,8.255.6,11.516.2,12.587a4.679,4.679,0,0,0-.189.513.2.2,0,0,1-.008.022c-.055.149.184.214.238.066l.478-1.3,1.141-3.1L3.252,5.016l1.2-3.261L4.845.685A4.679,4.679,0,0,0,5.034.172.2.2,0,0,1,5.042.15C5.1,0,4.859-.064,4.8.084Z" transform="translate(149.412 211.556)"/>
      <path id="Path-39" data-name="Path" d="M0,.239.055,4.7.093,7.721C.1,8.235.08,8.759.121,9.273a4.691,4.691,0,0,0,.812,2.191l.761,1.179c.172.266.6.019.427-.249l-.664-1.029a5.013,5.013,0,0,1-.765-1.6,8.786,8.786,0,0,1-.1-1.83l-.075-6L.494.239A.247.247,0,0,0,0,.239Z" transform="translate(118.395 183.033)"/>
      <path id="Path-40" data-name="Path" d="M4.794,5.023,4.528,7.606c-.108.014-1.243.354-1.35.378a4.035,4.035,0,0,0-.207,7.835l-.565,12.1S20.729,23.364,23,25.352c-1.3-6.54-5.153-22.81-5.153-22.81C17.058.613,16.292.126,14.936.268L5.865,0" transform="translate(112.434 158.254)" fill="#ff9416"/>
      <path id="Path-41" data-name="Path" d="M4.794,5.27,4.528,7.854l.181-.238a6.722,6.722,0,0,0-.754.208c-.26.075-.521.145-.783.215a4.282,4.282,0,0,0-.02,8.266l-.181-.238-.192,4.112-.3,6.5-.069,1.486a.25.25,0,0,0,.313.238c.608-.151,1.218-.294,1.828-.435Q6.767,27.451,9,26.99c1.851-.381,3.708-.733,5.574-1.03a47.307,47.307,0,0,1,5.172-.593,14.168,14.168,0,0,1,1.964.018,4.337,4.337,0,0,1,.7.11,2.95,2.95,0,0,1,.3.086l.068.025c.065.024,0,0,.02.008.04.018.08.037.119.058s.07.042.105.063c.081.05-.02-.022.051.038a.249.249,0,0,0,.413-.24c-.261-1.312-.541-2.619-.826-3.926q-.525-2.411-1.071-4.817-.563-2.491-1.137-4.98-.517-2.244-1.04-4.486-.381-1.632-.764-3.263c-.1-.441-.18-.9-.314-1.334A5.354,5.354,0,0,0,17.8,1.612a3.233,3.233,0,0,0-.78-.919A2.088,2.088,0,0,0,16.1.29a4.564,4.564,0,0,0-.923-.022C14.463.286,13.736.225,13.021.2L9.036.086,6.255,0,6.112,0a.247.247,0,0,0,0,.494L8.094.553l3.948.116,2.909.086a7.993,7.993,0,0,1,1,.008,2.215,2.215,0,0,1,1.533,1.3,3.934,3.934,0,0,1,.41.956l.175.74q.341,1.446.679,2.893.5,2.123.987,4.247.566,2.451,1.124,4.9.553,2.436,1.092,4.876c.3,1.38.6,2.76.887,4.144q.086.419.17.839l.413-.24a2.362,2.362,0,0,0-1.176-.465,10.263,10.263,0,0,0-1.851-.108,39.2,39.2,0,0,0-5.075.5c-1.905.282-3.8.631-5.689,1.01q-2.379.478-4.744,1.022-.771.177-1.54.36a5.872,5.872,0,0,0-.727.176l-.032.008.313.238.192-4.112.3-6.5.069-1.486a.25.25,0,0,0-.181-.238,3.788,3.788,0,0,1-.111-7.276c.282-.086.572-.153.855-.235a7.248,7.248,0,0,1,.813-.225.251.251,0,0,0,.181-.238L5.288,5.27c.033-.316-.462-.314-.494,0Z" transform="translate(112.187 158.007)"/>
      <path id="Path-42" data-name="Path" d="M9.1,10.346l1.694,12.885L0,24.489A18.581,18.581,0,0,1,1.281,29.16c.167,1.062-.523,5.483-.5,6.371l15.083-2.446c4.582-.589,6.022-5.268,6.244-9.157L22.078,21.4,19.371,5.192A6.215,6.215,0,0,0,12.56.038L7.2.629" transform="translate(117.354 157.049)" fill="#ff9416"/>
      <path id="Path-43" data-name="Path" d="M9.095,10.58l.572,4.354.912,6.939.209,1.591.247-.247L7.4,23.642l-5.821.679-1.331.155a.251.251,0,0,0-.213.372,14.156,14.156,0,0,1,.877,2.686q.2.846.343,1.705a2.331,2.331,0,0,1,.047.367c.007.12.007.241,0,.361-.022,1.383-.233,2.768-.385,4.141A12.547,12.547,0,0,0,.78,35.765.251.251,0,0,0,1.093,36l3.788-.614,7.136-1.157c1.381-.224,2.761-.46,4.144-.672a7.394,7.394,0,0,0,1.863-.521,6.106,6.106,0,0,0,1.845-1.294,9.186,9.186,0,0,0,2.156-3.985,15.809,15.809,0,0,0,.457-2.3,11.412,11.412,0,0,0,.115-1.581l-.021-1.693a4.521,4.521,0,0,0-.021-.647c-.216-1.369-.457-2.734-.685-4.1l-1.194-7.151L19.883,5.54a6.672,6.672,0,0,0-1.219-2.953A6.5,6.5,0,0,0,14.457.062a11.312,11.312,0,0,0-2.92.1L8.134.54,7.448.616c-.313.034-.316.529,0,.494L12.694.532a6.119,6.119,0,0,1,4,.887,6.014,6.014,0,0,1,2.673,4.02c.206,1.167.391,2.338.586,3.507l1.171,7.013.882,5.281c.024.142.045.286.071.427.017.091,0-.094,0,.013-.01.2,0,.4.007.6l.02,1.644a11.126,11.126,0,0,1-.121,1.579c-.375,2.861-1.567,6.138-4.5,7.231a10.3,10.3,0,0,1-1.973.436l-2.264.367-6.92,1.122-5.1.826-.264.043.313.238a11.164,11.164,0,0,1,.116-1.454c.08-.739.168-1.477.246-2.217.071-.675.141-1.353.16-2.031A9.679,9.679,0,0,0,1.454,27.7a15.3,15.3,0,0,0-1-3.1l-.213.372,3.639-.424L9.7,23.868l1.331-.155c.119-.014.266-.1.247-.247l-.572-4.354L9.8,12.172,9.589,10.58a.256.256,0,0,0-.247-.247.248.248,0,0,0-.247.247Z" transform="translate(117.109 156.815)"/>
      <path id="Path-44" data-name="Path" d="M1.844,3.382C2.386,3.3,2.656,1.935,2.6,0L0,.093C.555,2.122,1.273,3.472,1.844,3.382Z" transform="translate(116.32 189.166)"/>
      <path id="Path-45" data-name="Path" d="M2.156,3.867c.481-.089.668-.707.762-1.111A10.014,10.014,0,0,0,3.094.247.25.25,0,0,0,2.847,0L.246.093A.25.25,0,0,0,.008.406,11.091,11.091,0,0,0,.979,2.957c.212.373.6.986,1.111.919a.256.256,0,0,0,.247-.247.248.248,0,0,0-.247-.247c-.028,0-.123-.007-.062.006a.264.264,0,0,1-.056-.015c-.043-.02.021.011-.007,0a.555.555,0,0,1-.191-.145A2.654,2.654,0,0,1,1.345,2.6,11.148,11.148,0,0,1,.484.274L.246.587l2.6-.093L2.6.247a10.057,10.057,0,0,1-.133,2.259,2.406,2.406,0,0,1-.209.659.533.533,0,0,1-.125.175c-.042.041,0,.007-.046.033s.049-.017-.009.005a.3.3,0,0,1-.053.013C1.712,3.448,1.845,3.925,2.156,3.867Z" transform="translate(116.074 188.919)"/>
      <path id="Path-46" data-name="Path" d="M5.711,4.671A18.581,18.581,0,0,0,4.43,0L2.639.211,0,.523.989,7.807,3.4,7.721,6,7.629a23.655,23.655,0,0,0-.286-2.957Z" transform="translate(112.923 181.538)" fill="#fc7272"/>
      <path id="Path-47" data-name="Path" d="M6.195,4.853A17.871,17.871,0,0,0,4.889.122.238.238,0,0,0,4.676,0L1.067.426l-.822.1A.253.253,0,0,0,.007.836l.335,2.47L.874,7.22,1,8.12a.247.247,0,0,0,.238.181l3.992-.143,1.015-.036a.251.251,0,0,0,.247-.247,24.434,24.434,0,0,0-.3-3.023c-.049-.313-.525-.18-.476.131A23.37,23.37,0,0,1,6,7.876l.247-.247L2.287,7.77l-1.052.038.238.181-.335-2.47L.606,1.605.484.7l-.238.313,3.4-.4L4.676.494,4.462.372A17.464,17.464,0,0,1,5.718,4.984C5.768,5.3,6.244,5.164,6.195,4.853Z" transform="translate(112.678 181.291)"/>
      <path id="Path-48" data-name="Path" d="M0,.615,5.416,0" transform="translate(126.327 179.876)" fill="#fff"/>
      <path id="Path-49" data-name="Path" d="M.236,1.111,4.983.572,5.652.5c.312-.035.316-.53,0-.494L.9.541.236.617c-.312.035-.316.53,0,.494Z" transform="translate(126.092 179.627)"/>
      <path id="Path-50" data-name="Path" d="M11.975,8.84,6.168,8.626a5.482,5.482,0,0,1-1.653.1h0a5.07,5.07,0,0,0-3.462.717L.03,9.072S-.149,3,.367,2.659l4.282-.043L2.214,1.375A.727.727,0,0,1,2.064.182h0A.727.727,0,0,1,2.752.03L7.36,1.4,9.874,1.4" transform="translate(104.001 180.553)" fill="#fc7272"/>
      <path id="Path-51" data-name="Path" d="M12.223,8.84l-3.19-.117-2-.074L6.5,8.629c-.027,0-.055,0-.082,0-.165.008-.334.064-.5.085a5.29,5.29,0,0,1-.54.039c-.37.009-.736-.038-1.106-.051A6.584,6.584,0,0,0,3.2,8.743a4.669,4.669,0,0,0-2.02.738l.19-.025L.343,9.081l.181.238C.48,7.817.467,6.309.54,4.808c.019-.392.048-.849.1-1.2a2.915,2.915,0,0,1,.082-.4c.008-.026.017-.051.025-.077.022-.066-.019.042.008-.017.007-.015.021-.029.026-.044S.738,3.106.764,3.1L.77,3.1q.074-.065-.155.057a.643.643,0,0,0,.175,0l.437,0,1.356-.014L4.9,3.11a.249.249,0,0,0,.125-.46L2.894,1.565c-.3-.153-.715-.337-.551-.764a.491.491,0,0,1,.6-.284c.077.02.152.045.228.068L5.8,1.37l1.282.382A2.506,2.506,0,0,0,7.62,1.9c.437.025.883,0,1.321,0l1.181,0a.247.247,0,0,0,0-.494L7.694,1.4a.313.313,0,0,0-.068,0c-.033.008-.04-.04.047.009A.326.326,0,0,0,7.62,1.4c-.111-.039-.227-.068-.34-.1L5.967.9,3.254.095C3.191.076,3.129.055,3.066.039A.975.975,0,0,0,2.385,1.86c.793.411,1.591.811,2.386,1.216l.125-.46-2.026.02c-.743.008-1.5-.021-2.24.023-.27.016-.36.312-.412.534A7.229,7.229,0,0,0,.075,4.322C0,5.326,0,6.336,0,7.342,0,8,.011,8.66.03,9.319a.257.257,0,0,0,.181.238l.919.337a.86.86,0,0,0,.1.038c.187.041.37-.145.524-.23a3.969,3.969,0,0,1,.987-.379,6.9,6.9,0,0,1,2.125-.09A5.75,5.75,0,0,0,6.09,9.182a3,3,0,0,1,.38-.06c.545-.008,1.1.04,1.641.06l2.555.094,1.557.057c.318.012.318-.482,0-.494Z" transform="translate(103.753 180.306)"/>
      <path id="Path-52" data-name="Path" d="M8.246,2.156C5.107,2.143,3.4,2.123,1.569,2.24S-.614,1.046,1.17.488A56.994,56.994,0,0,1,10.257.012" transform="translate(98.166 183.125)" fill="#fc7272"/>
      <path id="Path-53" data-name="Path" d="M8.485,2.163c-1.677-.007-3.355-.031-5.031.012q-.493.013-.985.035c-.344.016-.693.058-1.037.041a1.389,1.389,0,0,1-.795-.236.318.318,0,0,1-.128-.383,1.157,1.157,0,0,1,.62-.52A3.38,3.38,0,0,1,2.044.877C2.693.773,3.348.711,4,.662,5.371.559,6.744.519,8.115.506,8.909.5,9.7.5,10.5.513a.247.247,0,0,0,0-.494C8.351-.027,6.192.005,4.051.164c-.7.052-1.4.121-2.1.23a2.519,2.519,0,0,0-1.809.879A.865.865,0,0,0,.573,2.55a4.556,4.556,0,0,0,2.161.143c1.915-.079,3.835-.044,5.751-.036a.247.247,0,0,0,0-.494Z" transform="translate(97.927 182.871)"/>
      <path id="Path-54" data-name="Path" d="M9.516,0,6.5.139A2.834,2.834,0,0,0,3.84,2.488l-.145.84A1.3,1.3,0,0,1,2.679,4.381h0A3.363,3.363,0,0,0,0,7.586H0a3.363,3.363,0,0,0,3.367,3.45l5.095-.008" transform="translate(107.522 141.026)" fill="#a8542a"/>
      <path id="Path-55" data-name="Path" d="M9.764,0,8.049.079A11.165,11.165,0,0,0,6.211.21a3.1,3.1,0,0,0-2.316,2.25c-.081.321-.12.654-.177.98a1.1,1.1,0,0,1-.856.949,3.609,3.609,0,0,0,.212,7.1,10.345,10.345,0,0,0,1.488.04l4.058-.007h.093a.247.247,0,0,0,0-.494l-3.465.006-1.568,0A3.17,3.17,0,0,1,1.4,10.113,3.116,3.116,0,0,1,2.6,4.972a6.079,6.079,0,0,0,.747-.231,1.556,1.556,0,0,0,.62-.558,2.775,2.775,0,0,0,.3-1.072,3.517,3.517,0,0,1,.34-1.14A2.618,2.618,0,0,1,5.72.9,4.441,4.441,0,0,1,7.594.595L9.624.5l.14-.006c.317-.015.318-.509,0-.494Z" transform="translate(107.274 140.778)"/>
      <path id="Path-56" data-name="Path" d="M5.187,5.573,4.572,0,0,2.249.182,5.928" transform="translate(119.357 152.962)" fill="#fc7272"/>
      <path id="Path-57" data-name="Path" d="M5.681,5.818,5.143.937,5.066.244A.251.251,0,0,0,4.695.031L.689,2,.122,2.28A.242.242,0,0,0,0,2.494l.159,3.22.023.458c.016.316.51.318.494,0L.517,2.952.494,2.494l-.122.213L4.377.736,4.944.458,4.572.244l.538,4.88.077.693c.034.313.529.316.494,0Z" transform="translate(119.11 152.718)"/>
      <path id="Path-58" data-name="Path" d="M9.316,10.112c2.538-2.353,1.511-4.405,1.522-5.962.006-.9-1.35-2.743-1.35-2.743L1.978,0,.426,2.549s-2.78,10.489,5.858,8.217" transform="translate(114.827 144.774)" fill="#fc7272"/>
      <path id="Path-59" data-name="Path" d="M9.738,10.532a5.453,5.453,0,0,0,1.646-2.573,6.112,6.112,0,0,0,.068-2.267c-.04-.333-.09-.665-.11-1a3.355,3.355,0,0,0-.135-.938,8.429,8.429,0,0,0-1.045-1.926c-.087-.128-.2-.363-.36-.415a1.267,1.267,0,0,0-.165-.031L8.528,1.175,4.827.482C4,.327,3.165.16,2.332.015L2.291.007a.257.257,0,0,0-.279.114l-.895,1.47-.531.872a1.37,1.37,0,0,0-.155.28A9.921,9.921,0,0,0,.114,4.5,11.6,11.6,0,0,0,.123,7.808a4.624,4.624,0,0,0,1.523,2.941,5.12,5.12,0,0,0,4.2.672c.251-.048.5-.106.747-.171a.247.247,0,0,0-.131-.476,5.477,5.477,0,0,1-4.254-.224A3.846,3.846,0,0,1,.652,7.965,10.568,10.568,0,0,1,.575,4.781C.6,4.521.62,4.4.656,4.161Q.7,3.878.751,3.6c.043-.226.1-.449.144-.673A.275.275,0,0,0,.91,2.87c0-.022-.052.083,0,.02.146-.193.258-.424.384-.631L2.364.493,2.439.37,2.16.484,4.7.959l4.044.757.931.174-.148-.114c.226.308.436.63.632.957a3.9,3.9,0,0,1,.682,1.6c.035.536.092,1.064.149,1.6a5.374,5.374,0,0,1-.066,1.849,4.96,4.96,0,0,1-1.531,2.4c-.233.218.117.567.349.349Z" transform="translate(114.58 144.528)"/>
      <path id="Path-60" data-name="Path" d="M.421.741C.326.816.386.768.41.752s.063-.041.1-.06C.555.664.6.64.655.616.683.6.693.6.658.614L.709.594Q.763.574.818.557A1.85,1.85,0,0,1,1.059.5q.027,0-.009,0l.035,0L1.144.493q.074,0,.149,0A1.543,1.543,0,0,1,1.45.5c-.036,0,.044.008.043.008l.083.018a1.6,1.6,0,0,1,.318.11A.254.254,0,0,0,2.231.548.249.249,0,0,0,2.143.21,2.009,2.009,0,0,0,.707.075,1.884,1.884,0,0,0,.072.392a.248.248,0,0,0,0,.349.253.253,0,0,0,.349,0Z" transform="translate(117.825 148.503)"/>
      <path id="Path-61" data-name="Path" d="M.358.621A.8.8,0,0,1,1.129.576c.289.127.7.293.84.606a1.293,1.293,0,0,1-.133.929,3.079,3.079,0,0,1-.362.605.626.626,0,0,0-.184.34.682.682,0,0,0,.018.232c.124.462.668.427,1.039.363a.249.249,0,0,0,.173-.3.253.253,0,0,0-.3-.173,1.1,1.1,0,0,1-.4.011c-.024-.009-.03-.02-.023,0a.271.271,0,0,1,0-.157L1.717,3.2c.508-.611,1.159-1.73.538-2.476A1.721,1.721,0,0,0,1.772.345a3.069,3.069,0,0,0-.65-.3A1.247,1.247,0,0,0,.109.194C-.149.376.1.8.359.621Z" transform="translate(114.853 148.789)"/>
      <circle id="Oval-3" data-name="Oval" cx="0.32" cy="0.32" r="0.32" transform="translate(115.269 150.417)"/>
      <path id="Path-62" data-name="Path" d="M.247.461c0-.015,0-.029,0-.044s-.007.027,0,0L.252.4c0-.007.006-.035.013-.04L.259.373.266.357.279.336C.282.33.287.324.29.318s-.02.021,0,0S.308.3.318.291L.331.28.32.29.333.28.348.272S.38.252.363.263s0,0,.009,0L.393.254l.021,0c.028-.007-.021,0,0,0s.029,0,.044,0,.019,0,.022,0H.466l.013,0C.493.253.506.258.52.262S.5.249.521.263L.536.27c.008,0,.031.014.035.023L.559.284.568.292l.021.02L.6.325C.619.346.587.3.6.327L.622.363c.005.01.011.009,0-.006A.083.083,0,0,1,.629.381L.634.4s.009.038,0,.018,0,.007,0,.01,0,.012,0,.018,0,.018,0,.026c0,.025,0-.007,0-.007S.632.5.629.5s0,.021-.008.024L.627.514.62.529C.613.541.605.553.6.564s.014-.012,0,0L.585.578A.123.123,0,0,1,.555.606C.573.6.569.6.559.6L.531.619.516.626.53.621.514.627.476.637c-.014,0-.017.011,0,0a.065.065,0,0,1-.022,0c-.009,0-.041,0-.048,0l.016,0-.017,0L.382.63.362.623l.01,0L.357.62C.347.614.32.6.315.593s.022.02.006,0L.3.58.286.561C.267.541.3.583.285.56.281.554.257.524.26.516c0,.01.008.022,0,0S.255.5.252.489l0-.017q0-.021,0,.007,0-.009,0-.018A.124.124,0,1,0,0,.461.443.443,0,1,0,.309.021.443.443,0,0,0,0,.461a.124.124,0,1,0,.247,0Z" transform="translate(115.146 150.294)"/>
      <circle id="Oval-4" data-name="Oval" cx="0.32" cy="0.32" r="0.32" transform="translate(118.271 150.127)"/>
      <path id="Path-63" data-name="Path" d="M.247.461c0-.015,0-.029,0-.044s-.007.027,0,0L.252.4c0-.007.006-.035.013-.04L.259.373.266.357.279.336C.282.33.287.324.29.318s-.02.021,0,0S.308.3.318.291L.331.28.32.29.333.28.348.272S.38.252.363.263s0,0,.009,0L.393.254l.021,0c.028-.007-.021,0,0,0s.029,0,.044,0,.019,0,.022,0H.466l.013,0C.493.253.506.258.52.262S.5.249.521.263L.536.27c.008,0,.031.014.035.023L.559.284.569.292l.021.02L.6.325C.619.346.587.3.6.327L.622.363c.006.01.011.009,0-.006A.083.083,0,0,1,.629.381L.634.4s.009.038,0,.018,0,.007,0,.01,0,.012,0,.018,0,.018,0,.026c0,.025,0-.007,0-.007S.632.5.63.5s0,.021-.008.024L.627.514.62.529C.613.541.605.553.6.564s.014-.012,0,0L.585.578A.123.123,0,0,1,.555.606C.573.6.569.6.56.6L.531.619.516.626.53.621.514.627.476.637c-.014,0-.017.011,0,0a.065.065,0,0,1-.022,0c-.009,0-.041,0-.048,0l.016,0-.017,0L.382.63.362.623l.01,0L.357.62C.347.614.32.6.315.593s.022.02.006,0L.3.58.286.561C.267.541.3.583.285.56.281.554.257.524.26.516c0,.01.008.022,0,0S.255.5.252.489l0-.017q0-.021,0,.007,0-.009,0-.018A.124.124,0,1,0,0,.461.443.443,0,1,0,.309.021.443.443,0,0,0,0,.461a.124.124,0,0,0,.247,0Z" transform="translate(118.147 150.003)"/>
      <path id="Path-64" data-name="Path" d="M0,.326A.519.519,0,1,0,.985,0Z" transform="translate(117.766 152.618)"/>
      <path id="Path-65" data-name="Path" d="M0,.482A.642.642,0,0,0,1.227.09.125.125,0,0,0,1.075,0L.213.29.09.33A.126.126,0,0,0,0,.482.125.125,0,0,0,.156.569L1.019.283l.122-.04L.989.156A.4.4,0,0,1,.242.417.127.127,0,0,0,.09.33.125.125,0,0,0,0,.482Z" transform="translate(117.642 152.494)"/>
      <path id="Path-66" data-name="Path" d="M1.366.024A.773.773,0,0,0,.942.036,1.167,1.167,0,0,0,.259.679a3.074,3.074,0,0,0-.252.871.254.254,0,0,0,.173.3.25.25,0,0,0,.3-.173,3.875,3.875,0,0,1,.083-.409q.022-.081.048-.162.014-.041.029-.082L.655,1,.664.976.655,1A.624.624,0,0,0,.712.877C.732.838.755.8.779.762L.81.716A.241.241,0,0,0,.827.692S.786.742.81.715.856.66.881.635.923.6.945.577.888.616.931.588L.97.562A.688.688,0,0,1,1.036.525L1.063.512c-.079.043-.041.017-.016.008A1.13,1.13,0,0,1,1.161.493c-.1.023-.041,0-.009,0H1.2L1.24.5c.036,0-.083-.016-.033,0L1.234.5a.25.25,0,0,0,.3-.173.252.252,0,0,0-.173-.3Z" transform="translate(122.352 148.876)"/>
      <path id="Path-67" data-name="Path" d="M0,6.422l7.092.059,1.335,3.965a4.822,4.822,0,0,1,.282-2.558,1.206,1.206,0,0,1,.786-.574c.775-.075,1.4.128,1.5,1.237A4.088,4.088,0,0,1,10.18,11l.525,2.979h0A11.184,11.184,0,0,0,14.5,5.749a5.515,5.515,0,0,0-.709-2.94h0A5.524,5.524,0,0,0,8.816,0L1.431.212" transform="translate(113.438 140.906)" fill="#a8542a"/>
      <path id="Path-68" data-name="Path" d="M.238,6.917l2.4.02,3.82.032.875.007-.238-.181,1.17,3.476.165.489a.247.247,0,0,0,.476-.131c.006.04.007.064,0,0s-.012-.112-.018-.169q-.024-.264-.03-.529a4.039,4.039,0,0,1,.15-1.35,1.356,1.356,0,0,1,.4-.6.848.848,0,0,1,.643-.194.838.838,0,0,1,.82.488,2.148,2.148,0,0,1,.023,1.4,3.589,3.589,0,0,1-.558,1.3c-.1.124-.172.2-.144.365.013.079.028.159.042.238l.163.923.315,1.788a.249.249,0,0,0,.413.109,12.761,12.761,0,0,0,2.858-3.873A11.888,11.888,0,0,0,14.9,7.113a8.318,8.318,0,0,0,.038-2.134A5.767,5.767,0,0,0,8.981.005l-3.639.1c-1.2.034-2.407.051-3.609.1l-.065,0a.247.247,0,0,0,0,.494L4.6.624,8.672.508a6.778,6.778,0,0,1,1.668.107,5.277,5.277,0,0,1,4.149,5.45A12.14,12.14,0,0,1,13.8,9.671a11.3,11.3,0,0,1-2.734,4.092l-.292.29.413.109-.525-2.979-.064.24a2.4,2.4,0,0,0,.47-.75,5.328,5.328,0,0,0,.349-1.068,2.145,2.145,0,0,0-.365-1.928,1.585,1.585,0,0,0-1.685-.257,2.126,2.126,0,0,0-.98,1.833,6.645,6.645,0,0,0,.045,1.507l.476-.131L7.733,7.153l-.165-.489a.255.255,0,0,0-.238-.181l-2.4-.02L1.113,6.43.239,6.423a.247.247,0,0,0,0,.494Z" transform="translate(113.2 140.659)"/>
      <rect id="Rectangle" width="67.456" height="48.712" rx="24.356" transform="translate(22.679 167.258)" fill="#fff"/>
      <path id="Path-69" data-name="Path" d="M61.7,48.712H8.136c-.6,0-1.2,0-1.8,0A5.832,5.832,0,0,1,.68,44.393,11.088,11.088,0,0,1,.5,41.6V6.89c0-.206,0-.412,0-.619A5.763,5.763,0,0,1,6.262.494h54.78a6.878,6.878,0,0,1,3.37.679A5.816,5.816,0,0,1,67.32,4.99a6.9,6.9,0,0,1,.14,1.537V40.918c0,.674,0,1.348,0,2.022A5.826,5.826,0,0,1,61.7,48.712a.247.247,0,0,0,0,.494,6.328,6.328,0,0,0,6.258-6.258c0-.617,0-1.235,0-1.852V6.514A7.449,7.449,0,0,0,67.8,4.858,6.305,6.305,0,0,0,65.08.993,6.987,6.987,0,0,0,61.166,0H6.566A6.5,6.5,0,0,0,1.714,1.959,6.324,6.324,0,0,0,0,6.259c0,.173,0,.347,0,.52V41.613a11.5,11.5,0,0,0,.2,2.911,6.329,6.329,0,0,0,6.091,4.682c.545,0,1.09,0,1.635,0H61.7a.247.247,0,0,0,0-.494Z" transform="translate(22.429 167.011)"/>
      <path id="Path-70" data-name="Path" d="M0,6.8V3.233A3.233,3.233,0,0,1,3.233,0H64.223a3.233,3.233,0,0,1,3.233,3.233V6.8Z" transform="translate(22.679 167.258)"/>
      <path id="Path-71" data-name="Path" d="M.5,7.046C.5,5.86.482,4.672.5,3.486A3.027,3.027,0,0,1,3.555.5c1.007,0,2.013,0,3.02,0H64.06a3.81,3.81,0,0,1,1.647.265A3.026,3.026,0,0,1,67.46,3.491c.008.625,0,1.25,0,1.875V7.046l.247-.247H2.989c-.874,0-1.75-.016-2.624,0H.25a.247.247,0,0,0,0,.494H64.968c.874,0,1.75.016,2.624,0h.115a.251.251,0,0,0,.247-.247c0-1.2.022-2.407,0-3.609A3.523,3.523,0,0,0,64.441,0C63.494,0,62.547,0,61.6,0H3.787A3.851,3.851,0,0,0,1.506.621,3.533,3.533,0,0,0,0,3.486C0,4.1,0,4.717,0,5.332V7.046a.247.247,0,0,0,.494,0Z" transform="translate(22.429 167.007)"/>
      <path id="Rectangle-2" data-name="Rectangle" d="M10.775,0A10.775,10.775,0,1,1,0,10.775,10.775,10.775,0,0,1,10.775,0Z" transform="translate(61.004 181.645)" fill="#ff2323"/>
      <path id="Path-72" data-name="Path" d="M18.131,21.561h-14A3.863,3.863,0,0,1,2.617,21.3,3.468,3.468,0,0,1,.6,18.923a4.675,4.675,0,0,1-.093-1.106V4.313a5.506,5.506,0,0,1,.045-.942A3.479,3.479,0,0,1,2.417.861,5.792,5.792,0,0,1,5.117.5H17.524c.2,0,.4,0,.6,0a3.432,3.432,0,0,1,3.437,3.477c0,.266,0,.532,0,.8V18.071a3.507,3.507,0,0,1-.7,2.138,3.468,3.468,0,0,1-2.733,1.352.247.247,0,0,0,0,.494A3.93,3.93,0,0,0,22.059,18.1c0-.787,0-1.574,0-2.361V6.411c0-.813,0-1.626,0-2.438A3.932,3.932,0,0,0,18.293.014c-.7-.03-1.4,0-2.092,0H4.078a4.208,4.208,0,0,0-1.866.4A3.951,3.951,0,0,0,.144,2.936,10.118,10.118,0,0,0,.015,5.453V17.829A5.135,5.135,0,0,0,.131,19.08a3.953,3.953,0,0,0,2.036,2.551,4.178,4.178,0,0,0,1.9.424H18.131a.247.247,0,0,0,0-.494Z" transform="translate(60.742 181.387)"/>
      <path id="Rectangle-3" data-name="Rectangle" d="M10.775,0A10.775,10.775,0,1,1,0,10.775,10.775,10.775,0,0,1,10.775,0Z" transform="translate(30.268 181.832)" fill="#ff9416"/>
      <path id="Path-73" data-name="Path" d="M18.131,21.561h-14A3.863,3.863,0,0,1,2.617,21.3,3.468,3.468,0,0,1,.6,18.923a4.675,4.675,0,0,1-.093-1.106V4.313a5.508,5.508,0,0,1,.045-.942A3.479,3.479,0,0,1,2.417.861,5.792,5.792,0,0,1,5.117.5H17.524c.2,0,.4,0,.6,0a3.432,3.432,0,0,1,3.437,3.477c0,.266,0,.532,0,.8V18.071a3.507,3.507,0,0,1-.7,2.138,3.468,3.468,0,0,1-2.733,1.352.247.247,0,0,0,0,.494A3.93,3.93,0,0,0,22.059,18.1c0-.787,0-1.574,0-2.361V6.411c0-.813,0-1.626,0-2.438A3.932,3.932,0,0,0,18.293.014c-.7-.03-1.4,0-2.092,0H4.078a4.208,4.208,0,0,0-1.866.4A3.951,3.951,0,0,0,.144,2.936,10.118,10.118,0,0,0,.015,5.453V17.829A5.136,5.136,0,0,0,.131,19.08a3.953,3.953,0,0,0,2.036,2.551,4.178,4.178,0,0,0,1.9.424H18.131a.247.247,0,0,0,0-.494Z" transform="translate(30.006 181.574)"/>
      <path id="Path-74" data-name="Path" d="M7.215,12.363.564,7.013A1.492,1.492,0,1,1,2.435,4.687L6.767,8.172,12.935.553a1.492,1.492,0,0,1,2.32,1.878Z" transform="translate(33.246 186.426)"/>
      <path id="Path-75" data-name="Path" d="M7.629,12.432,5.6,10.8,2.125,8,1.1,7.18a2.591,2.591,0,0,1-.281-.246A1.247,1.247,0,0,1,1.908,4.858a1.37,1.37,0,0,1,.674.315l1.225.985L6.773,8.543l.059.047a.251.251,0,0,0,.349,0l3-3.706c1.053-1.3,2.091-2.616,3.16-3.9a1.247,1.247,0,1,1,1.972,1.526c-.275.361-.572.707-.858,1.06l-4.1,5.063-3.028,3.74-.049.061c-.2.245.149.6.349.349L10.289,9.5l4.3-5.316c.347-.429.7-.857,1.042-1.288a1.8,1.8,0,0,0,.392-1.553A1.753,1.753,0,0,0,14.087.016c-.789.111-1.2.74-1.654,1.306L10.478,3.738,6.9,8.156l-.069.085h.349L4.454,6.048,3.019,4.893a3.1,3.1,0,0,0-.444-.325A1.739,1.739,0,0,0,.607,7.414c.212.179.432.348.647.521l3.409,2.742c.857.69,1.712,1.382,2.572,2.069l.044.035C7.525,12.979,7.877,12.631,7.629,12.432Z" transform="translate(33.007 186.182)"/>
      <path id="Path-76" data-name="Path" d="M13.669,15.161a1.488,1.488,0,0,1-1.055-.437L.435,2.546A1.492,1.492,0,0,1,2.546.435L14.724,12.613a1.492,1.492,0,0,1-1.055,2.548Z" transform="translate(64.2 184.84)"/>
      <path id="Path-77" data-name="Path" d="M13.917,15.162a1.592,1.592,0,0,1-1.126-.61l-.941-.941L8.578,10.339,4.7,6.46,1.677,3.438.948,2.709a2.292,2.292,0,0,1-.2-.207A1.246,1.246,0,0,1,2.62.858c.035.034.068.068.1.1l.752.752L6.536,4.775l3.881,3.881,3.236,3.236.916.916a1.552,1.552,0,0,1,.593,1.083,1.259,1.259,0,0,1-1.245,1.271.247.247,0,0,0,0,.494,1.739,1.739,0,0,0,1.229-2.971c-.151-.155-.306-.306-.459-.459l-2.81-2.81L7.9,5.442,4.391,1.931,3.324.864a4.115,4.115,0,0,0-.662-.6A1.74,1.74,0,0,0,.041,2.115,2.234,2.234,0,0,0,.763,3.223L3.27,5.73,7.178,9.638l3.676,3.676c.6.6,1.206,1.214,1.815,1.815a1.8,1.8,0,0,0,1.248.527A.247.247,0,0,0,13.917,15.162Z" transform="translate(63.951 184.592)"/>
      <path id="Path-78" data-name="Path" d="M1.492,15.161A1.492,1.492,0,0,1,.437,12.613L12.615.435a1.492,1.492,0,0,1,2.111,2.111L2.548,14.724A1.488,1.488,0,0,1,1.492,15.161Z" transform="translate(64.198 184.84)"/>
      <path id="Path-79" data-name="Path" d="M1.74,15.163A1.261,1.261,0,0,1,.5,13.813a1.282,1.282,0,0,1,.389-.8c.2-.2.4-.4.593-.593L4.349,9.547,8.21,5.686,11.6,2.3c.492-.492.97-1.006,1.481-1.479a1.246,1.246,0,0,1,1.778,1.739c-.137.154-.292.3-.437.441l-2.6,2.6L8.008,9.41,4.462,12.956c-.6.6-1.205,1.211-1.813,1.813a1.3,1.3,0,0,1-.91.395.247.247,0,0,0,0,.494,1.8,1.8,0,0,0,1.25-.53l.2-.2.94-.94L7.507,10.61l4-4,3-3c.2-.2.409-.407.613-.613A1.739,1.739,0,0,0,12.927.31a2.537,2.537,0,0,0-.319.278l-.754.754L8.707,4.49,4.7,8.5,1.455,11.742l-.822.822c-.041.041-.082.081-.122.122a1.739,1.739,0,0,0,1.229,2.97A.247.247,0,0,0,1.74,15.163Z" transform="translate(63.951 184.591)"/>
      <path id="Path-80" data-name="Path" d="M.239.5H29.276c.392,0,.785.01,1.177,0H30.5A.247.247,0,0,0,30.5,0H1.467C1.075,0,.682-.006.29,0H.239A.247.247,0,0,0,.239.5Z" transform="translate(41.195 207.497)"/>
      <path id="Path-81" data-name="Path" d="M.239.5H35.179c.471,0,.942.009,1.413,0h.061a.247.247,0,0,0,0-.494H1.712C1.242,0,.77-.005.3,0H.239A.247.247,0,0,0,.239.5Z" transform="translate(38.121 210.004)"/>
      <path id="Path-82" data-name="Path" d="M.238.5H35c.47,0,.941.01,1.411,0h.061a.247.247,0,0,0,0-.494H1.711C1.241,0,.77-.006.3,0H.239A.247.247,0,0,0,.239.5Z" transform="translate(38.1 212.511)"/>
      <circle id="Oval-5" data-name="Oval" cx="1.224" cy="1.224" r="1.224" transform="translate(25.575 169.289)" fill="#ea2f2f"/>
      <circle id="Oval-6" data-name="Oval" cx="1.224" cy="1.224" r="1.224" transform="translate(30.321 169.289)" fill="#ffc41f"/>
      <circle id="Oval-7" data-name="Oval" cx="1.224" cy="1.224" r="1.224" transform="translate(35.068 169.289)" fill="#389b48"/>
      <path id="Path-83" data-name="Path" d="M3.813,1.151,1.033.053a.755.755,0,0,0-.99.453h0a.755.755,0,0,0,.3.88L2.8,3a3.863,3.863,0,0,0,1.22,4.284" transform="translate(87.272 166.141)" fill="#fc7272"/>
      <path id="Path-84" data-name="Path" d="M4.126,1.159C3.2.795,2.289.41,1.36.066A1,1,0,0,0,.288,1.7a2.625,2.625,0,0,0,.447.32l.783.515,1.4.924-.114-.279a4.044,4.044,0,0,0,.209,3.193A4.4,4.4,0,0,0,4.091,7.709c.24.206.591-.142.349-.349a3.676,3.676,0,0,1-1.362-2.7,3.39,3.39,0,0,1,.206-1.341.249.249,0,0,0-.114-.279L.785,1.467A.536.536,0,0,1,.527.818.525.525,0,0,1,1.242.548C1.7.723,2.15.907,2.6,1.086l1.39.549c.3.117.424-.361.131-.476Z" transform="translate(87.025 165.895)"/>
      <path id="Path-85" data-name="Path" d="M.5.17.186.843A1.328,1.328,0,0,0,.215,2.022l.278.528L.2,2.985A.977.977,0,0,0,.181,4.037l.308.505c.017.6-.531.853-.486,1.676H0c.045.822,1.212.874,1.959.89l2.264.049a2.472,2.472,0,0,0,1.757-.7h0a2.472,2.472,0,0,1,1.365-.676l9.608-1.417A43.82,43.82,0,0,0,16.378,0" transform="translate(101.999 184.819)" fill="#fc7272"/>
      <path id="Path-86" data-name="Path" d="M.544.285a4.019,4.019,0,0,0-.461,1.2,2.486,2.486,0,0,0,.455,1.43V2.664a2.642,2.642,0,0,0-.455.817A1.468,1.468,0,0,0,.36,4.621l.125.205a.358.358,0,0,0,.035.057C.563,4.927.528,4.8.5,4.848a1.858,1.858,0,0,0-.055.238,2.034,2.034,0,0,1-.115.233A2.818,2.818,0,0,0,.072,5.9c-.054.2-.137.565.014.73L.013,6.457c.08,1,1.253,1.108,2.04,1.133.545.017,1.091.024,1.637.036a4.1,4.1,0,0,0,2.086-.293c.516-.266.859-.753,1.415-.955a2.85,2.85,0,0,1,.561-.133l2.718-.4L14.7,5.219l1.676-.247c.284-.042.578-.067.859-.127l.041-.006a.246.246,0,0,0,.181-.238c-.1-1.161-.226-2.325-.4-3.478a8.262,8.262,0,0,0-.185-.95A.247.247,0,0,0,16.4.3a13.021,13.021,0,0,1,.31,1.862c.083.667.154,1.335.22,2q.021.216.041.431l.181-.238-2.05.3-4.118.607L7.85,5.734a3.4,3.4,0,0,0-1.241.373,3.931,3.931,0,0,0-.633.5,2.166,2.166,0,0,1-.723.421,2.684,2.684,0,0,1-.952.121L2.436,7.1C2.2,7.1,1.958,7.1,1.719,7.079A1.67,1.67,0,0,1,.628,6.739C.5,6.6.549,6.407.435,6.282l.072.175A2.212,2.212,0,0,1,.849,5.388a1.343,1.343,0,0,0,.145-.562.639.639,0,0,0-.141-.345,1.146,1.146,0,0,1-.287-.9,2.481,2.481,0,0,1,.4-.671.248.248,0,0,0,0-.249A1.962,1.962,0,0,1,.578,1.485,3.719,3.719,0,0,1,.971.534C1.1.248.678,0,.544.285Z" transform="translate(101.741 184.58)"/>
      <path id="Path-87" data-name="Path" d="M0,1.94.027.659,7.274,0,7.6,2.47,5.051,4.859.686,4.035,0,1.94Z" transform="translate(118.271 156.278)" fill="#ff9416"/>
      <path id="Path-88" data-name="Path" d="M.494,2.188.522.907l-.247.247L2.72.931l3.9-.355.9-.082L7.274.248,7.6,2.718a.256.256,0,0,0,.247.247A.248.248,0,0,0,8.1,2.718L7.768.248c-.016-.123-.1-.26-.247-.247L5.076.223l-3.9.355L.275.66A.253.253,0,0,0,.028.907L0,2.188a.247.247,0,0,0,.494,0Z" transform="translate(118.024 156.03)"/>
      <path id="Path-89" data-name="Path" d="M13.089,1.812C13.089,9.458,1.2,6.786,1.3,13.235-1.835,8.629,1.112,2.457,5.811.246a5.829,5.829,0,0,1,3.224,0" transform="translate(121.833 154.736)" fill="#a8542a"/>
      <path id="Path-90" data-name="Path" d="M13.089,2.06A4.959,4.959,0,0,1,11.922,5.4a8.06,8.06,0,0,1-2.839,1.9c-1.113.493-2.273.866-3.4,1.313A9.971,9.971,0,0,0,2.72,10.232a4.09,4.09,0,0,0-1.409,2.8c-.012.152-.016.3-.014.455l.46-.125A7.258,7.258,0,0,1,.519,9.884,8.39,8.39,0,0,1,1.049,6.3,10.219,10.219,0,0,1,5.885.854a3.537,3.537,0,0,1,1.158-.3A4.255,4.255,0,0,1,9.217.732.249.249,0,0,0,9.52.56a.253.253,0,0,0-.173-.3A4.358,4.358,0,0,0,7.286.03,5.884,5.884,0,0,0,6.007.252,4.172,4.172,0,0,0,5.3.61q-.424.24-.823.521A10.819,10.819,0,0,0,2.959,2.419,9.967,9.967,0,0,0,0,9.437a7.766,7.766,0,0,0,1.329,4.171.249.249,0,0,0,.46-.125,3.636,3.636,0,0,1,1.123-2.759A8.626,8.626,0,0,1,5.7,9.124c1.148-.459,2.325-.842,3.461-1.331a8.967,8.967,0,0,0,2.95-1.877A5.293,5.293,0,0,0,13.562,2.6c.014-.18.02-.36.021-.541a.247.247,0,0,0-.494,0Z" transform="translate(121.586 154.488)"/>
      <path id="Path-91" data-name="Path" d="M.007.151l.63,1.9L2.1,6.468l1.665,5.021L5,15.195c.084.254.167.509.253.763A6.835,6.835,0,0,0,6.81,18.5a7.026,7.026,0,0,0,2.17,1.511l.777.35,3.512,1.581,4.817,2.168L22.516,26.1l2.465,1.11.115.052c.144.065.27-.148.125-.213L23.5,26.275l-4.092-1.842-4.848-2.182L10.58,20.46c-.659-.3-1.343-.566-1.979-.91a6.689,6.689,0,0,1-2.8-2.9,8.064,8.064,0,0,1-.416-1.057L4.348,12.46,2.733,7.589,1.17,2.874.286.209.245.085C.2-.065-.043,0,.007.151Z" transform="translate(126.778 191.034)"/>
      <path id="Path-92" data-name="Path" d="M3.677.118l-.1.94L3.311,3.6,2.917,7.364l-.484,4.607L1.9,17.017,1.37,22.092l-.5,4.732L.452,30.837l-.3,2.875c-.048.453-.112.908-.143,1.363,0,.02,0,.039-.006.059-.017.158.231.157.247,0l.1-.94.267-2.545.395-3.761.484-4.607.53-5.047.533-5.075.5-4.732.421-4.013.3-2.875c.048-.453.112-.908.143-1.363,0-.02,0-.039.006-.059.017-.158-.231-.157-.247,0Z" transform="translate(117.097 196.988)"/>
    </g>
  </g>
</svg>
