<svg xmlns="http://www.w3.org/2000/svg" width="139.565" height="121.436" viewBox="0 0 139.565 121.436">
  <g id="Group_16425" data-name="Group 16425" transform="translate(-482.834 -348.564)">
    <circle id="Ellipse_488" data-name="Ellipse 488" cx="55.5" cy="55.5" r="55.5" transform="translate(511 359)" fill="#125be4" opacity="0.304"/>
    <g id="Group" transform="translate(460.574 235.557)">
      <path id="Path" d="M61.335,70.3A4.939,4.939,0,0,1,56.4,75.243H4.939A4.939,4.939,0,0,1,0,70.3V0H61.335Z" transform="translate(22.525 122.434)" fill="#fff"/>
      <path id="Path-2" data-name="Path" d="M61.337,70.574a4.731,4.731,0,0,1-3.814,4.6,6.734,6.734,0,0,1-1.283.079H5.337A4.679,4.679,0,0,1,.526,70.513c0-.239,0-.478,0-.717V.27L.264.532H60.672a7.1,7.1,0,0,0,.825,0,.876.876,0,0,1,.1,0L61.337.27V67.724c0,.91-.018,1.822,0,2.732,0,.04,0,.079,0,.119a.262.262,0,0,0,.524,0V3.121c0-.91.018-1.822,0-2.732,0-.04,0-.079,0-.119A.266.266,0,0,0,61.6.009H2.757c-.8,0-1.6-.019-2.391,0h-.1A.266.266,0,0,0,0,.27V68.731c0,.611-.005,1.223,0,1.835a5.266,5.266,0,0,0,2.5,4.457,5.444,5.444,0,0,0,2.871.753H55.154a8.579,8.579,0,0,0,3.63-.454,5.256,5.256,0,0,0,3.077-4.747A.262.262,0,0,0,61.337,70.574Z" transform="translate(22.261 122.163)"/>
      <path id="Path-3" data-name="Path" d="M4.939,0H56.4a4.939,4.939,0,0,1,4.939,4.939V9.174H0V4.939A4.939,4.939,0,0,1,4.939,0Z" transform="translate(22.525 113.275)"/>
      <path id="Path-4" data-name="Path" d="M5.2.529H55.241a9.409,9.409,0,0,1,2.835.217,4.715,4.715,0,0,1,3.261,4.331c.028,1.09,0,2.184,0,3.275V9.442L61.6,9.18H2.755c-.786,0-1.6-.061-2.385,0-.034,0-.07,0-.1,0l.262.262V6.011A9.389,9.389,0,0,1,.589,4.434,4.682,4.682,0,0,1,5.2.529a.262.262,0,0,0,0-.524A5.263,5.263,0,0,0,.291,3.5,6.172,6.172,0,0,0,0,5.579V9.442A.266.266,0,0,0,.265,9.7H59.111c.795,0,1.591.015,2.385,0h.1a.266.266,0,0,0,.262-.262V6.162c0-.417.016-.839-.009-1.255a5.2,5.2,0,0,0-.933-2.685A5.267,5.267,0,0,0,56.653.006c-.2,0-.4,0-.6,0H8c-.892,0-1.786-.013-2.678,0H5.2a.262.262,0,0,0,0,.524Z" transform="translate(22.26 113.008)"/>
      <path id="Path-5" data-name="Path" d="M4.506,9h29.85a4.79,4.79,0,0,0,1.576-.242,4.5,4.5,0,0,0,.3-8.4A4.688,4.688,0,0,0,34.389,0H4.509a4.5,4.5,0,1,0,0,9,.262.262,0,0,0,0-.524A3.976,3.976,0,1,1,4.557.524H34.4a4.074,4.074,0,0,1,1.843.414,3.977,3.977,0,0,1-1.5,7.529c-.445.028-.9.008-1.342.008H4.506a.262.262,0,0,0,0,.524Z" transform="translate(32.217 155.738)"/>
      <path id="Path-6" data-name="Path" d="M4.5,9h29.85a4.789,4.789,0,0,0,1.576-.242,4.5,4.5,0,0,0,.3-8.4A4.688,4.688,0,0,0,34.381,0H4.5a4.5,4.5,0,1,0,0,9,.262.262,0,0,0,0-.524A3.976,3.976,0,1,1,4.549.524H34.394a4.074,4.074,0,0,1,1.843.414,3.977,3.977,0,0,1-1.5,7.529c-.445.028-.9.008-1.342.008H4.5A.262.262,0,0,0,4.5,9Z" transform="translate(32.225 168.669)"/>
      <path id="Path-7" data-name="Path" d="M34.065,0H1.627C1.188,0,.748-.005.308,0H.252a.262.262,0,0,0,0,.524H32.689c.439,0,.88.009,1.319,0h.057a.262.262,0,0,0,0-.524Z" transform="translate(34.418 186.227)"/>
      <path id="Path-8" data-name="Path" d="M17.551.012H2.39c-.7,0-1.409-.028-2.109,0H.252a.262.262,0,0,0,0,.524H15.413c.7,0,1.409.028,2.109,0h.029a.262.262,0,0,0,0-.524Z" transform="translate(44.204 190.238)"/>
      <circle id="Oval" cx="1.297" cy="1.297" r="1.297" transform="translate(26.981 117.224)" fill="#ea2f2f"/>
      <circle id="Oval-2" data-name="Oval" cx="1.297" cy="1.297" r="1.297" transform="translate(32.01 117.224)" fill="#ffc41f"/>
      <circle id="Oval-3" data-name="Oval" cx="1.297" cy="1.297" r="1.297" transform="translate(37.04 117.224)" fill="#389b48"/>
      <path id="Path-9" data-name="Path" d="M8.206.611l.306,1.646A8.02,8.02,0,0,1,7,8.59L5.5,10.558,0,0" transform="translate(114.327 160.94)"/>
      <path id="Path-10" data-name="Path" d="M8.211.944,8.48,2.391a8.331,8.331,0,0,1,.1,2.593A7.772,7.772,0,0,1,7.5,8.036a16.52,16.52,0,0,1-1,1.384l-.97,1.27h.452L4.121,7.116,1.159,1.427.484.131C.329-.168-.123.1.032.4L1.893,3.97,4.855,9.659l.674,1.3a.265.265,0,0,0,.452,0L6.832,9.84c.329-.43.675-.854.973-1.306A8.373,8.373,0,0,0,9.014,2.41q-.148-.8-.3-1.605c-.061-.331-.566-.191-.5.139Z" transform="translate(114.068 160.677)"/>
      <path id="Path-11" data-name="Path" d="M2.556,0,12.871,5.656,4.911,20.3S1,17.893,3.444,12.38a2.163,2.163,0,0,0-.956-2.789C1.225,8.92,0,8.276,0,8.276" transform="translate(130.284 201.68)" fill="#389b48"/>
      <path id="Path-12" data-name="Path" d="M2.687.487l3.5,1.92,5.54,3.038,1.272.7-.094-.358L12.117,7.24l-1.9,3.5-2.3,4.231L5.929,18.627l-.657,1.21a5.489,5.489,0,0,0-.309.569.241.241,0,0,1-.014.025l.358-.094A.624.624,0,0,1,5.25,20.3c-.019-.015-.04-.028-.059-.042s-.111-.085-.048-.035a5.182,5.182,0,0,1-.509-.46,5.115,5.115,0,0,1-1.134-1.8,5.951,5.951,0,0,1-.21-3.168,11.9,11.9,0,0,1,.7-2.161A2.446,2.446,0,0,0,3.9,10.676,3.891,3.891,0,0,0,1.947,9.129L.4,8.311c-.3-.157-.563.3-.264.452l1.291.68c.4.211.8.417,1.2.634a1.9,1.9,0,0,1,.863,2.431,11.255,11.255,0,0,0-.7,2.151,6.534,6.534,0,0,0,.164,3.315,5.768,5.768,0,0,0,1.208,2.045,4.34,4.34,0,0,0,.887.77A.265.265,0,0,0,5.4,20.7l.791-1.456,1.9-3.5,2.3-4.231L12.38,7.853c.322-.592.663-1.178.967-1.779l.014-.025a.266.266,0,0,0-.094-.358l-3.5-1.92L4.224.732,2.951.035c-.3-.162-.56.29-.264.452Z" transform="translate(130.021 201.42)"/>
      <path id="Path-13" data-name="Path" d="M4.747,9.877.442,7.639c-1.478,4.375,1.184,6.547,1.731,6.937l0,.009,1.86,1.21c.371-.217,1.275-.544,1.554-1.054.369-.673-.329-1.056.04-1.728s1.067-.29,1.436-.962-.329-1.056.04-1.728,1.067-.29,1.436-.963S8.2,8.3,8.573,7.63s1.067-.29,1.436-.962-.329-1.056.04-1.729,1.067-.29,1.436-.963-.329-1.056.04-1.729c.225-.411.573-.428.894-.532a.362.362,0,0,0,.047-.67L11.621.635,10.157,0Z" transform="translate(132.927 207.341)" fill="#fff"/>
      <path id="Path-14" data-name="Path" d="M5.137,9.911,1.371,7.953l-.538-.28a.266.266,0,0,0-.385.156,7.168,7.168,0,0,0-.21,4.282A5.734,5.734,0,0,0,1.648,14.5a5.018,5.018,0,0,0,.651.558L2.2,14.7l0,.009a.268.268,0,0,0,.094.358l1.86,1.21a.261.261,0,0,0,.264,0c.684-.392,1.749-.708,1.794-1.654.018-.367-.262-.733-.161-1.092.126-.445.566-.444.924-.593a1.148,1.148,0,0,0,.712-1.092c-.019-.356-.287-.737-.132-1.087.179-.4.636-.381.984-.55a1.143,1.143,0,0,0,.615-1.137c-.046-.385-.309-.759-.055-1.124.219-.315.68-.284.989-.469a1.16,1.16,0,0,0,.525-1.208c-.069-.381-.3-.737.014-1.08a.918.918,0,0,1,.466-.224,1.636,1.636,0,0,0,.56-.24A1.169,1.169,0,0,0,12.073,3.5c-.09-.373-.281-.777.1-1.066.334-.251.852-.139.99-.636a.659.659,0,0,0-.425-.775c-.24-.116-.478-.237-.721-.349-.434-.2-.877-.381-1.315-.571L10.548.034a.268.268,0,0,0-.358.094L8.357,3.472,5.442,8.8,4.779,10c-.162.3.29.56.452.264L7.064,6.924,9.979,1.6l.663-1.21-.358.094,1.316.571c.134.058.265.121.4.185l.406.2a.849.849,0,0,1,.234.119c.083.091-.006.158-.092.185a2.631,2.631,0,0,0-.582.209,1.157,1.157,0,0,0-.53,1.19c.063.369.289.709.027,1.057-.222.295-.675.268-.975.447a1.157,1.157,0,0,0-.528,1.188c.063.37.289.708.027,1.057-.222.295-.675.268-.975.447A1.155,1.155,0,0,0,8.477,8.5c.058.367.289.7.045,1.055-.215.31-.665.285-.971.458A1.153,1.153,0,0,0,7,11.193c.058.366.289.7.045,1.055-.215.309-.664.285-.971.458a1.148,1.148,0,0,0-.555,1.143c.05.358.288.707.073,1.054a2.329,2.329,0,0,1-.989.7c-.151.075-.3.145-.451.229h.264l-1.86-1.21.094.358,0-.009a.269.269,0,0,0-.094-.358l-.092-.068-.014-.012-.062-.051q-.153-.126-.294-.264a5.026,5.026,0,0,1-.679-.809,5.347,5.347,0,0,1-.9-2.945A7.632,7.632,0,0,1,.953,7.969l-.385.156,3.767,1.958.538.28C5.172,10.518,5.437,10.066,5.137,9.911Z" transform="translate(132.669 207.082)"/>
      <path id="Path-15" data-name="Path" d="M4.335,8.093l.913-1.8c.117-.231.237-.461.352-.693A2.547,2.547,0,0,0,5.8,3.854,2.513,2.513,0,0,0,4.7,2.337c-.155-.1-.322-.178-.483-.264L2.08.932.395.033C.1-.125-.167.326.131.485L3.663,2.37A3.1,3.1,0,0,1,5.117,3.515a1.984,1.984,0,0,1,.091,1.693c-.088.214-.207.418-.311.624l-1.013,2c-.152.3.3.565.452.264Z" transform="translate(130.751 207.768)"/>
      <path id="Path-16" data-name="Path" d="M1.976,4.661a3.437,3.437,0,0,1-.787-.56,2.382,2.382,0,0,1-.58-2.3,3.144,3.144,0,0,1,.336-.725l.4-.695A.262.262,0,0,0,.894.122a7.4,7.4,0,0,0-.776,1.5A2.933,2.933,0,0,0,.686,4.325a3.631,3.631,0,0,0,1.026.788.262.262,0,0,0,.264-.452Z" transform="translate(139.404 205.728)"/>
      <path id="Path-17" data-name="Path" d="M0,.06A2.088,2.088,0,0,1,1.357.186" transform="translate(134.036 212.684)" fill="#a8542a"/>
      <path id="Path-18" data-name="Path" d="M.331.572a.942.942,0,0,1,.1-.025L.484.539.518.534c-.012,0-.071.008-.026,0S.6.527.653.524s.124,0,.185,0L.946.533A.361.361,0,0,1,1,.539c-.064-.016,0,0,.015,0A2.237,2.237,0,0,1,1.26.6q.06.017.119.037l.073.026c.008,0,.075.03.036.013a.288.288,0,0,0,.2.026A.262.262,0,0,0,1.751.22,2.559,2.559,0,0,0,.669,0,1.791,1.791,0,0,0,.192.068a.262.262,0,0,0,.139.5Z" transform="translate(133.774 212.424)"/>
      <path id="Path-19" data-name="Path" d="M0,.723A2.088,2.088,0,0,1,1.156,0" transform="translate(133.621 211.11)" fill="#a8542a"/>
      <path id="Path-20" data-name="Path" d="M.487,1.116c.03-.042-.037.046-.022.028S.5,1.1.518,1.083a1.891,1.891,0,0,1,.207-.2L.762.855C.7.908.734.877.75.865S.809.822.839.8A2.2,2.2,0,0,1,1.033.685q.051-.027.1-.051A.217.217,0,0,1,1.2.606L1.184.612,1.217.6a2.386,2.386,0,0,1,.27-.085.262.262,0,0,0-.139-.5,2.545,2.545,0,0,0-.984.5A1.745,1.745,0,0,0,.035.852a.263.263,0,0,0,.094.358.269.269,0,0,0,.358-.094Z" transform="translate(133.359 210.848)"/>
      <path id="Path-21" data-name="Path" d="M0,1.149A2.088,2.088,0,0,1,.734,0" transform="translate(132.57 209.969)" fill="#a8542a"/>
      <path id="Path-22" data-name="Path" d="M.513,1.478a.943.943,0,0,1,.026-.105C.55,1.334.563,1.3.577,1.258S.595,1.212.6,1.189c.016-.04-.03.069,0,.009l.018-.039A2.171,2.171,0,0,1,.833.8L.854.771.839.79.878.743Q.919.693.963.647a2.369,2.369,0,0,1,.216-.2.263.263,0,0,0,0-.37.269.269,0,0,0-.37,0A2.423,2.423,0,0,0,.166.895a1.772,1.772,0,0,0-.158.444.268.268,0,0,0,.183.322.265.265,0,0,0,.322-.183Z" transform="translate(132.31 209.71)"/>
      <path id="Path-23" data-name="Path" d="M0,1.149A2.088,2.088,0,0,1,.734,0" transform="translate(131.329 209.298)" fill="#a8542a"/>
      <path id="Path-24" data-name="Path" d="M.513,1.478a.944.944,0,0,1,.026-.105C.55,1.334.563,1.3.577,1.258S.595,1.212.6,1.189c.016-.04-.03.069,0,.009l.018-.039A2.172,2.172,0,0,1,.833.8L.854.771.839.79.878.742Q.919.693.963.647a2.369,2.369,0,0,1,.216-.2.263.263,0,0,0,0-.37.269.269,0,0,0-.37,0A2.423,2.423,0,0,0,.166.895a1.772,1.772,0,0,0-.158.444.268.268,0,0,0,.183.322.265.265,0,0,0,.322-.183Z" transform="translate(131.068 209.039)"/>
      <path id="Path-25" data-name="Path" d="M19.368.777,15.983,12.043,0,7.307S1.544,2.984,7.444,4.223A2.163,2.163,0,0,0,9.973,2.707C10.366,1.332,10.741,0,10.741,0" transform="translate(80.098 209.913)" fill="#389b48"/>
      <path id="Path-26" data-name="Path" d="M19.377.962,18.227,4.787l-1.818,6.051-.417,1.39.322-.183-1.589-.471-3.816-1.131L6.292,9.075,2.3,7.892.98,7.5a5.716,5.716,0,0,0-.621-.184L.331,7.309l.183.322c0-.011.015-.057.024-.06s-.025.057-.01.025l.017-.038c.015-.032.029-.065.045-.1a4.86,4.86,0,0,1,.324-.568A5.266,5.266,0,0,1,2.34,5.456a5.8,5.8,0,0,1,2.9-.928,8.87,8.87,0,0,1,2.1.144,3.535,3.535,0,0,0,1.116.092,2.415,2.415,0,0,0,1.8-1.193,6,6,0,0,0,.462-1.363q.268-.942.533-1.884a.262.262,0,0,0-.5-.139q-.215.765-.432,1.528a3.778,3.778,0,0,1-.989,2.148,1.943,1.943,0,0,1-.873.379,3.2,3.2,0,0,1-1.087-.093A9.387,9.387,0,0,0,5.242,4a6.052,6.052,0,0,0-4.69,2.49,4.288,4.288,0,0,0-.543,1,.265.265,0,0,0,.183.322l1.589.471L5.6,9.415l4.617,1.368,3.992,1.183c.645.191,1.288.414,1.941.575l.027.008a.266.266,0,0,0,.322-.183l1.149-3.825,1.818-6.051.418-1.39a.262.262,0,0,0-.5-.139Z" transform="translate(79.837 209.658)"/>
      <path id="Path-27" data-name="Path" d="M12.571,1.91,0,49.112l12.485,3.14s8.7-34.519,9.641-39.793S23.7,0,23.7,0" transform="translate(89.517 160.267)" fill="#125be4"/>
      <path id="Path-28" data-name="Path" d="M12.579,2.092l-.336,1.262-.915,3.435L9.975,11.87l-1.651,6.2L6.516,24.86,4.69,31.714l-1.7,6.39L1.551,43.5.518,47.382C.355,47.992.18,48.6.03,49.214c-.007.027-.014.053-.021.079a.265.265,0,0,0,.183.322l4.225,1.063,6.726,1.692,1.533.386A.266.266,0,0,0,13,52.573l.336-1.335q.448-1.784.9-3.569.652-2.6,1.3-5.207.77-3.09,1.535-6.181.814-3.289,1.62-6.581.771-3.151,1.532-6.3.656-2.726,1.294-5.457c.305-1.312.608-2.624.886-3.942.422-2,.706-4.024.971-6.047q.477-3.639.814-7.3.019-.2.037-.4c.03-.336-.494-.334-.524,0-.158,1.8-.353,3.592-.564,5.384-.3,2.534-.608,5.081-1.108,7.585-.234,1.173-.5,2.339-.769,3.5q-.593,2.585-1.215,5.163-.737,3.081-1.49,6.158-.8,3.277-1.609,6.551-.781,3.163-1.568,6.325-.682,2.74-1.367,5.48Q13.5,48.41,13,50.417c-.16.639-.367,1.283-.486,1.932-.005.028-.014.057-.021.085l.322-.183L8.59,51.188,1.864,49.5.331,49.111l.183.322L.85,48.17l.915-3.435,1.353-5.081,1.651-6.2,1.808-6.79L8.4,19.811l1.7-6.39,1.438-5.4,1.033-3.88c.162-.61.337-1.218.488-1.832.007-.027.014-.053.021-.079a.262.262,0,0,0-.5-.139Z" transform="translate(89.256 160.016)"/>
      <path id="Path-29" data-name="Path" d="M2.721,3.054.118,25.6A19.126,19.126,0,0,0,7.656,43.079a17.272,17.272,0,0,0,2.036,1.305l13.066,7.1,6.3-11.229s-10.793-6.815-15.638-9.1l1.842-18.043a15,15,0,0,0-.543-5.793L12.058,0h-8.2" transform="translate(106.544 159.719)" fill="#125be4"/>
      <path id="Path-30" data-name="Path" d="M2.72,3.316,2.44,5.746l-.66,5.712L1,18.256.357,23.782C.243,24.765.1,25.751.04,26.739a19.641,19.641,0,0,0,2.1,10.172,18.934,18.934,0,0,0,7.512,7.87c1.012.566,2.038,1.109,3.057,1.663l5.86,3.185,4.1,2.228.215.117a.266.266,0,0,0,.358-.094l2.135-3.807,3.385-6.037.776-1.385a.267.267,0,0,0-.094-.358q-1.954-1.234-3.928-2.435c-2.582-1.579-5.179-3.136-7.818-4.616-1.278-.717-2.566-1.424-3.892-2.05l.13.226.4-3.953.8-7.817.593-5.811a17.393,17.393,0,0,0,.068-3.288,15.133,15.133,0,0,0-.88-3.88L12.63.353l-.058-.16A.271.271,0,0,0,12.319,0h-8.2a.262.262,0,0,0,0,.524h8.2L12.066.331l2.085,5.743a20.4,20.4,0,0,1,.862,2.713,15.347,15.347,0,0,1,.225,4.777l-.528,5.168-.8,7.885-.321,3.14c-.054.527-.131,1.058-.162,1.587,0,.024,0,.048-.007.072a.253.253,0,0,0,.13.226c2.538,1.2,4.969,2.64,7.385,4.065q3.455,2.038,6.859,4.164.7.434,1.394.872l-.094-.358-2.135,3.807L23.57,50.23l-.776,1.385.358-.094-2.968-1.613-5.8-3.155-4.085-2.22a18.53,18.53,0,0,1-6.42-5.744A19.049,19.049,0,0,1,.547,28.966a26.3,26.3,0,0,1,.238-4.354l.57-4.933.77-6.67.71-6.151.391-3.384.018-.158c.039-.334-.485-.331-.524,0Z" transform="translate(106.283 159.457)"/>
      <path id="Path-31" data-name="Path" d="M12.81,3.185,11.575,2.87l-2.987-.76L4.99,1.2,1.863.4C1.359.272.856.124.348.015L.325.009a.262.262,0,0,0-.139.5L1.422.828l2.986.76,3.6.915,3.127.8c.5.128,1.007.276,1.515.385l.022.006a.262.262,0,0,0,.139-.5Z" transform="translate(90.054 205.907)"/>
      <path id="Path-32" data-name="Path" d="M6.326.128,5.7,1.243,4.2,3.922,2.385,7.164.813,9.968c-.255.455-.528.9-.766,1.368l-.011.02a.262.262,0,0,0,.452.264l.625-1.115,1.5-2.678L4.43,4.585,6,1.78c.255-.455.528-.9.766-1.368l.011-.02A.262.262,0,0,0,6.326.128Z" transform="translate(126.476 198.213)"/>
      <path id="Path-33" data-name="Path" d="M5.938,4.739,7.231.063C2.644-.473,1.074,2.583.806,3.2L.8,3.2,0,5.267c.289.318.8,1.133,1.355,1.3.735.221.964-.542,1.7-.321s.506.984,1.24,1.2.964-.542,1.7-.321.506.984,1.24,1.2.964-.542,1.7-.321.505.984,1.24,1.2.964-.542,1.7-.321.506.984,1.241,1.2.964-.542,1.7-.321c.449.135.538.472.707.764a.362.362,0,0,0,.665-.093l.224-.912.317-1.564Z" transform="translate(79.336 213.913)" fill="#fff"/>
      <path id="Path-34" data-name="Path" d="M6.452,5.067,7.583.976,7.745.391A.266.266,0,0,0,7.492.059,7.155,7.155,0,0,0,3.273.747,5.732,5.732,0,0,0,1.242,2.605a4.652,4.652,0,0,0-.4.721l.3-.12-.009,0a.268.268,0,0,0-.322.183l-.8,2.071a.261.261,0,0,0,.067.255c.541.606,1.169,1.709,2.155,1.357.349-.124.646-.438,1.039-.3.366.126.441.56.664.834a1.144,1.144,0,0,0,1.218.357c.336-.112.632-.426,1.008-.323s.462.519.681.808a1.148,1.148,0,0,0,1.214.41c.341-.1.643-.431,1.02-.341.4.1.469.494.685.788a1.155,1.155,0,0,0,1.216.442c.331-.089.63-.416.991-.357.425.07.5.462.711.768a1.162,1.162,0,0,0,1.2.482c.342-.076.641-.416,1.006-.37.518.065.492.6.843.862a.63.63,0,0,0,.975-.368c.077-.271.135-.549.2-.823.116-.475.2-.96.294-1.438l.039-.193a.268.268,0,0,0-.183-.322L13.4,6.885,7.591,5.142l-1.321-.4a.262.262,0,0,0-.139.5l3.653,1.1L15.6,8.09l1.321.4-.183-.322-.3,1.476c-.036.177-.083.351-.126.526-.023.093-.069.6-.24.556-.118-.03-.195-.307-.254-.4a1.154,1.154,0,0,0-.482-.456,1.278,1.278,0,0,0-1.243.112.694.694,0,0,1-.933-.049,2.612,2.612,0,0,1-.249-.432,1.259,1.259,0,0,0-.41-.457,1.2,1.2,0,0,0-1.232-.009c-.312.164-.633.359-.965.1a1.2,1.2,0,0,1-.28-.415,1.481,1.481,0,0,0-.343-.467A1.167,1.167,0,0,0,8.43,8.093c-.329.15-.607.4-.98.2-.31-.163-.387-.589-.609-.84a1.146,1.146,0,0,0-1.218-.3c-.335.122-.618.417-1,.3-.363-.109-.435-.5-.635-.774a1.155,1.155,0,0,0-1.2-.447c-.328.08-.615.4-.965.367-.433-.038-.766-.5-1.014-.809C.692,5.643.576,5.486.447,5.341L.514,5.6l.8-2.071-.322.183L1,3.71a.263.263,0,0,0,.3-.12A5.223,5.223,0,0,1,4.942.68a7.625,7.625,0,0,1,2.55-.1L7.24.252,6.109,4.343l-.162.585a.262.262,0,0,0,.5.139Z" transform="translate(79.074 213.655)"/>
      <path id="Path-35" data-name="Path" d="M.186,5.871l1.95.519c.25.066.5.135.75.2a2.545,2.545,0,0,0,1.772-.183A2.509,2.509,0,0,0,5.891,4.992c.059-.169.1-.344.152-.515l.673-2.336L7.24.323a.262.262,0,0,0-.5-.139L5.635,4l-.193.669A2.055,2.055,0,0,1,4.79,5.7a1.969,1.969,0,0,1-1.609.421c-.234-.046-.464-.118-.693-.179L.325,5.366a.262.262,0,0,0-.139.5Z" transform="translate(85.89 209.97)"/>
      <path id="Path-36" data-name="Path" d="M.519,2.446A3.45,3.45,0,0,1,.9,1.575,2.381,2.381,0,0,1,3.032.527a3.206,3.206,0,0,1,.8.187l.747.243c.321.1.459-.4.139-.5A7.3,7.3,0,0,0,3.082.007a2.913,2.913,0,0,0-2.5,1.115A3.736,3.736,0,0,0,.014,2.307c-.1.321.4.459.5.139Z" transform="translate(92.21 218.396)"/>
      <path id="Path-37" data-name="Path" d="M0,0A2.088,2.088,0,0,1,.159,1.354" transform="translate(88.893 214.163)" fill="#a8542a"/>
      <path id="Path-38" data-name="Path" d="M.036.394C.053.423.065.455.08.486.034.394.069.46.078.485S.094.528.1.55Q.128.625.147.7.17.795.186.889c0,.019.021.068,0,0A.3.3,0,0,1,.193.949Q.2,1,.2,1.058a2.231,2.231,0,0,1,0,.248q0,.07-.013.139c0-.039,0-.006,0,.015s-.01.057-.016.086a.262.262,0,1,0,.5.139A2.566,2.566,0,0,0,.656.578,1.779,1.779,0,0,0,.488.13.262.262,0,0,0,.036.394Z" transform="translate(88.631 213.901)"/>
      <path id="Path-39" data-name="Path" d="M0,0A2.088,2.088,0,0,1,.947.98" transform="translate(89.698 213.567)" fill="#a8542a"/>
      <path id="Path-40" data-name="Path" d="M.13.486A1.287,1.287,0,0,1,.346.611L.392.644.415.66.43.672.4.649c.035.035.078.064.115.1A2.2,2.2,0,0,1,.756,1c.035.044-.031-.042,0,0l.034.047q.033.046.063.094a2.374,2.374,0,0,1,.126.226.263.263,0,0,0,.358.094.268.268,0,0,0,.094-.358A2.4,2.4,0,0,0,.475.075.876.876,0,0,0,.394.034a.288.288,0,0,0-.2-.026.267.267,0,0,0-.156.12.264.264,0,0,0-.026.2A.252.252,0,0,0,.13.486Z" transform="translate(89.436 213.307)"/>
      <path id="Path-41" data-name="Path" d="M0,0A2.088,2.088,0,0,1,1.277.478" transform="translate(90.178 212.391)" fill="#a8542a"/>
      <path id="Path-42" data-name="Path" d="M.26.524a.934.934,0,0,1,.1,0l.056,0,.026,0c.046,0-.068-.01-.024,0S.53.55.583.562.7.593.765.612L.859.646A.361.361,0,0,1,.913.667c-.056-.032,0,0,.01,0A2.241,2.241,0,0,1,1.15.79q.06.036.117.075L1.316.9c.008.005.073.055.035.026A.285.285,0,0,0,1.536,1,.262.262,0,0,0,1.722.555,2.553,2.553,0,0,0,.737.06,1.789,1.789,0,0,0,.26,0a.262.262,0,0,0,0,.524Z" transform="translate(89.918 212.129)"/>
      <path id="Path-43" data-name="Path" d="M0,0A2.088,2.088,0,0,1,1.277.478" transform="translate(90.576 211.037)" fill="#a8542a"/>
      <path id="Path-44" data-name="Path" d="M.262.524a.934.934,0,0,1,.1,0l.056,0,.026,0c.046,0-.068-.01-.024,0s.108.018.161.03S.707.593.767.612L.861.646A.361.361,0,0,1,.915.667c-.056-.032,0,0,.01,0A2.24,2.24,0,0,1,1.152.79q.06.036.117.075L1.318.9c.008.005.073.055.035.026A.285.285,0,0,0,1.538,1,.262.262,0,0,0,1.723.555,2.553,2.553,0,0,0,.739.06,1.789,1.789,0,0,0,.262,0a.262.262,0,1,0,0,.524Z" transform="translate(90.315 210.775)"/>
      <path id="Path-45" data-name="Path" d="M2.225,3.762c.674-.156.94-1.827.9-3.762L0,1.316C.486,2.91,1.511,3.927,2.225,3.762Z" transform="translate(115.283 141.567)"/>
      <path id="Path-46" data-name="Path" d="M2.556,4.283c.559-.145.771-.832.884-1.326a11.084,11.084,0,0,0,.2-2.689c0-.151-.168-.321-.331-.252L.588,1.164l-.4.167a.268.268,0,0,0-.183.322A5.058,5.058,0,0,0,1.134,3.685a1.608,1.608,0,0,0,1.422.6c.33-.069.19-.574-.139-.5a.716.716,0,0,1-.179,0,.881.881,0,0,1-.247-.087,2,2,0,0,1-.549-.444A4.572,4.572,0,0,1,.513,1.514L.33,1.836,3.056.688l.4-.167L3.121.268a11.132,11.132,0,0,1-.155,2.406,3,3,0,0,1-.239.774.96.96,0,0,1-.155.234.3.3,0,0,1-.156.1A.262.262,0,0,0,2.556,4.283Z" transform="translate(115.022 141.299)"/>
      <path id="Path-47" data-name="Path" d="M35.933,11.955l-9.9,8.613-2.146,1.755c-2.923,2.325-5.166,2.2-10.191-1.061L0,9.554l3.287-5.2,16.055,10.51L20.109,14,30.661,1.851A5.375,5.375,0,0,1,34.72,0h2.806" transform="translate(68.969 137.73)" fill="#a8542a"/>
      <path id="Path-48" data-name="Path" d="M36.01,12.033l-2.09,1.819-4.213,3.667-3.245,2.825c-.78.679-1.592,1.32-2.393,1.975A7.451,7.451,0,0,1,21.79,23.67a4.972,4.972,0,0,1-2.883.044,14.711,14.711,0,0,1-3.814-1.786,9.115,9.115,0,0,1-1.232-.832l-2.69-2.3-4.23-3.615L2.866,11.7.557,9.727l-.11-.094.041.317L3.372,5.384l.4-.637-.358.094,1.6,1.046L8.852,8.4l4.641,3.038,4.01,2.625c.644.422,1.277.882,1.941,1.271l.028.018a.264.264,0,0,0,.317-.041c.613-.685,1.218-1.375,1.82-2.069l3.609-4.157,3.956-4.556c.644-.742,1.285-1.487,1.932-2.226A5.186,5.186,0,0,1,35,.526c.843,0,1.686,0,2.529,0h.255a.262.262,0,0,0,0-.524H35.359A7.828,7.828,0,0,0,33.966.1a5.571,5.571,0,0,0-2.306.991,7.662,7.662,0,0,0-1.223,1.19L29.269,3.621,25.412,8.063,21.6,12.453c-.614.707-1.224,1.417-1.849,2.114l-.333.372.317-.041-1.6-1.046L14.3,11.34,9.659,8.3,5.649,5.677C5,5.255,4.372,4.8,3.708,4.406L3.68,4.388a.266.266,0,0,0-.358.094L.438,9.049l-.4.637A.264.264,0,0,0,.076,10l1.666,1.424,3.838,3.28,4.371,3.735,3.174,2.713c.209.179.416.361.628.537a2.04,2.04,0,0,0,.2.141c.383.247.769.488,1.161.72a20.108,20.108,0,0,0,2.063,1.089,7.635,7.635,0,0,0,3.313.792,5.686,5.686,0,0,0,2.828-.93,19.431,19.431,0,0,0,1.933-1.479c.422-.345.851-.681,1.264-1.036.841-.722,1.672-1.455,2.508-2.183l4.287-3.731,2.92-2.542.148-.129c.255-.222-.117-.591-.37-.37Z" transform="translate(68.708 137.466)"/>
      <path id="Path-49" data-name="Path" d="M36.474,10.994l-9.721,9.311-2.146,1.755c-2.923,2.325-9.11,5.021-14.136,1.761L0,14.4l5.747-7.6L17.7,14.861,18.468,14,29.021,1.851A5.375,5.375,0,0,1,33.079,0h2.806" transform="translate(70.61 137.73)" fill="#ff9416"/>
      <path id="Path-50" data-name="Path" d="M36.551,11.073l-1.742,1.669-3.7,3.542L27.751,19.5l-.833.8c-.251.24-.533.448-.8.667-.511.418-1.014.849-1.537,1.254a15.417,15.417,0,0,1-2.931,1.761,12.416,12.416,0,0,1-7.806,1.127,8.965,8.965,0,0,1-2.048-.717,4.9,4.9,0,0,1-.919-.527c-.246-.2-.477-.43-.715-.644L6.9,20.28,2.978,16.755.564,14.582l-.117-.105.041.317,1.951-2.582,3.084-4.08.712-.942-.358.094,1.188.8L9.917,10.01l3.452,2.329,2.986,2.015c.482.325.954.687,1.455.982l.021.014a.263.263,0,0,0,.317-.041c.608-.678,1.206-1.362,1.8-2.05l3.617-4.166,3.972-4.575c.642-.739,1.28-1.481,1.925-2.218a5.187,5.187,0,0,1,3.9-1.776c.839,0,1.677,0,2.516,0h.265a.262.262,0,0,0,0-.524H33.726a7.961,7.961,0,0,0-1.377.089,5.567,5.567,0,0,0-2.307.978A7.63,7.63,0,0,0,28.793,2.28L27.625,3.626,23.773,8.062l-3.824,4.4c-.609.7-1.215,1.406-1.835,2.1l-.336.375L18.1,14.9l-1.188-.8-2.852-1.925L10.6,9.843,7.617,7.828c-.482-.325-.954-.687-1.455-.982l-.021-.014a.268.268,0,0,0-.358.094L3.832,9.507.748,13.588l-.712.942a.262.262,0,0,0,.041.317l1.75,1.575,3.785,3.406,3.624,3.261,1.065.959a5.65,5.65,0,0,0,1.421.887,11.3,11.3,0,0,0,8.214.276,16.561,16.561,0,0,0,5.476-2.992c.732-.6,1.485-1.172,2.168-1.826l2.91-2.787,3.854-3.691L36.8,11.56l.122-.117c.244-.234-.127-.6-.37-.37Z" transform="translate(70.348 137.466)"/>
      <path id="Path-51" data-name="Path" d="M4.6,0l9.061.21c1.381-.1,2.143.423,2.878,2.407,0,0,3.358,16.647,4.457,23.33-2.239-2.1-21-.532-21-.532L2.077,4.809" transform="translate(101.892 137.698)" fill="#ff9416"/>
      <path id="Path-52" data-name="Path" d="M4.865.524,6.881.57l4.006.093,2.861.066a4.481,4.481,0,0,1,1.1.068,2.453,2.453,0,0,1,1.426,1.489,3.775,3.775,0,0,1,.314.86l.155.771q.3,1.5.6,3,.431,2.168.856,4.337.489,2.494.969,4.99.475,2.475.937,4.953c.261,1.408.517,2.816.758,4.228q.073.426.143.852l.438-.255a2.863,2.863,0,0,0-1.18-.573,12.221,12.221,0,0,0-1.883-.345,44.452,44.452,0,0,0-5.136-.251c-1.929-.008-3.858.043-5.785.124q-2.431.1-4.859.265-.783.052-1.566.111a6.533,6.533,0,0,0-.741.058l-.033,0,.262.262L.73,23.626l.5-4.924.6-5.956L2.346,7.6l.171-1.694c.027-.265.07-.534.081-.8,0-.011,0-.023,0-.034.034-.335-.49-.333-.524,0L1.871,7.122l-.5,4.924L.774,18,.255,23.148.084,24.842c-.027.265-.07.534-.081.8,0,.011,0,.023,0,.034a.262.262,0,0,0,.262.262c.626-.052,1.253-.1,1.88-.14q2.277-.157,4.556-.262c1.9-.088,3.807-.148,5.711-.157,1.766-.008,3.539.016,5.3.179a15.383,15.383,0,0,1,1.955.282,6.559,6.559,0,0,1,.761.209c.051.018.1.037.152.056l.048.019c-.037-.016.047.021.059.027a2.184,2.184,0,0,1,.245.131c.034.022.067.045.1.068-.063-.045.019.017.047.042a.264.264,0,0,0,.438-.255c-.219-1.33-.457-2.657-.7-3.982q-.447-2.446-.916-4.888-.488-2.555-.987-5.107-.447-2.286-.9-4.571-.332-1.675-.667-3.35c-.094-.47-.161-.958-.285-1.422a5.3,5.3,0,0,0-.431-1.006A3.6,3.6,0,0,0,15.9.8,2.2,2.2,0,0,0,15.006.3,3.647,3.647,0,0,0,13.926.21C13.24.222,12.549.178,11.863.162L7.835.069,5.011,0,4.865,0a.262.262,0,0,0,0,.524Z" transform="translate(101.63 137.436)"/>
      <path id="Path-53" data-name="Path" d="M8.2,12.633,4.78,10.57A5.5,5.5,0,0,1,3.5,9.508h0A5.085,5.085,0,0,0,.487,7.644L0,6.665S4.121,1.581,4.728,1.692l1.7-.144a1.128,1.128,0,0,1,.233-1.2h0A1.128,1.128,0,0,1,8.4.482l.787,1.125a5.907,5.907,0,0,1,.974,2.348l.179,1.007A4.116,4.116,0,0,0,12.146,7.69l.265.173" transform="translate(61.632 135.388)" fill="#a8542a"/>
      <path id="Path-54" data-name="Path" d="M8.591,12.668,6.327,11.3l-1.09-.658a5.56,5.56,0,0,1-.667-.461c-.381-.314-.688-.695-1.037-1.04A5.1,5.1,0,0,0,.815,7.653l.156.12L.485,6.794l-.041.317q1-1.235,2.05-2.43C3,4.1,3.518,3.525,4.065,2.979c.2-.2.414-.4.637-.587.017-.014.061-.048.019-.016l.06-.045c.04-.029.08-.057.123-.082.019-.011.1-.051.062-.035s0,0,.014,0c.063-.01-.057,0-.022,0h.015c-.127.01-.01,0,.015,0l.024,0c.054,0,.11-.009.164-.014l.588-.05.922-.078a.265.265,0,0,0,.252-.331A.886.886,0,0,1,7.342.614a.874.874,0,0,1,1.035.2,5.055,5.055,0,0,1,.364.509l.447.639a5.969,5.969,0,0,1,.988,2.391,8.5,8.5,0,0,0,.451,1.874,4.37,4.37,0,0,0,.907,1.352,5.857,5.857,0,0,0,1,.773c.283.184.546-.269.264-.452a5.215,5.215,0,0,1-.9-.691,3.812,3.812,0,0,1-.837-1.28,9.579,9.579,0,0,1-.4-1.78A6.533,6.533,0,0,0,9.55,1.565L9.017.8A1.829,1.829,0,0,0,8.373.156,1.39,1.39,0,0,0,6.432,1.878l.252-.331c-.563.048-1.126.092-1.689.144-.031,0,.184-.006-.016,0H4.949a.483.483,0,0,0-.139.027,1.039,1.039,0,0,0-.251.132,5.014,5.014,0,0,0-.614.515A39.875,39.875,0,0,0,.869,5.778q-.4.479-.8.963a.276.276,0,0,0-.041.317l.353.71a2.475,2.475,0,0,0,.133.268c.085.128.219.129.356.158a4.168,4.168,0,0,1,.409.108,4.289,4.289,0,0,1,1.379.762c.434.352.782.779,1.178,1.168a8.038,8.038,0,0,0,1.53,1.105L7.1,12.378l1.231.743a.262.262,0,0,0,.264-.452Z" transform="translate(61.373 135.127)"/>
      <path id="Path-55" data-name="Path" d="M6.756.675A17.807,17.807,0,0,0,1.335.009c-1.858.248-1.73,1.6.1,1.8s2.579-.1,4.629,1.111" transform="translate(57.948 140.97)" fill="#a8542a"/>
      <path id="Path-56" data-name="Path" d="M7.082.695A13.459,13.459,0,0,0,5.412.308C4.822.2,4.225.122,3.627.071Q3.094.026,2.558.013A6.433,6.433,0,0,0,1.463.037,2.011,2.011,0,0,0,.211.614a.827.827,0,0,0-.094.977,1.693,1.693,0,0,0,1.076.67,8.989,8.989,0,0,0,1.656.165A7.7,7.7,0,0,1,4.331,2.6a7.084,7.084,0,0,1,1.854.815.262.262,0,0,0,.264-.452,6.974,6.974,0,0,0-2.9-1.018c-.443-.042-.889-.051-1.333-.083a3.093,3.093,0,0,1-1.388-.3.683.683,0,0,1-.285-.282.308.308,0,0,1-.01-.2c.128-.308.585-.439.9-.5A4.734,4.734,0,0,1,2.423.534q.493.008.985.044Q4.26.64,5.1.783a13.825,13.825,0,0,1,1.84.417c.322.1.46-.4.139-.5Z" transform="translate(57.691 140.698)"/>
      <path id="Path-57" data-name="Path" d="M7.286,1.637A28.982,28.982,0,0,0,1.486.006c-1.872-.106-2,1.252-.243,1.785S4.6,2.946,7.542,4.065" transform="translate(57.493 138.002)" fill="#a8542a"/>
      <path id="Path-58" data-name="Path" d="M7.618,1.642c-.706-.291-1.434-.536-2.162-.763C4.751.66,4.039.464,3.32.3A6.168,6.168,0,0,0,1.1.029,1.232,1.232,0,0,0,.038.737,1.022,1.022,0,0,0,.459,1.808a4.413,4.413,0,0,0,1.52.662c.5.158.987.327,1.477.5,1.434.511,2.854,1.062,4.277,1.6.315.12.452-.386.139-.5C6.646,3.6,5.421,3.131,4.189,2.68c-.473-.173-.948-.342-1.425-.5s-.943-.282-1.4-.453C1.035,1.6.583,1.355.524,1.012c.007.04,0-.052,0-.07,0-.043,0,.038,0,0A.2.2,0,0,1,.539.888.183.183,0,0,1,.567.836.234.234,0,0,1,.619.772,1,1,0,0,1,1.1.557a2.378,2.378,0,0,1,.879.008q.553.094,1.1.218c.688.154,1.369.338,2.043.543.793.242,1.585.505,2.352.821A.264.264,0,0,0,7.8,1.964a.268.268,0,0,0-.183-.322Z" transform="translate(57.231 137.745)"/>
      <path id="Path-59" data-name="Path" d="M7.674,3.613A34.967,34.967,0,0,0,1.624.123C-.175-.406-.609.887.981,1.806S3.986,3.695,6.6,5.453" transform="translate(58.553 134.684)" fill="#a8542a"/>
      <path id="Path-60" data-name="Path" d="M8.065,3.656C7.491,3.24,6.9,2.849,6.3,2.468A29.176,29.176,0,0,0,2.565.4,2.772,2.772,0,0,0,.654.07.856.856,0,0,0,.025,1.1,2.257,2.257,0,0,0,1.218,2.365q.72.42,1.423.868c1.38.876,2.728,1.8,4.084,2.716.28.189.543-.265.264-.452-1.174-.791-2.343-1.589-3.53-2.36-.449-.292-.9-.579-1.36-.857A4.969,4.969,0,0,1,.714,1.317.76.76,0,0,1,.521.86.29.29,0,0,1,.719.6,2.054,2.054,0,0,1,2.3.852,28.686,28.686,0,0,1,5.851,2.8c.661.417,1.317.846,1.95,1.3.273.2.535-.256.264-.452Z" transform="translate(58.294 134.415)"/>
      <path id="Path-61" data-name="Path" d="M7.629,5.354A40.3,40.3,0,0,0,1.691.272C.007-.552-.638.649.775,1.823S3.42,4.19,5.7,6.363" transform="translate(60.556 131.969)" fill="#a8542a"/>
      <path id="Path-62" data-name="Path" d="M8.078,5.428A41.835,41.835,0,0,0,3.46,1.261,7.212,7.212,0,0,0,1.74.154C1.233-.038.446-.143.118.414S.2,1.623.586,2.019c.23.239.5.441.752.657q.34.292.674.591C3.3,4.416,4.532,5.619,5.778,6.807c.244.233.615-.137.37-.37C5.063,5.4,3.984,4.358,2.878,3.346c-.426-.39-.858-.775-1.3-1.149C1.188,1.863.564,1.45.528.887A.291.291,0,0,1,.705.566,1.16,1.16,0,0,1,1.492.62a3.5,3.5,0,0,1,.85.473c.263.179.52.367.774.559A37.236,37.236,0,0,1,6.09,4.214C6.64,4.73,7.184,5.255,7.708,5.8c.234.243.6-.128.37-.37Z" transform="translate(60.291 131.71)"/>
      <path id="Path-63" data-name="Path" d="M6.8,7.862,6.534,7.69A4.116,4.116,0,0,1,4.726,4.962L4.547,3.955a5.907,5.907,0,0,0-.974-2.348L2.786.482A1.128,1.128,0,0,0,1.047.347h0a1.128,1.128,0,0,0-.233,1.2L1.5,3.266A10.723,10.723,0,0,0,0,7.814" transform="translate(67.244 135.388)" fill="#a8542a"/>
      <path id="Path-64" data-name="Path" d="M7.194,7.9A4.731,4.731,0,0,1,6,6.877a3.931,3.931,0,0,1-.763-1.725c-.058-.316-.113-.634-.169-.95a6.325,6.325,0,0,0-.606-1.8,9.574,9.574,0,0,0-.685-1.07C3.59,1.062,3.411.776,3.2.517A1.388,1.388,0,0,0,.761,1.659a5.658,5.658,0,0,0,.38,1.01l.371.927.026-.2A9.874,9.874,0,0,0,.814,4.82,9.749,9.749,0,0,0,0,8.075c-.019.337.5.336.524,0a9.753,9.753,0,0,1,1.34-4.2.814.814,0,0,0,.162-.344,1.2,1.2,0,0,0-.138-.391L1.361,1.82a.973.973,0,0,1-.039-.763.874.874,0,0,1,.75-.533c.551-.031.8.421,1.071.81A11.806,11.806,0,0,1,4.027,2.7a6.951,6.951,0,0,1,.6,1.985,6.033,6.033,0,0,0,.6,1.967,4.932,4.932,0,0,0,1.7,1.7c.283.184.546-.269.264-.452Z" transform="translate(66.982 135.127)"/>
      <path id="Path-65" data-name="Path" d="M.658.251a3.427,3.427,0,0,0,.177,1.3,2.427,2.427,0,0,0,1.76,1.653l-.183-.322C2.148,4.6,1.9,6.326,1.661,8.046q-.456,3.23-.9,6.461Q.551,16.071.338,17.635A23.59,23.59,0,0,0,0,20.622a8.315,8.315,0,0,0,2.324,5.794,12.766,12.766,0,0,0,1.724,1.4l2.246,1.633L9.468,31.76,12.8,34.183,15.574,36.2,17.02,37.25l.066.048c.273.2.534-.256.264-.452l-.99-.72-2.482-1.8-3.24-2.356L7.371,29.592l-2.55-1.854-1.127-.819a7.8,7.8,0,0,1-3.037-4.81,9.353,9.353,0,0,1,.014-3.063q.2-1.485.4-2.969.439-3.223.888-6.444c.259-1.856.521-3.711.8-5.565q.078-.521.157-1.042A.268.268,0,0,0,2.734,2.7,1.914,1.914,0,0,1,1.311,1.325,2.815,2.815,0,0,1,1.181.251c.025-.336-.5-.334-.524,0Z" transform="translate(112.665 167.015)"/>
      <path id="Path-66" data-name="Path" d="M9.869.187,9.605,1.251l-.718,2.9L7.825,8.433l-1.3,5.228L5.111,19.387,3.679,25.166l-1.331,5.37L1.22,35.089.409,38.363c-.128.515-.263,1.029-.383,1.547-.005.022-.011.045-.017.067a.262.262,0,0,0,.5.139l.264-1.065.718-2.9,1.062-4.285,1.3-5.228,1.419-5.726L6.7,15.137l1.331-5.37L9.163,5.213,9.974,1.94c.128-.515.263-1.029.383-1.547.005-.022.011-.045.017-.067a.262.262,0,0,0-.5-.139Z" transform="translate(96.701 167.839)"/>
      <path id="Path-67" data-name="Path" d="M1.034.189.454,3.546.116,5.5a4.369,4.369,0,0,0,0,2.009A7.245,7.245,0,0,0,1.41,9.642c.2.27.65.009.452-.264A10.776,10.776,0,0,1,.793,7.818,2.963,2.963,0,0,1,.547,6.069c.019-.113.039-.227.059-.34l.709-4.105.224-1.3C1.6,0,1.092-.143,1.034.189Z" transform="translate(106.582 162.513)"/>
      <path id="Path-68" data-name="Path" d="M.447,1.626,1.356.593,1.485.447a.262.262,0,0,0-.37-.37L.205,1.109l-.129.146a.262.262,0,0,0,.37.37Z" transform="translate(87.194 152.149)"/>
      <path id="Path-69" data-name="Path" d="M1.593,11.954l9.9,8.613,2.146,1.755c2.923,2.325,5.166,2.2,10.191-1.061l13.7-11.708-3.287-5.2L18.184,14.861,17.418,14,6.865,1.851A5.375,5.375,0,0,0,2.806,0H0" transform="translate(114.85 137.031)" fill="#a8542a"/>
      <path id="Path-70" data-name="Path" d="M1.659,12.4l2.125,1.85,4.232,3.684,3.234,2.815c.782.681,1.6,1.325,2.4,1.979a7.984,7.984,0,0,0,2.494,1.455,5.454,5.454,0,0,0,3.043.054,14.459,14.459,0,0,0,3.82-1.738,10.7,10.7,0,0,0,1.5-1l2.649-2.264,4.228-3.613L35.51,12.1l2.343-2,.11-.094A.263.263,0,0,0,38,9.685L35.12,5.119l-.4-.637a.265.265,0,0,0-.358-.094l-1.6,1.046L28.923,7.945l-4.641,3.038-4.01,2.625-1.313.859a6.78,6.78,0,0,0-.628.411L18.3,14.9l.317.041c-.619-.691-1.228-1.387-1.836-2.087l-3.643-4.2L9.158,4.066C8.539,3.354,7.924,2.638,7.3,1.928A5.7,5.7,0,0,0,3.039,0C2.195,0,1.35,0,.506,0H.252a.262.262,0,0,0,0,.524h2.4A7.089,7.089,0,0,1,3.992.609,5.146,5.146,0,0,1,6.248,1.64a8.143,8.143,0,0,1,1.02,1.048l1.2,1.385,3.835,4.417,3.8,4.373c.6.694,1.2,1.39,1.814,2.074l.333.372a.264.264,0,0,0,.317.041l1.6-1.046L24,11.791l4.641-3.038,4.01-2.625,1.313-.859a6.894,6.894,0,0,0,.628-.411l.028-.018-.358-.094,2.884,4.566.4.637.041-.317-1.637,1.4-3.811,3.257-4.323,3.694L24.6,20.732c-.224.191-.442.393-.673.575a10.46,10.46,0,0,1-1.07.672A21.713,21.713,0,0,1,20.789,23.1a7.289,7.289,0,0,1-3.223.809,5.242,5.242,0,0,1-2.688-.927,21.366,21.366,0,0,1-1.866-1.448c-.378-.309-.764-.61-1.134-.93-.859-.743-1.713-1.491-2.57-2.237l-4.251-3.7L2.178,12.161l-.148-.129c-.253-.22-.625.148-.37.37Z" transform="translate(114.598 136.769)"/>
      <path id="Path-71" data-name="Path" d="M2.443,11.954,10,20.306l2.146,1.755c2.923,2.325,9.11,5.021,14.136,1.761L36.758,14.4l-5.747-7.6L19.057,14.861,18.29,14,7.737,1.851A5.375,5.375,0,0,0,3.679,0L0,.087" transform="translate(113.978 137.032)" fill="#ff9416"/>
      <path id="Path-72" data-name="Path" d="M2.511,12.4l1.7,1.873L7.54,17.954l2.386,2.635a5.03,5.03,0,0,0,.57.508l1.666,1.363A15.776,15.776,0,0,0,17.8,25.343a11.127,11.127,0,0,0,7.75-.411,5.527,5.527,0,0,0,1.388-.855l.949-.854L31.2,20.24l3.679-3.311,2.214-1.992.106-.095a.262.262,0,0,0,.041-.317L35.29,11.949,32.2,7.862l-.711-.941a.267.267,0,0,0-.358-.094l-1.189.8L27.087,9.557l-3.455,2.331L20.646,13.9l-.977.659a4.47,4.47,0,0,0-.471.318l-.021.014.317.041c-.653-.728-1.295-1.464-1.936-2.2l-3.89-4.48L9.652,3.626l-1.2-1.386A6.923,6.923,0,0,0,6.922.857,5.682,5.682,0,0,0,4.454.023,8.859,8.859,0,0,0,3.377.011L.474.08.253.085a.262.262,0,0,0,0,.524l2.4-.057L3.843.523a5.081,5.081,0,0,1,1.827.3A5.459,5.459,0,0,1,7.947,2.459L8.974,3.642l3.854,4.439L16.838,12.7c.644.742,1.284,1.487,1.94,2.219l.347.387a.263.263,0,0,0,.317.041l1.189-.8,2.856-1.927,3.455-2.331,2.986-2.015.977-.659a4.6,4.6,0,0,0,.471-.318l.021-.014-.358-.094,1.947,2.576,3.09,4.088.711.941.041-.317-1.56,1.4-3.443,3.1-3.563,3.207L26.994,23.32c-.2.182-.4.385-.613.551a5.859,5.859,0,0,1-.99.556,8.953,8.953,0,0,1-1.919.666,10.447,10.447,0,0,1-3.831.113,15.324,15.324,0,0,1-6.482-2.646c-.523-.368-1.009-.783-1.5-1.188l-.91-.744c-.1-.084-.215-.163-.31-.255-.2-.191-.374-.413-.559-.617L8.62,18.366,5.3,14.7,3,12.159l-.118-.13c-.227-.25-.6.121-.37.37Z" transform="translate(113.725 136.772)"/>
      <path id="Path-73" data-name="Path" d="M1.482,1.255.573.222.444.076a.263.263,0,0,0-.37,0,.268.268,0,0,0,0,.37L.983,1.479l.129.146a.263.263,0,0,0,.37,0,.268.268,0,0,0,0-.37Z" transform="translate(132.593 151.451)"/>
      <circle id="Oval-4" data-name="Oval" cx="11.533" cy="11.533" r="11.533" transform="translate(41.048 126.992)" fill="#fff"/>
      <path id="Path-74" data-name="Path" d="M0,11.8A11.794,11.794,0,1,0,.145,9.954,12.256,12.256,0,0,0,0,11.8a.262.262,0,0,0,.524,0,11.206,11.206,0,1,1,.13,1.727A11.344,11.344,0,0,1,.524,11.8.262.262,0,0,0,0,11.8Z" transform="translate(40.786 126.73)"/>
      <path id="Path-75" data-name="Path" d="M8.155,10.256A11.5,11.5,0,0,1,0,6.879l1.083-3.5A4.777,4.777,0,0,1,5.65,0H9.977a4.777,4.777,0,0,1,4.46,3.067l1.681,4a11.494,11.494,0,0,1-7.963,3.19Z" transform="translate(44.426 139.802)" fill="#ff9416"/>
      <path id="Path-76" data-name="Path" d="M8.417,10.268a11.238,11.238,0,0,1-7.97-3.3l.067.255L1.586,3.759A4.563,4.563,0,0,1,3.408,1.293,4.686,4.686,0,0,1,6.036.536h4.085a4.679,4.679,0,0,1,2.691.8A4.816,4.816,0,0,1,14.5,3.531L16.082,7.3l.046.108.067-.255a11.217,11.217,0,0,1-7.778,3.114.262.262,0,0,0,0,.524,11.838,11.838,0,0,0,6.637-2.044,12.192,12.192,0,0,0,1.511-1.223.255.255,0,0,0,.067-.255L15.095,3.612c-.084-.2-.164-.4-.251-.6A4.988,4.988,0,0,0,13.78,1.466,5.079,5.079,0,0,0,10.345.013c-1.339-.029-2.681,0-4.02,0A5.96,5.96,0,0,0,3.937.417a5.038,5.038,0,0,0-2.6,2.521A15.619,15.619,0,0,0,.715,4.8L.052,6.946l-.042.137a.261.261,0,0,0,.067.255A11.835,11.835,0,0,0,6.3,10.6a12.183,12.183,0,0,0,2.12.191.262.262,0,0,0,0-.523Z" transform="translate(44.165 139.528)"/>
      <path id="Path-77" data-name="Path" d="M1,0H2.54A1.692,1.692,0,0,1,4.231,1.692h0A3.014,3.014,0,0,1,1.218,4.705H0Z" transform="translate(52.81 130.664)"/>
      <path id="Path-78" data-name="Path" d="M1.262.526h1.35a1.932,1.932,0,0,1,.7.093,1.444,1.444,0,0,1,.8.756,2.36,2.36,0,0,1-.374,2.159A2.755,2.755,0,0,1,1.784,4.693a14.979,14.979,0,0,1-1.523.015l.252.331L1.388.928,1.514.334c.07-.329-.435-.469-.5-.139L.135,4.306.008,4.9a.265.265,0,0,0,.252.331c.48,0,.968.027,1.447-.009A3.289,3.289,0,0,0,4.032,4,3.081,3.081,0,0,0,4.7,1.492,1.977,1.977,0,0,0,2.793,0C2.283,0,1.772,0,1.262,0a.262.262,0,0,0,0,.523Z" transform="translate(52.549 130.4)"/>
      <circle id="Oval-5" data-name="Oval" cx="2.532" cy="2.532" r="2.532" transform="translate(49.925 132.997)" fill="#a8542a"/>
      <path id="Path-79" data-name="Path" d="M0,2.794A2.795,2.795,0,1,0,2.251.054,2.831,2.831,0,0,0,0,2.794a.262.262,0,0,0,.524,0A2.27,2.27,0,1,1,2.365,5.025,2.27,2.27,0,0,1,.524,2.794.262.262,0,0,0,0,2.794Z" transform="translate(49.663 132.736)"/>
      <path id="Path-80" data-name="Path" d="M7.718.943A.929.929,0,0,0,6.8.013C5.362,0,3.86,0,2.7.006h0A2.7,2.7,0,0,0,.231,3.8L.495,4.4l.667,1.467a.96.96,0,0,0,1.806-.172,2.707,2.707,0,0,0,.07-.535c-.833-.321-.449-1.539.128-1.346s.513,1.539.513,1.539.2-.082.287-.931A.875.875,0,0,1,4.8,3.635h.227A2.693,2.693,0,0,0,7.718.943Z" transform="translate(48.105 130.661)" fill="#ffc41f"/>
      <path id="Path-81" data-name="Path" d="M8.242,1.214a1.213,1.213,0,0,0-.414-.9A1.419,1.419,0,0,0,6.853.021Q5.516.006,4.178.011A7.371,7.371,0,0,0,2.121.137,2.956,2.956,0,0,0,.632,1.155,3,3,0,0,0,0,2.855,3.389,3.389,0,0,0,.356,4.407q.406.917.827,1.828a1.225,1.225,0,0,0,1.312.707,1.2,1.2,0,0,0,.747-.425,1.815,1.815,0,0,0,.321-1.088.269.269,0,0,0-.192-.252.491.491,0,0,1-.271-.59.44.44,0,0,1,.07-.163c.043-.065-.021.018.029-.038,0,0,.062-.055.03-.03.062-.047.1-.053.171,0a1.122,1.122,0,0,1,.259.706,3.469,3.469,0,0,1,.022.557.265.265,0,0,0,.394.226c.223-.1.306-.47.348-.674a1.711,1.711,0,0,1,.2-.776.649.649,0,0,1,.524-.229,3.267,3.267,0,0,0,1.426-.292A2.955,2.955,0,0,0,8.242,1.214a.262.262,0,0,0-.524,0,2.456,2.456,0,0,1-1.46,2.231,3.152,3.152,0,0,1-1.192.2,1.149,1.149,0,0,0-1.081.9,4.065,4.065,0,0,1-.151.779s-.028.051-.037.071c-.025.053.01,0,0,.006-.061.035.049-.023.013-.007l.394.226a2.355,2.355,0,0,0-.354-1.547.676.676,0,0,0-.863-.185.979.979,0,0,0-.429.819,1.012,1.012,0,0,0,.673.973l-.192-.252c-.021.443-.133.937-.65,1a.721.721,0,0,1-.759-.473c-.237-.515-.473-1.03-.7-1.548a4.053,4.053,0,0,1-.39-1.137A2.437,2.437,0,0,1,.821,1.813,2.484,2.484,0,0,1,1.887.787a3.466,3.466,0,0,1,1.6-.25Q4.769.53,6.048.538l.665.006a1.812,1.812,0,0,1,.547.038.675.675,0,0,1,.458.634A.262.262,0,0,0,8.242,1.214Z" transform="translate(47.843 130.389)"/>
      <path id="Path-82" data-name="Path" d="M9.4,0A4.711,4.711,0,1,1,0,.663Z" transform="translate(105.16 137.08)" fill="#a8542a"/>
      <path id="Path-83" data-name="Path" d="M9.4.263A4.45,4.45,0,0,1,.524.925l-.262.262L3.438.963,8.5.606,9.66.524C9.994.5,10-.023,9.66,0L6.484.225,1.423.582.262.663A.265.265,0,0,0,0,.925,4.972,4.972,0,0,0,9.921.263C9.9-.072,9.376-.074,9.4.263Z" transform="translate(104.898 136.817)"/>
      <path id="Path-84" data-name="Path" d="M5.375,5.924,4.922,0,0,2.22l.062,3.9" transform="translate(107.111 132.17)" fill="#a8542a"/>
      <path id="Path-85" data-name="Path" d="M5.9,6.183,5.5,1,5.445.259A.266.266,0,0,0,5.051.033L.743,1.976.13,2.253A.256.256,0,0,0,0,2.479L.054,5.9l.008.486a.262.262,0,0,0,.524,0L.531,2.965.524,2.479l-.13.226L4.7.762,5.316.485,4.922.259l.4,5.182.057.742c.026.334.549.337.524,0Z" transform="translate(106.85 131.911)"/>
      <path id="Path-86" data-name="Path" d="M9.726,10.969c2.771-2.4,1.756-4.612,1.823-6.26.039-.957-1.332-2.953-1.332-2.953L2.313,0,.58,2.645s-3.315,11.01,5.913,8.91" transform="translate(102.465 123.246)" fill="#a8542a"/>
      <path id="Path-87" data-name="Path" d="M10.17,11.414a5.756,5.756,0,0,0,1.837-2.69,6.546,6.546,0,0,0,.142-2.391c-.03-.343-.069-.685-.08-1.029a3.669,3.669,0,0,0-.109-1,8.85,8.85,0,0,0-1.037-2.076c-.091-.144-.206-.4-.378-.459a1.584,1.584,0,0,0-.176-.039L9.2,1.465,5.311.6C4.436.407,3.564.2,2.686.018L2.642.008a.272.272,0,0,0-.3.12L1.36,1.633l-.6.921a1.374,1.374,0,0,0-.173.293,10.93,10.93,0,0,0-.39,1.795,12.307,12.307,0,0,0-.12,3.506,4.945,4.945,0,0,0,1.516,3.218,5.443,5.443,0,0,0,4.443.854c.265-.042.528-.094.79-.153.329-.074.189-.579-.139-.5a8.387,8.387,0,0,1-2.732.223,3.819,3.819,0,0,1-1.776-.625,3.294,3.294,0,0,1-.6-.543,2.48,2.48,0,0,1-.229-.3,4.016,4.016,0,0,1-.21-.355,3.937,3.937,0,0,1-.306-.744,6.377,6.377,0,0,1-.2-.846C.6,8.194.593,8.136.575,7.97Q.551,7.747.538,7.523C.521,7.23.517,6.937.524,6.644s.023-.568.048-.851q.018-.206.042-.411.011-.1.024-.193c0-.017.014-.1.005-.042l.015-.11a17.656,17.656,0,0,1,.413-1.995c0-.014.02-.045.017-.059,0,0-.051.086,0,.019.156-.206.287-.438.429-.654L2.717.516,2.8.392l-.3.12,2.67.593,4.256.945.978.217-.156-.12c.231.336.442.688.64,1.044a4.091,4.091,0,0,1,.657,1.718c.01.574.061,1.138.1,1.711A5.624,5.624,0,0,1,11.5,8.585a5.272,5.272,0,0,1-1.7,2.459c-.254.222.117.591.37.37Z" transform="translate(102.206 122.986)"/>
      <path id="Path-88" data-name="Path" d="M.392.767A1.169,1.169,0,0,1,.534.686L.607.651C.642.635.619.646.6.655l.05-.02A1.938,1.938,0,0,1,.869.565Q.93.55.991.539c.005,0,.082-.013.026-.005L1.079.527a1.786,1.786,0,0,1,.306,0A.673.673,0,0,1,1.5.541q.083.016.164.039A1.688,1.688,0,0,1,2.01.724.262.262,0,0,0,2.275.272,2.13,2.13,0,0,0,.773.05,1.87,1.87,0,0,0,.127.315.269.269,0,0,0,.033.673.264.264,0,0,0,.392.767Z" transform="translate(105.871 127.477)"/>
      <path id="Path-89" data-name="Path" d="M.4.681C.448.656.338.7.417.673S.544.628.609.61A2.294,2.294,0,0,1,1.265.531a.87.87,0,0,1,.831.6,1.508,1.508,0,0,1-.187,1.06,3.223,3.223,0,0,1-.411.624.6.6,0,0,0-.185.338.71.71,0,0,0,.016.259c.13.481.7.452,1.09.4A.263.263,0,0,0,2.6,3.49a.269.269,0,0,0-.322-.183.939.939,0,0,1-.43-.011c-.015-.006-.016-.013-.017-.016s0-.01,0-.015c0-.022,0-.061,0-.073l-.067.116c.593-.666,1.25-1.8.671-2.668a1.812,1.812,0,0,0-2.3-.41C-.169.376.1.828.4.681Z" transform="translate(102.515 127.564)"/>
      <circle id="Oval-6" data-name="Oval" cx="0.339" cy="0.339" r="0.339" transform="translate(102.941 129.179)"/>
      <path id="Path-90" data-name="Path" d="M.262.477c0-.011,0-.037,0-.047l0,.017q0-.009,0-.018l0-.018C.272.4.275.394.278.386s0,0,0,.007S.3.353.3.346C.316.321.287.36.3.348L.314.331C.32.325.339.3.346.3S.325.315.341.305L.363.291.378.282.394.274l-.011,0C.4.276.413.269.427.266S.446.259.45.261c-.015-.006-.022,0,0,0a.344.344,0,0,1,.047,0c.018,0,.015.01,0,0L.519.267A.12.12,0,0,1,.561.281L.546.275.562.283.578.292.6.3C.612.311.574.284.594.3L.632.339c.017.018,0-.005,0-.006S.64.35.643.356.666.387.664.395.654.364.661.388C.664.4.667.405.67.414l0,.018c0,.006,0,.012,0,.018q0-.027,0-.012c0,.014,0,.028,0,.042a.083.083,0,0,1,0,.028C.682.5.679.486.675.5S.669.53.664.545l0,.008q-.008.02,0-.007S.653.568.651.57L.64.589c-.006.01-.007.024,0,0A.133.133,0,0,1,.612.62L.6.635C.585.649.622.618.6.634L.552.661c-.014.008,0,.006.007,0A.079.079,0,0,1,.534.667l-.04.01c-.019,0,.033,0,0,0H.449L.43.675l.017,0C.441.682.4.667.394.664S.369.649.385.66.373.654.369.651L.354.642.339.632l.006,0C.334.627.323.617.313.606L.307.6Q.293.583.311.605A.093.093,0,0,1,.3.583L.282.56l0-.008Q.269.533.281.559C.272.551.267.518.265.507a.1.1,0,0,0,0-.018q0,.029,0,.007t0-.019A.131.131,0,0,0,0,.477.478.478,0,0,0,.321.915.469.469,0,1,0,0,.477a.131.131,0,0,0,.262,0Z" transform="translate(102.81 129.049)"/>
      <circle id="Oval-7" data-name="Oval" cx="0.339" cy="0.339" r="0.339" transform="translate(106.129 128.978)"/>
      <path id="Path-91" data-name="Path" d="M.262.477c0-.011,0-.037,0-.047l0,.017q0-.009,0-.018l0-.018C.272.4.275.394.278.386s0,0,0,.007S.3.353.3.346C.316.321.287.36.3.348L.314.331C.32.325.339.3.346.3S.325.315.341.305L.363.291.378.282.395.274l-.011,0C.4.276.413.269.427.266S.446.259.45.261c-.015-.006-.022,0,0,0a.344.344,0,0,1,.047,0c.018,0,.015.01,0,0L.519.267A.12.12,0,0,1,.561.281L.547.275.562.283.578.292.6.3C.612.311.574.284.594.3L.632.339c.017.018,0-.005,0-.006S.64.35.643.356.667.387.664.395.654.364.662.388C.664.4.667.405.67.414l0,.018c0,.006,0,.012,0,.018q0-.027,0-.012c0,.014,0,.028,0,.042a.083.083,0,0,1,0,.028C.682.5.679.486.676.5S.669.53.664.545l0,.008q-.008.02,0-.007S.653.568.651.57L.64.589c-.006.01-.007.024,0,0A.133.133,0,0,1,.613.62L.6.635C.585.649.622.618.6.634L.552.661c-.014.008,0,.006.007,0A.079.079,0,0,1,.534.667l-.04.01c-.019,0,.033,0,0,0H.449L.43.675l.017,0C.441.682.4.667.394.664S.369.649.385.66.373.654.369.651L.354.642.339.632l.006,0C.334.627.323.617.313.606L.307.6Q.293.583.311.605A.093.093,0,0,1,.3.583L.282.56l0-.008Q.269.533.281.559C.272.551.267.518.265.507a.1.1,0,0,0,0-.018q0,.029,0,.007t0-.019A.131.131,0,1,0,0,.477.478.478,0,0,0,.321.915.469.469,0,1,0,0,.477a.131.131,0,0,0,.262,0Z" transform="translate(105.999 128.847)"/>
      <path id="Path-92" data-name="Path" d="M0,.493A.543.543,0,0,0,.967,0Z" transform="translate(105.635 131.572)"/>
      <path id="Path-93" data-name="Path" d="M.018.689A.674.674,0,0,0,1.27.53.7.7,0,0,0,1.211.064.133.133,0,0,0,1.032.017L.184.45.065.51A.131.131,0,0,0,.2.736L1.045.3,1.164.243.985.2,1,.221Q.99.2,1,.226c.006.017.011.033.016.05a.494.494,0,0,1,.011.051c0-.023,0,.011,0,.016s0,.034,0,.051-.005.055,0,.028A.515.515,0,0,1,1,.509S.985.559.995.537Q.984.56.972.582L.951.614.937.635q.011-.015,0,0C.915.658.883.691.871.7A.648.648,0,0,1,.795.747.28.28,0,0,1,.727.773L.676.785q-.024,0,0,0l-.026,0a.556.556,0,0,1-.089,0C.585.788.535.781.53.78L.482.767.446.754C.468.763.424.742.42.74L.377.714.356.7q.015.011,0,0A.693.693,0,0,1,.289.631C.3.646.273.608.271.6S.252.573.244.557A.131.131,0,1,0,.018.689Z" transform="translate(105.504 131.442)"/>
      <path id="Path-94" data-name="Path" d="M1.5.03a.823.823,0,0,0-.449,0A1.243,1.243,0,0,0,.306.693a3.268,3.268,0,0,0-.3.916.262.262,0,1,0,.5.139,4.089,4.089,0,0,1,.1-.432c.018-.059.037-.117.059-.175.009-.025.02-.05.029-.075s-.027.059,0,.007l.02-.045A1.667,1.667,0,0,1,.86.787L.875.766C.891.743.914.736.864.779A.336.336,0,0,0,.895.742,1.051,1.051,0,0,1,.971.661L1.01.626,1.025.614C1.056.586.973.65,1,.634S1.048.6,1.074.584s.047-.024.07-.036-.077.028-.023.01L1.159.545l.06-.015L1.251.523c.031-.007-.086.008-.033,0a.75.75,0,0,1,.1,0l.026,0C1.386.531,1.28.517,1.3.522l.033.006.028.007A.264.264,0,0,0,1.679.352.268.268,0,0,0,1.5.03Z" transform="translate(110.449 127.827)"/>
      <path id="Path-95" data-name="Path" d="M16.868,8.565l-2.042,5.151a1.868,1.868,0,0,1-1.773,1.18H13l-.451-3.173A4.332,4.332,0,0,0,13.5,9.158c-.074-1.178-.725-1.416-1.548-1.364a1.278,1.278,0,0,0-.852.58,5.109,5.109,0,0,0-.389,2.7l-.858-2.8h0A2.548,2.548,0,0,0,7.532,6.648l-3.706-.08S-1.446,6.021.387,0h8.9a6.741,6.741,0,0,1,5.729,3.189l.728,1.174h0a1.847,1.847,0,0,1,1.741,2.466Z" transform="translate(99.193 119.318)" fill="#ffc41f"/>
      <path id="Path-96" data-name="Path" d="M16.873,8.769l-.927,2.339c-.364.918-.724,1.837-1.091,2.753a1.7,1.7,0,0,1-.476.673,1.6,1.6,0,0,1-.646.327,1.573,1.573,0,0,1-.368.047.389.389,0,0,0-.292.077l.438.116-.393-2.768-.057-.4-.067.255a2.535,2.535,0,0,0,.519-.773,5.689,5.689,0,0,0,.4-1.112,2.275,2.275,0,0,0-.322-2.066,1.674,1.674,0,0,0-1.8-.313,2.264,2.264,0,0,0-1.074,1.891,6.787,6.787,0,0,0-.014,1.538l.514-.07L10.75,9.739A8.792,8.792,0,0,0,10.2,8.127,2.848,2.848,0,0,0,7.761,6.659c-.559-.014-1.118-.024-1.677-.036L4.193,6.582c-.036,0-.072,0-.108,0-.054,0,0,0,.024,0-.092-.017-.185-.03-.277-.05a4.417,4.417,0,0,1-2.28-1.185A3.5,3.5,0,0,1,.659,3.762,5.626,5.626,0,0,1,.679,1.183C.739.9.814.62.9.343L.645.535H9.406a6.883,6.883,0,0,1,2.267.359,6.531,6.531,0,0,1,2.938,2.079c.445.553.757,1.194,1.154,1.779.137.2.4.138.614.191a1.559,1.559,0,0,1,.671.35,1.609,1.609,0,0,1,.53,1.371,3.883,3.883,0,0,1-.252.825l-.377,1.059-.079.222c-.113.318.393.455.5.139l.558-1.57a2.413,2.413,0,0,0,.172-.987,2.148,2.148,0,0,0-.588-1.332A2.115,2.115,0,0,0,16,4.374l.226.13c-.241-.388-.48-.777-.722-1.165A7.014,7.014,0,0,0,9.391.011H2.931c-.749,0-1.5-.025-2.25,0H.645A.268.268,0,0,0,.392.2C-.1,1.823-.28,3.746.753,5.2A4.727,4.727,0,0,0,3.324,6.946a3.947,3.947,0,0,0,.739.155c.339.03.687.017,1.027.024l2.2.047c.165,0,.33.006.495.011a2.311,2.311,0,0,1,1.369.492,2.175,2.175,0,0,1,.714.977c.074.225.139.454.208.681l.6,1.951.041.134c.082.269.547.236.514-.07a5.261,5.261,0,0,1,.153-2.159,1.464,1.464,0,0,1,.39-.616.864.864,0,0,1,.681-.249.925.925,0,0,1,.906.495,2.173,2.173,0,0,1,.011,1.487,4.028,4.028,0,0,1-.622,1.369c-.111.144-.221.217-.192.419.011.08.023.16.034.24l.142,1L13,15.239c.03.208.309.233.438.116h0l-.185.077a2.17,2.17,0,0,0,2.079-1.373c.108-.267.212-.535.318-.8L17.012,9.83l.366-.922a.264.264,0,0,0-.183-.322.268.268,0,0,0-.322.183Z" transform="translate(98.935 119.045)"/>
      <path id="Path-97" data-name="Path" d="M4.129,13.511l3.5-2.94A5.5,5.5,0,0,0,8.908,9.508h0a5.085,5.085,0,0,1,3.017-1.863l.487-.979S8.291,1.581,7.683,1.692l-1.7-.144a1.128,1.128,0,0,0-.233-1.2h0A1.128,1.128,0,0,0,4.014.482L3.227,1.607a5.907,5.907,0,0,0-.974,2.348L2.073,4.962A4.116,4.116,0,0,1,.265,7.69L0,7.862" transform="translate(145.013 135.824)" fill="#a8542a"/>
      <path id="Path-98" data-name="Path" d="M4.567,13.952,7.2,11.74a12.457,12.457,0,0,1,1.031-.825A8.838,8.838,0,0,0,9.64,9.631a5.541,5.541,0,0,1,1.38-1.072,3.9,3.9,0,0,1,.888-.336c.167-.041.391-.034.495-.189a.929.929,0,0,0,.051-.1l.436-.877a.275.275,0,0,0-.041-.317q-1.03-1.271-2.112-2.5c-.512-.583-1.031-1.162-1.584-1.707a7.28,7.28,0,0,0-.644-.577,1.007,1.007,0,0,0-.535-.267c-.023,0-.042,0-.065,0-.1,0,.061.022.012-.005a.488.488,0,0,0-.149-.013L7.2,1.623l-.958-.082.252.331A1.4,1.4,0,0,0,4.875.032C4.2.182,3.86.864,3.5,1.386A7.166,7.166,0,0,0,2.346,3.713c-.156.606-.195,1.24-.366,1.842a3.829,3.829,0,0,1-.81,1.486,4.975,4.975,0,0,1-1.049.852c-.281.183-.019.637.264.452a4.882,4.882,0,0,0,1.756-1.8,6.705,6.705,0,0,0,.574-2.022,6.234,6.234,0,0,1,.974-2.5c.261-.378.519-.76.79-1.131a.868.868,0,0,1,1.507.844.265.265,0,0,0,.252.331l.776.066c.3.025.6.074.9.077l.02,0c.209.006-.02-.006.026,0s-.079-.01-.027,0a.148.148,0,0,1,.044.014c-.089-.048.018.012.041.026.04.023.078.05.116.076l.06.044.018.015c.052.043.1.086.155.13.106.093.209.189.31.286A42.308,42.308,0,0,1,11.7,6.167q.391.468.777.94l-.041-.317-.487.979.156-.12A5.057,5.057,0,0,0,9.451,9.079c-.389.377-.723.8-1.148,1.14-.217.174-.464.3-.676.482L5.089,12.834l-.891.748c-.258.217.114.586.37.37Z" transform="translate(144.76 135.568)"/>
      <path id="Path-99" data-name="Path" d="M0,.675A17.808,17.808,0,0,1,5.421.009c1.858.248,1.73,1.6-.1,1.8S2.746,1.707.7,2.92" transform="translate(154.353 141.406)" fill="#a8542a"/>
      <path id="Path-100" data-name="Path" d="M.321,1.205A12.926,12.926,0,0,1,1.782.857,17.537,17.537,0,0,1,5.323.539a1.889,1.889,0,0,1,1.3.382.392.392,0,0,1,.1.145.2.2,0,0,1,.014.047c.008.034.007-.005.006.055a.265.265,0,0,1-.019.1.436.436,0,0,1-.1.146,1.862,1.862,0,0,1-1.161.417c-.472.046-.945.062-1.418.092a6.642,6.642,0,0,0-1.45.229,8,8,0,0,0-1.783.815.262.262,0,0,0,.264.452,7.422,7.422,0,0,1,1.658-.762,6.04,6.04,0,0,1,1.332-.212C4.581,2.417,5.095,2.4,5.6,2.344a2.315,2.315,0,0,0,1.37-.534A.854.854,0,0,0,7.194.839,1.48,1.48,0,0,0,6.218.132,6.142,6.142,0,0,0,4.177.039,19.1,19.1,0,0,0,2.251.246,14.257,14.257,0,0,0,.182.7c-.32.1-.183.607.139.5Z" transform="translate(154.101 141.129)"/>
      <path id="Path-101" data-name="Path" d="M.255,1.637A28.981,28.981,0,0,1,6.056.006c1.872-.106,2,1.252.243,1.785S2.943,2.946,0,4.065" transform="translate(154.022 138.438)" fill="#a8542a"/>
      <path id="Path-102" data-name="Path" d="M.571,2.15c.622-.256,1.261-.475,1.9-.68S3.763,1.077,4.418.915Q4.954.782,5.5.674A5,5,0,0,1,6.583.523a1.677,1.677,0,0,1,.654.125A.756.756,0,0,1,7.42.765a.418.418,0,0,1,.049.051c.009.013.051.1.038.063a.321.321,0,0,1-.048.308,1.179,1.179,0,0,1-.43.379,7.333,7.333,0,0,1-1.4.5c-.466.153-.93.314-1.392.48-1.361.49-2.71,1.012-4.061,1.526-.312.119-.177.625.139.5,1.3-.495,2.6-1,3.908-1.471.493-.178.987-.352,1.485-.516a8.995,8.995,0,0,0,1.545-.551,1.354,1.354,0,0,0,.8-1.033A.964.964,0,0,0,7.321.12a3.706,3.706,0,0,0-2,.055C4.563.328,3.81.521,3.065.74a26.778,26.778,0,0,0-2.633.906.271.271,0,0,0-.183.322.263.263,0,0,0,.322.183Z" transform="translate(153.776 138.178)"/>
      <path id="Path-103" data-name="Path" d="M0,3.613A34.967,34.967,0,0,1,6.05.123c1.8-.529,2.233.764.643,1.683S3.688,3.695,1.077,5.453" transform="translate(152.83 135.12)" fill="#a8542a"/>
      <path id="Path-104" data-name="Path" d="M.378,4.11A33.21,33.21,0,0,1,5.422,1.066a3.368,3.368,0,0,1,1.8-.525A.919.919,0,0,1,7.447.6c.025.011.1.056.1.054A.335.335,0,0,1,7.61.72c.03.04.02.026.03.055a.43.43,0,0,1,.017.064c.008.044,0-.035,0,.011a.438.438,0,0,1-.046.237c-.209.49-.775.744-1.205,1q-.677.4-1.339.829C3.76,3.753,2.478,4.631,1.191,5.5c-.278.187-.016.641.264.452,1.231-.829,2.457-1.668,3.7-2.473.475-.306.954-.607,1.439-.9A3.644,3.644,0,0,0,8.013,1.444.893.893,0,0,0,7.839.224,1.909,1.909,0,0,0,6.128.182,26.024,26.024,0,0,0,2.3,2.207C1.556,2.668.822,3.146.114,3.658c-.27.2-.009.65.264.452Z" transform="translate(152.584 134.849)"/>
      <path id="Path-105" data-name="Path" d="M0,5.354A40.3,40.3,0,0,1,5.937.272c1.684-.823,2.329.378.916,1.551S4.209,4.19,1.93,6.363" transform="translate(150.872 132.405)" fill="#a8542a"/>
      <path id="Path-106" data-name="Path" d="M.445,5.8a43.463,43.463,0,0,1,4.2-3.843A17.669,17.669,0,0,1,6.216.827,1.917,1.917,0,0,1,7.138.521a.728.728,0,0,1,.31.044.327.327,0,0,1,.136.112.559.559,0,0,1-.046.5,2.462,2.462,0,0,1-.674.769q-.639.533-1.256,1.092C4.382,4.147,3.2,5.3,2.005,6.436c-.244.233.126.6.37.37,1.14-1.087,2.271-2.184,3.437-3.244q.667-.606,1.356-1.187c.466-.391,1.042-.942.976-1.614A.941.941,0,0,0,6.986.01a4.169,4.169,0,0,0-1.893.95A35.221,35.221,0,0,0,1.856,3.689C1.25,4.255.651,4.831.075,5.427c-.234.242.136.613.37.37Z" transform="translate(150.612 132.147)"/>
      <path id="Path-107" data-name="Path" d="M0,7.862.265,7.69A4.116,4.116,0,0,0,2.073,4.962l.179-1.007a5.907,5.907,0,0,1,.974-2.348L4.014.482A1.128,1.128,0,0,1,5.752.347h0a1.128,1.128,0,0,1,.233,1.2L5.3,3.266A10.723,10.723,0,0,1,6.8,7.814" transform="translate(145.013 135.824)" fill="#a8542a"/>
      <path id="Path-108" data-name="Path" d="M.385,8.35a5.125,5.125,0,0,0,1.531-1.42,4.771,4.771,0,0,0,.7-1.866,10.529,10.529,0,0,1,.4-1.743,7.174,7.174,0,0,1,.931-1.666l.441-.631A1.153,1.153,0,0,1,4.794.619.874.874,0,0,1,6.006,1.685c-.128.377-.3.745-.445,1.115l-.23.576a.352.352,0,0,0,.024.333A10.127,10.127,0,0,1,6.79,8.075c.019.335.543.337.524,0A9.748,9.748,0,0,0,6.5,4.82,9.871,9.871,0,0,0,5.777,3.4l.026.2c.227-.567.46-1.132.681-1.7A1.389,1.389,0,0,0,4.428.227a2.985,2.985,0,0,0-.709.843c-.2.29-.414.576-.6.874a6.131,6.131,0,0,0-.825,2.017c-.075.355-.131.715-.194,1.073A4.174,4.174,0,0,1,1.433,6.71,4.5,4.5,0,0,1,.121,7.9c-.281.183-.019.637.264.452Z" transform="translate(144.76 135.563)"/>
      <path id="Path-109" data-name="Path" d="M3.616.183.739,0,0,6.53l.54-.12A3.362,3.362,0,0,0,3.264,3.579Z" transform="translate(102.945 146.141)" fill="#fff"/>
      <path id="Path-110" data-name="Path" d="M3.879.183,1,0A.268.268,0,0,0,.74.262L.49,2.474.093,5.98,0,6.792c-.02.179.183.286.331.252a5.515,5.515,0,0,0,1.826-.65,3.559,3.559,0,0,0,1.5-1.909,6.063,6.063,0,0,0,.186-1.2L4.02,1.605l.12-1.16A.264.264,0,0,0,3.879.183a.267.267,0,0,0-.262.262L3.354,2.982c-.031.3-.054.607-.094.908A2.908,2.908,0,0,1,2.133,5.777a4.688,4.688,0,0,1-1.939.762l.331.252L.775,4.58l.4-3.506L1.264.262,1,.523,3.879.707C4.215.728,4.214.2,3.879.183Z" transform="translate(102.682 145.88)"/>
    </g>
  </g>
</svg>
