<svg xmlns="http://www.w3.org/2000/svg" width="144.249" height="122.555" viewBox="0 0 144.249 122.555">
  <g id="Group_16425" data-name="Group 16425" transform="translate(-477.751 -347.445)">
    <circle id="Ellipse_488" data-name="Ellipse 488" cx="55.5" cy="55.5" r="55.5" transform="translate(511 359)" fill="#125be4" opacity="0.304"/>
    <g id="Group" transform="translate(455.307 231.684)">
      <path id="Path" d="M6.124,0s4.757-.087,5.47,5.307c.581,4.392-4.605,7.3-8.751,5.741A19.932,19.932,0,0,1,0,9.714V7.534L7.389.75" transform="translate(118.397 133.356)" fill="#ff2323"/>
      <path id="Path-2" data-name="Path" d="M6.373.49a3.857,3.857,0,0,1,.55.04C6.85.521,6.975.538,7,.541l.152.026q.158.029.314.066a6,6,0,0,1,.728.222A5.158,5.158,0,0,1,11.077,3.62a6.459,6.459,0,0,1,.561,2.847,4.655,4.655,0,0,1-.851,2.427A6.433,6.433,0,0,1,6.2,11.438a6.713,6.713,0,0,1-2.812-.3,16.838,16.838,0,0,1-2.862-1.3l-.15-.086.121.212V7.779l-.072.173,2.5-2.292L6.9,2.007l.914-.839C8.044.955,7.7.609,7.465.822L6.072,2.1l-2.9,2.663L.631,7.1c-.178.163-.367.319-.536.492A.4.4,0,0,0,0,7.907V9.7c0,.179-.035.371.139.483.212.136.445.248.668.363q.721.371,1.469.686a8.293,8.293,0,0,0,2.837.726,7.435,7.435,0,0,0,2.6-.337,6.476,6.476,0,0,0,3.85-3.069,6.017,6.017,0,0,0-.049-5.137A5.554,5.554,0,0,0,8.767.568,6.047,6.047,0,0,0,6.494,0c-.04,0-.081,0-.121,0a.245.245,0,0,0,0,.49Z" transform="translate(118.148 133.11)"/>
      <path id="Path-3" data-name="Path" d="M28.266,5.388,22.224,26.535c-1.1,2.9-5.715,4.246-9.566,1.542h0a14.012,14.012,0,0,1-3.32-2.494L0,16.153c.7-.617,4.327-2.855,5.079-3.734a19.218,19.218,0,0,0,2.6-3.773l7.848,6.784L20.464,4.1A6.817,6.817,0,0,1,27.538.05l3.1.378" transform="translate(85.804 140.541)" fill="#ff9416"/>
      <path id="Path-4" data-name="Path" d="M28.274,5.562l-.557,1.949-1.353,4.734L24.7,18.077l-1.511,5.287L22.3,26.457a4.642,4.642,0,0,1-3.8,2.979,7.114,7.114,0,0,1-4.36-.667,10.534,10.534,0,0,1-1.067-.629c-.363-.236-.752-.433-1.114-.673a13.7,13.7,0,0,1-2.093-1.7c-.736-.73-1.459-1.472-2.188-2.208L3.5,19.336.566,16.368l-.149-.15v.346a12.752,12.752,0,0,1,1.127-.815c.586-.4,1.176-.8,1.76-1.2.551-.382,1.1-.77,1.621-1.192A9.315,9.315,0,0,0,6.4,11.717,16.329,16.329,0,0,0,8.136,9.008l-.385.05,2.649,2.29L14.626,15l.973.841a.248.248,0,0,0,.385-.05L17.1,13.225,19.291,8.2l1.546-3.551a7.234,7.234,0,0,1,1.157-1.9A6.63,6.63,0,0,1,25.353.682,7.753,7.753,0,0,1,28.239.59l2.456.3.19.023A.247.247,0,0,0,31.13.667a.251.251,0,0,0-.245-.245L28.79.167A11.148,11.148,0,0,0,26.223.033a7.127,7.127,0,0,0-5.74,4.208q-.658,1.507-1.313,3.015l-2.223,5.1-.9,2.072c-.153.351-.338.7-.463,1.063-.006.016-.014.032-.021.048l.385-.05L13.3,13.2,9.071,9.552,8.1,8.711a.248.248,0,0,0-.385.05A15.594,15.594,0,0,1,6.223,11.14,9.957,9.957,0,0,1,4.707,12.9c-1.025.86-2.173,1.579-3.276,2.332a14.136,14.136,0,0,0-1.36.983.248.248,0,0,0,0,.346L2.255,18.77,6.47,23.027l2.837,2.865a15.04,15.04,0,0,0,2.683,2.176c.366.23.741.44,1.1.672a8.32,8.32,0,0,0,1.128.6,8.046,8.046,0,0,0,2.262.626,6.754,6.754,0,0,0,4.047-.727,4.564,4.564,0,0,0,2.174-2.412c.235-.711.413-1.446.619-2.165l1.4-4.9,1.691-5.918L27.9,8.642l.805-2.818.038-.132a.245.245,0,0,0-.472-.13Z" transform="translate(85.56 140.302)"/>
      <path id="Path-5" data-name="Path" d="M.149,3.243c.4.339,1.519-.271,2.867-1.463L1.257,0C.211,1.6-.265,2.89.149,3.243Z" transform="translate(85.654 153.471)"/>
      <path id="Path-6" data-name="Path" d="M.225,3.659c.387.312.909.112,1.3-.083A9.048,9.048,0,0,0,3.438,2.2a.248.248,0,0,0,0-.346L1.68.07A.248.248,0,0,0,1.3.119,9.876,9.876,0,0,0,.149,2.325c-.132.4-.287,1.007.076,1.334.234.21.581-.135.346-.346a.278.278,0,0,1-.039-.039c.019.026.015.02,0,0s-.026-.052-.005,0a.312.312,0,0,1-.016-.049A.56.56,0,0,1,.5,3.009a2.457,2.457,0,0,1,.166-.668A9.957,9.957,0,0,1,1.718.367l-.385.05L3.092,2.2V1.85A9.279,9.279,0,0,1,1.424,3.079a2.267,2.267,0,0,1-.584.238.512.512,0,0,1-.207.015c.05,0-.027-.008-.046-.014.042.013-.054-.037-.016-.005a.253.253,0,0,0-.346,0A.247.247,0,0,0,.225,3.659Z" transform="translate(85.405 153.227)"/>
      <path id="Path-7" data-name="Path" d="M5.923,7.09a19.219,19.219,0,0,0,2.6-3.777L7.061,2.06,4.661,0,0,5.6l1.956,1.98,1.758,1.78A23.012,23.012,0,0,0,5.923,7.09Z" transform="translate(84.956 145.888)" fill="#fc7f3a"/>
      <path id="Path-8" data-name="Path" d="M6.338,7.507A18.738,18.738,0,0,0,8.973,3.68a.251.251,0,0,0-.038-.3L5.758.655,5.077.07a.248.248,0,0,0-.346,0L3.16,1.958.644,4.983l-.575.691a.251.251,0,0,0,0,.346L3,8.982l.788.8a.25.25,0,0,0,.346,0A23.138,23.138,0,0,0,6.338,7.507c.2-.238-.141-.586-.346-.346A23.137,23.137,0,0,1,3.783,9.433H4.13L1.149,6.416.416,5.674V6.02l1.57-1.888L4.5,1.108,5.077.417H4.731L7.692,2.96l.9.77-.038-.3A18.223,18.223,0,0,1,5.992,7.16C5.789,7.4,6.134,7.747,6.338,7.507Z" transform="translate(84.713 145.644)"/>
      <path id="Path-9" data-name="Path" d="M10.579,8.19,9.133,6.953l-.7-3.823A3.29,3.29,0,0,0,6.2.518L1.114,0S-.991.344.586,2.389c0,0-1.141.809.145,2.233a1.819,1.819,0,0,0,.413,2.37c-.409.8.026,1.565,1.162,1.773l.983.344.432,1.942a3.494,3.494,0,0,0,.946,1.718l1.127,1.122" transform="translate(80.489 138.944)" fill="#fc7f3a"/>
      <path id="Path-10" data-name="Path" d="M11,8.255,9.685,7.134a.956.956,0,0,0-.1-.086c-.088-.056.049.032.029.077.011-.026-.02-.11-.025-.137l-.137-.745-.4-2.176a7.187,7.187,0,0,0-.4-1.63,3.467,3.467,0,0,0-.991-1.292A3.539,3.539,0,0,0,6.967.7,1.779,1.779,0,0,0,6.436.51C6.006.461,5.575.423,5.145.379L2.912.152C2.416.1,1.918.034,1.42,0A1.483,1.483,0,0,0,.606.272,1.294,1.294,0,0,0,.062.923,1.515,1.515,0,0,0,.177,2.035a3.624,3.624,0,0,0,.441.715l.088-.335A1.459,1.459,0,0,0,.18,3.16,2.014,2.014,0,0,0,.8,5.034l-.038-.3A1.982,1.982,0,0,0,.525,6.322a1.5,1.5,0,0,0,.8,1.145l-.146-.36a1.414,1.414,0,0,0-.1,1.143,1.51,1.51,0,0,0,.821.807c.282.125.587.181.878.283l.7.244L3.3,9.412l.412,1.852a3.863,3.863,0,0,0,.636,1.455,7.2,7.2,0,0,0,.764.832l.755.752a.245.245,0,0,0,.346-.346L5.185,12.935a3.56,3.56,0,0,1-1-1.8l-.36-1.62c-.043-.194-.056-.342-.269-.42-.264-.1-.531-.186-.8-.278a2.534,2.534,0,0,1-1.011-.43A.842.842,0,0,1,1.6,7.354a.25.25,0,0,0-.146-.36c-.279-.107-.412-.578-.465-.848a1.471,1.471,0,0,1,.2-1.162.247.247,0,0,0-.038-.3A1.506,1.506,0,0,1,.662,3.261a1,1,0,0,1,.19-.319c.031-.034.065-.065.1-.1s.05-.039,0-.005A.248.248,0,0,0,1.042,2.5,2.158,2.158,0,0,1,.489,1.32.677.677,0,0,1,.781.744S.845.7.882.677.983.621,1.036.6c.016-.008.071-.031.025-.012L1.132.556q.059-.021.119-.039C1.3.5,1.356.5,1.405.478S1.317.467,1.389.487a3.016,3.016,0,0,0,.466.047l.856.087L4.859.84l1.5.152a1.881,1.881,0,0,1,.73.339A3.052,3.052,0,0,1,8.111,2.45a5.327,5.327,0,0,1,.44,1.6l.382,2.076.154.839a.8.8,0,0,0,.119.4,5.93,5.93,0,0,0,.539.461l.761.651.143.123c.238.2.586-.141.346-.346Z" transform="translate(80.245 138.705)"/>
      <path id="Path-11" data-name="Path" d="M5.867.735,3.5,7.593,3.1,12.88a1.554,1.554,0,0,1-1.827,1.413h0A1.554,1.554,0,0,1,0,12.655L.887,0" transform="translate(83.055 135.968)"/>
      <path id="Path-12" data-name="Path" d="M5.876.905,5.148,3.014,3.912,6.592,3.549,7.643a1.781,1.781,0,0,0-.071.468l-.261,3.477-.1,1.371a1.369,1.369,0,0,1-.873,1.272A1.323,1.323,0,0,1,.49,12.943c0-.144.019-.289.029-.433L.7,9.93.968,6.081,1.225,2.4,1.369.334l.007-.1C1.4-.079.908-.078.886.235L.781,1.742.536,5.253.256,9.269.049,12.235c-.014.207-.03.415-.043.622a1.8,1.8,0,0,0,3.336,1.067,2.707,2.707,0,0,0,.285-1.26L3.9,9c.028-.377.071-.756.085-1.133,0-.071,0,.02,0,.027.013-.011.02-.058.025-.074l.13-.375L5.279,4.132,6.291,1.2l.057-.164c.1-.3-.37-.427-.472-.13Z" transform="translate(82.811 135.733)"/>
      <path id="Path-13" data-name="Path" d="M.821,0,3.229,1.2c.288.1.812,1.3.854,1.608a.734.734,0,0,1-.46.809c.58.528.916,1.414.205,1.538.434.743.609,1.4-.112,1.468.881.862.114,1.365-.332,1.255L0,6.824" transform="translate(82.322 140.76)" fill="#fc7f3a"/>
      <path id="Path-14" data-name="Path" d="M.933.451l1.794.9c.207.1.421.2.623.311a.267.267,0,0,1,.107.1,2.092,2.092,0,0,1,.2.308,5.126,5.126,0,0,1,.324.7,2.876,2.876,0,0,1,.1.3c.006.022.008.045.013.067-.02-.1,0-.012,0,.018a.512.512,0,0,1-.347.508.246.246,0,0,0-.05.385c.2.191.893,1.01.313,1.129a.247.247,0,0,0-.146.36,2.264,2.264,0,0,1,.34.811c.022.186-.053.268-.241.288a.248.248,0,0,0-.173.418c.147.148.424.432.311.669a.4.4,0,0,1-.328.182,1.959,1.959,0,0,1-.5-.138l-2.3-.721L.3,6.828C0,6.733-.13,7.206.171,7.3l1.957.613L3.3,8.28a1.1,1.1,0,0,0,.763.046.8.8,0,0,0,.523-.579A1.238,1.238,0,0,0,4.125,6.7l-.173.418a.718.718,0,0,0,.733-.651,2.253,2.253,0,0,0-.409-1.186l-.146.36A.7.7,0,0,0,4.7,4.8a2.035,2.035,0,0,0-.663-1.106l-.05.385a.986.986,0,0,0,.566-1.125,3.388,3.388,0,0,0-.242-.662,4.224,4.224,0,0,0-.387-.721,1.491,1.491,0,0,0-.654-.493L2.073.475,1.181.028C.9-.112.651.31.933.451Z" transform="translate(82.087 140.52)"/>
      <path id="Path-15" data-name="Path" d="M10.287,0,6.124,10.105c-1.8,3.593-1.89,3.361-3.982,5.614L0,18.025l10.124,2.286L16.248,2.186" transform="translate(96.761 155.909)" fill="#ff9416"/>
      <path id="Path-16" data-name="Path" d="M10.294.179,9.258,2.692,7.3,7.448l-.782,1.9c-.126.306-.24.621-.379.921-.216.465-.467.922-.708,1.377s-.476.88-.744,1.3a11.5,11.5,0,0,1-1.419,1.732c-1.037,1.089-2.057,2.193-3.08,3.3L.07,18.1a.247.247,0,0,0,.108.409l3.439.777,5.435,1.227,1.25.282a.251.251,0,0,0,.3-.171l.613-1.813,1.459-4.317,1.769-5.237,1.53-4.527.5-1.488c.08-.236.173-.472.24-.712,0-.01.007-.021.01-.031.1-.3-.372-.428-.472-.13l-.613,1.813L14.183,8.5l-1.769,5.237-1.53,4.527-.5,1.488a7.194,7.194,0,0,0-.24.712.311.311,0,0,1-.01.031l.3-.171-3.439-.777L1.558,18.315l-1.25-.282.108.409c.9-.974,1.8-1.956,2.719-2.92A19.393,19.393,0,0,0,4.77,13.685a19.182,19.182,0,0,0,1.562-2.724c.46-.907.814-1.868,1.2-2.808L9.494,3.4l.823-2c.143-.346.3-.689.429-1.042.006-.017.014-.033.02-.049a.247.247,0,0,0-.171-.3.251.251,0,0,0-.3.171Z" transform="translate(96.518 155.666)"/>
      <path id="Path-17" data-name="Path" d="M3.628,1.776,1.166.127A.749.749,0,0,0,.111.357h0a.749.749,0,0,0,.1.916L2.255,3.358a3.83,3.83,0,0,0,.279,4.408" transform="translate(84.215 141.613)" fill="#fc7f3a"/>
      <path id="Path-18" data-name="Path" d="M4,1.808C3.18,1.262,2.374.7,1.548.169a.994.994,0,0,0-1.4,1.346,2.568,2.568,0,0,0,.365.407l.651.665L2.326,3.775l-.038-.3a3.783,3.783,0,0,0-.544,1.457,4.122,4.122,0,0,0,.823,3.2c.188.248.613,0,.423-.247A3.655,3.655,0,0,1,2.232,4.98a3.376,3.376,0,0,1,.479-1.255.248.248,0,0,0-.038-.3L.69,1.4A.532.532,0,0,1,.566.724.515.515,0,0,1,1.31.6c.4.265.8.539,1.207.809l1.231.825c.263.176.508-.248.247-.423Z" transform="translate(83.971 141.369)"/>
      <path id="Path-19" data-name="Path" d="M8,2.656l0,1.4A4.059,4.059,0,0,1,5.022,7.981L0,9.37.767,0" transform="translate(118.709 164.53)"/>
      <path id="Path-20" data-name="Path" d="M8,2.891a10.949,10.949,0,0,1-.066,2.144A3.86,3.86,0,0,1,5.806,7.757a9.607,9.607,0,0,1-1.572.49l-2.424.67L.18,9.369.49,9.6.749,6.434l.413-5.048L1.257.235c.026-.314-.464-.313-.49,0L.507,3.406.094,8.454,0,9.6a.247.247,0,0,0,.31.236L4.232,8.756A13.766,13.766,0,0,0,5.8,8.289a4.347,4.347,0,0,0,2.48-2.676,8.747,8.747,0,0,0,.2-2.722.245.245,0,0,0-.49,0Z" transform="translate(118.464 164.295)"/>
      <path id="Path-21" data-name="Path" d="M20.3.984l-3.821,12L0,7.788S1.191,3.03,7.482,4.46a2.314,2.314,0,0,0,2.733-1.578C10.66,1.419,11.084,0,11.084,0" transform="translate(80.78 213.982)" fill="#fc7272"/>
      <path id="Path-22" data-name="Path" d="M20.31,1.156l-1.3,4.08-2.054,6.448-.468,1.468.3-.171-1.642-.517-3.942-1.242-4.749-1.5-4.121-1.3L.986,8a6.118,6.118,0,0,0-.648-.2L.309,7.789l.171.3a2.5,2.5,0,0,1,.079-.244q.022-.06.046-.12l.029-.07c-.031.075.009-.02.017-.038q.078-.177.17-.347A4.729,4.729,0,0,1,2.172,5.684a5.359,5.359,0,0,1,2.9-1,8.934,8.934,0,0,1,2.234.173A3.91,3.91,0,0,0,8.5,4.986a2.554,2.554,0,0,0,1.934-1.218,6.37,6.37,0,0,0,.532-1.486q.3-.99.6-1.98a.245.245,0,0,0-.472-.13q-.247.827-.5,1.653A3.983,3.983,0,0,1,9.49,4.1a2.113,2.113,0,0,1-.97.4,3.476,3.476,0,0,1-1.137-.119,9.473,9.473,0,0,0-2.262-.181,5.9,5.9,0,0,0-3.073.979A5.344,5.344,0,0,0,.476,6.884,4.308,4.308,0,0,0,.008,7.96a.25.25,0,0,0,.171.3l1.642.517L5.763,10.02l4.749,1.5,4.121,1.3c.663.209,1.325.454,2,.629l.029.009a.249.249,0,0,0,.3-.171l1.3-4.08,2.054-6.448.468-1.468c.1-.3-.377-.43-.472-.13Z" transform="translate(80.536 213.745)"/>
      <path id="Path-23" data-name="Path" d="M9.621,0A2.385,2.385,0,0,1,7.679.4C1.222-1.067,0,3.817,0,3.817L12.7,6.6l-.041-.772A7.914,7.914,0,0,0,9.621,0Z" transform="translate(80.264 218.036)" fill="#fff"/>
      <path id="Path-24" data-name="Path" d="M9.741.045a2.246,2.246,0,0,1-1,.41,3.171,3.171,0,0,1-1.074-.1A10.467,10.467,0,0,0,5.782.138,6.718,6.718,0,0,0,2.939.679,5.4,5.4,0,0,0,.3,3.253a4.022,4.022,0,0,0-.3.755.248.248,0,0,0,.171.3l1.257.275,3.038.665,3.66.8,3.182.7c.514.113,1.027.24,1.544.338l.023.005a.248.248,0,0,0,.31-.236,12.076,12.076,0,0,0-.285-2.377,8.224,8.224,0,0,0-1.521-3.056A7.924,7.924,0,0,0,10.038.083a.253.253,0,0,0-.346,0,.246.246,0,0,0,0,.346,7.738,7.738,0,0,1,2.967,5.6c.017.276.029.553.044.83l.31-.236-1.257-.275L8.718,5.679l-3.66-.8-3.182-.7L.832,3.951a3.722,3.722,0,0,0-.5-.109L.309,3.837l.171.3c.013-.052.03-.1.047-.154s.042-.119.064-.177C.605,3.772.62,3.736.634,3.7s-.023.052,0-.009L.67,3.621a5.254,5.254,0,0,1,.759-1.208A5.408,5.408,0,0,1,5.615.627,9.706,9.706,0,0,1,7.653.848a3.325,3.325,0,0,0,1.215.08A2.618,2.618,0,0,0,9.989.468C10.243.287,10-.139,9.741.045Z" transform="translate(80.019 217.78)"/>
      <path id="Path-25" data-name="Path" d="M16.254,1.376,0,51.063l13.153,4.1S24.515,18.8,25.833,13.219,28.256,0,28.256,0" transform="translate(90.76 162.337)" fill="#0e853e"/>
      <path id="Path-26" data-name="Path" d="M16.262,1.554l-.436,1.331L14.641,6.508,12.9,11.844l-2.137,6.532L8.426,25.506,6.064,32.729l-2.2,6.734-1.855,5.67L.668,49.224c-.21.643-.44,1.283-.632,1.932-.008.028-.018.056-.027.084a.249.249,0,0,0,.171.3l4.454,1.389,7.069,2.2,1.63.508a.249.249,0,0,0,.3-.171l.438-1.4q.585-1.876,1.167-3.752.846-2.725,1.69-5.45,1.009-3.263,2.014-6.527,1.065-3.462,2.122-6.926,1.012-3.319,2.012-6.642.861-2.865,1.7-5.735c.408-1.394.813-2.79,1.193-4.192.563-2.08.985-4.2,1.384-6.312q.733-3.881,1.314-7.79.033-.218.064-.435c.045-.308-.427-.442-.472-.13-.28,1.934-.6,3.863-.936,5.787-.472,2.692-.955,5.4-1.64,8.046-.32,1.238-.675,2.467-1.03,3.695q-.787,2.722-1.6,5.436-.974,3.257-1.965,6.509-1.049,3.45-2.108,6.9-1.022,3.33-2.051,6.658Q16.035,46.1,15.136,49q-.656,2.112-1.313,4.224c-.209.673-.469,1.348-.634,2.033-.007.03-.019.06-.028.09l.3-.171L9.009,53.782l-7.069-2.2-1.63-.508.171.3.436-1.331L2.1,46.416,3.847,41.08l2.137-6.532,2.332-7.129L10.678,20.2l2.2-6.734,1.855-5.67L16.074,3.7c.21-.643.44-1.283.632-1.932.008-.028.018-.056.027-.084C16.832,1.384,16.359,1.255,16.262,1.554Z" transform="translate(90.516 162.094)"/>
      <path id="Path-27" data-name="Path" d="M3.361,0,13.94,6.825,4.619,21.375S.337,18.982,3.363,13.283a2.314,2.314,0,0,0-.808-3.05C1.258,9.42,0,8.64,0,8.64" transform="translate(135.185 204.057)" fill="#fc7272"/>
      <path id="Path-28" data-name="Path" d="M3.476.463l3.6,2.322,5.686,3.669,1.294.835-.088-.335L13.039,8.4l-2.23,3.48L8.123,16.076,5.792,19.714l-.763,1.191a6.144,6.144,0,0,0-.367.572.275.275,0,0,1-.016.026l.335-.088a2.546,2.546,0,0,1-.227-.148l-.112-.082c-.033-.025.009.007.013.01l-.038-.03-.073-.059q-.157-.129-.3-.271A4.751,4.751,0,0,1,3.046,19,5.58,5.58,0,0,1,3,15.685a8.892,8.892,0,0,1,.358-1.055c.159-.391.371-.754.54-1.139a2.584,2.584,0,0,0,.026-2.037,2.515,2.515,0,0,0-.7-.956,11.08,11.08,0,0,0-1.281-.834L.363,8.68c-.269-.167-.515.257-.247.423l1.3.808c.409.255.818.509,1.226.766a2.11,2.11,0,0,1,.721.742,2.085,2.085,0,0,1,.067,1.922,12.367,12.367,0,0,0-.9,2.215A6.105,6.105,0,0,0,2.53,19a5.322,5.322,0,0,0,1.238,2.052,4.363,4.363,0,0,0,.966.784.25.25,0,0,0,.335-.088L6,20.3l2.23-3.48,2.686-4.193L13.244,8.99c.375-.585.784-1.16,1.13-1.764L14.39,7.2a.249.249,0,0,0-.088-.335L10.7,4.544,5.018.875,3.724.04c-.266-.171-.512.252-.247.423Z" transform="translate(134.946 203.805)"/>
      <path id="Path-29" data-name="Path" d="M1.231,1.589A2.385,2.385,0,0,1,1.11,3.567C-1.995,9.416,2.4,11.873,2.4,11.873L8.407.339,7.652.177a7.914,7.914,0,0,0-6.42,1.412Z" transform="translate(137.35 214.079)" fill="#fff"/>
      <path id="Path-30" data-name="Path" d="M1.233,1.9a2.3,2.3,0,0,1-.174,1.938A10.778,10.778,0,0,0,.327,5.61,6.812,6.812,0,0,0,.053,8.542a5.411,5.411,0,0,0,1.8,3.3,4.038,4.038,0,0,0,.662.491.248.248,0,0,0,.335-.088L3.443,11.1,4.879,8.342,6.61,5.019l1.5-2.889c.243-.467.5-.929.73-1.4L8.856.708A.248.248,0,0,0,8.71.348,12.272,12.272,0,0,0,6.413,0a8.187,8.187,0,0,0-3.38.651,8.012,8.012,0,0,0-1.688.97c-.249.187-.005.613.247.423A7.747,7.747,0,0,1,7.826.658L8.58.82,8.433.46,7.839,1.6,6.4,4.359,4.671,7.682l-1.5,2.889-.494.949a3.73,3.73,0,0,0-.236.453.172.172,0,0,1-.011.021l.335-.088c-.048-.027-.094-.057-.14-.088s-.1-.07-.152-.107c-.019-.014-.108-.082-.052-.039l-.112-.09a5.149,5.149,0,0,1-.982-1.076A5.461,5.461,0,0,1,.754,5.894,10.86,10.86,0,0,1,1.56,3.936a2.684,2.684,0,0,0,.146-2.167C1.6,1.475,1.123,1.6,1.233,1.9Z" transform="translate(137.112 213.835)"/>
      <path id="Path-31" data-name="Path" d="M13.261,0l1.916,8.734a28.96,28.96,0,0,1,.608,8.131l-.8,11.939c5.041,2.732,17.255,11.379,17.255,11.379l-7.4,11.623L11.308,43.437A20.081,20.081,0,0,1,2,29.265L0,15.474,2.151,3.539" transform="translate(109.489 161.805)" fill="#0e853e"/>
      <path id="Path-32" data-name="Path" d="M13.27.306,14.277,4.9c.366,1.671.773,3.339,1.087,5.02a28.711,28.711,0,0,1,.45,6.687c-.025.5-.063,1-.1,1.506l-.409,6.142-.2,3.048c-.037.553-.094,1.109-.111,1.663,0,.026,0,.052-.005.078a.241.241,0,0,0,.121.212c2.775,1.506,5.41,3.289,8.034,5.04q3.865,2.58,7.669,5.249.777.543,1.552,1.09l-.088-.335-2.509,3.941-3.979,6.25-.911,1.432.335-.088-3.006-1.858L16.256,46.3l-4.292-2.653a20.52,20.52,0,0,1-5.989-5.508,20.1,20.1,0,0,1-3.51-8.784q-.339-2.331-.675-4.663L.81,17.921.521,15.926c-.01-.07-.017-.14-.03-.209-.027-.142.027.034-.01.062.048-.036.056-.311.066-.367L1.57,9.736,2.575,4.157l.056-.313c.056-.308-.416-.441-.472-.13L1.4,7.95l-1.172,6.5-.159.883A2.335,2.335,0,0,0,0,15.715a2.436,2.436,0,0,0,.05.35l.118.814.906,6.257.843,5.82c.1.7.206,1.4.361,2.086a20.326,20.326,0,0,0,9.153,12.849q1.566.972,3.136,1.938l6.008,3.714,4.176,2.581.216.134a.249.249,0,0,0,.335-.088l2.509-3.941,3.979-6.25.911-1.432a.25.25,0,0,0-.088-.335q-2.205-1.561-4.434-3.089c-2.866-1.974-5.748-3.927-8.683-5.8-1.357-.865-2.723-1.723-4.138-2.491l.121.212.266-3.991.427-6.41.1-1.5a29.232,29.232,0,0,0-.171-5.66c-.254-1.975-.74-3.919-1.166-5.861L13.764.278l-.022-.1c-.068-.308-.54-.178-.472.13Z" transform="translate(109.244 161.564)"/>
      <path id="Path-33" data-name="Path" d="M8.4,4.113a.657.657,0,0,0,.229.9l.535.317L1.98,16.508A7.318,7.318,0,0,1,0,14.874L9.437,0l2.294,1.353L9.876,4.226,9.3,3.884a.657.657,0,0,0-.9.229Z" transform="translate(138.832 210.32)" fill="#fff"/>
      <path id="Path-34" data-name="Path" d="M8.434,4.233a.917.917,0,0,0,.3,1.221c.179.119.371.221.556.331L9.2,5.45,8.485,6.559,6.773,9.223,4.691,12.464,2.9,15.252l-.589.916a4.19,4.19,0,0,0-.283.441l-.012.019.335-.088A6.048,6.048,0,0,1,.457,14.994v.247L1.4,13.754l2.245-3.538L6.38,5.906l2.348-3.7.78-1.23a5.935,5.935,0,0,0,.37-.583A.256.256,0,0,1,9.894.367L9.559.455l2.294,1.353-.088-.335L10.142,3.987l-.232.359.335-.088c-.192-.114-.381-.234-.576-.342a.919.919,0,0,0-1.236.317c-.172.265.252.511.423.247.293-.453.83.016,1.141.2a.25.25,0,0,0,.335-.088l1.623-2.514.232-.359a.248.248,0,0,0-.088-.335L9.806.032A.25.25,0,0,0,9.471.12L8.528,1.607,6.283,5.145,3.549,9.455,1.2,13.155c-.382.6-.8,1.193-1.151,1.814l-.016.025a.239.239,0,0,0,0,.247A6.6,6.6,0,0,0,2.1,16.963a.25.25,0,0,0,.335-.088l.713-1.109L4.863,13.1,6.945,9.862,8.737,7.073c.289-.449.609-.891.872-1.357L9.621,5.7a.248.248,0,0,0-.088-.335c-.309-.184-.929-.415-.676-.882C9.007,4.2,8.584,3.956,8.434,4.233Z" transform="translate(138.586 210.077)"/>
      <path id="Path-35" data-name="Path" d="M.453,1.64c.016-.026.033-.052.051-.077l.029-.04c.039-.054-.022.027.007-.01S.6,1.438.633,1.4a2.668,2.668,0,0,1,.6-.512A3.085,3.085,0,0,1,3.863.7c.3.1.429-.375.13-.472A3.694,3.694,0,0,0,1.5.209a3.153,3.153,0,0,0-1.268.9,2.2,2.2,0,0,0-.207.279.245.245,0,0,0,.423.247Z" transform="translate(141.321 219.376)"/>
      <path id="Path-36" data-name="Path" d="M2.092,8.338,3.475,1.146A1,1,0,0,0,2.368.015h0a.841.841,0,0,0-.985.667L0,7.874Z" transform="translate(142.974 206.282)" fill="#fff"/>
      <path id="Path-37" data-name="Path" d="M2.572,8.647l.583-3.031.756-3.932c.019-.1.04-.194.053-.291A1.234,1.234,0,0,0,2.72.01c-.088,0-.239-.018-.366-.005a1.084,1.084,0,0,0-.972.91C1.149,2.088.929,3.264.7,4.438S.238,6.805.02,7.991l-.012.061a.249.249,0,0,0,.171.3l2.092.464c.307.068.438-.4.13-.472L.309,7.881l.171.3.548-2.851.762-3.963c.023-.119.044-.24.069-.358A.675.675,0,0,1,2,.691C2.19.479,2.415.5,2.667.5a.772.772,0,0,1,.788.97l-.7,3.614c-.216,1.123-.441,2.245-.648,3.37L2.1,8.516C2.041,8.824,2.513,8.956,2.572,8.647Z" transform="translate(142.73 206.038)"/>
      <circle id="Oval" cx="1.633" cy="1.633" r="1.633" transform="translate(142.474 212.539)"/>
      <path id="Path-38" data-name="Path" d="M1.3,3.665a1.879,1.879,0,1,0-1.284-2,1.879,1.879,0,0,0,1.284,2c.3.1.427-.37.13-.472a1.389,1.389,0,1,1,1.655-.626,1.389,1.389,0,0,1-1.655.626C1.124,3.1,1,3.57,1.3,3.665Z" transform="translate(142.232 212.293)"/>
      <path id="Path-39" data-name="Path" d="M13.642,5.293a.657.657,0,0,0-.808.457l-.166.6L0,2.339A7.317,7.317,0,0,1,1.059,0L17.884,5.218l-.706,2.568L13.919,6.748,14.1,6.1a.657.657,0,0,0-.457-.808Z" transform="translate(79.696 220.771)" fill="#fff"/>
      <path id="Path-40" data-name="Path" d="M13.951,5.3a.917.917,0,0,0-1.1.6c-.068.2-.117.416-.174.623l.3-.171-1.257-.4L8.7,5,5.028,3.842l-3.16-1L.83,2.513a4.174,4.174,0,0,0-.5-.158L.309,2.348l.171.3a6.045,6.045,0,0,1,1-2.231L1.238.482,2.92,1l4,1.241L11.8,3.757l4.186,1.3,1.391.432a5.915,5.915,0,0,0,.66.2l.028.009-.171-.3-.706,2.568.3-.171-2.851-.909-.407-.13.171.3c.06-.215.127-.429.179-.645A.919.919,0,0,0,13.951,5.3c-.3-.1-.43.377-.13.472.515.165.2.8.106,1.153a.25.25,0,0,0,.171.3l2.851.909.407.13a.248.248,0,0,0,.3-.171l.706-2.568a.25.25,0,0,0-.171-.3l-1.682-.522-4-1.241L7.634,1.953,3.448.655C2.767.444,2.087.2,1.4.018L1.368.01A.239.239,0,0,0,1.13.073,6.6,6.6,0,0,0,.008,2.52a.25.25,0,0,0,.171.3l1.257.4,3.019.956L8.127,5.337l3.16,1c.509.161,1.019.355,1.537.487l.022.007a.248.248,0,0,0,.3-.171c.1-.346.158-1.007.673-.885C14.128,5.847,14.258,5.375,13.951,5.3Z" transform="translate(79.452 220.525)"/>
      <path id="Path-41" data-name="Path" d="M.172.479.226.5.284.517.32.531C.382.554.3.521.327.533A3.017,3.017,0,0,1,.8.8,2.692,2.692,0,0,1,1.8,2.092a3.727,3.727,0,0,1,.179,1.434c-.016.315.474.314.49,0a3.688,3.688,0,0,0-.635-2.4A3.15,3.15,0,0,0,.627.134,2.2,2.2,0,0,0,.3.007a.245.245,0,0,0-.13.472Z" transform="translate(85.385 222.037)"/>
      <path id="Path-42" data-name="Path" d="M.1,2.688l7.3-.546a1,1,0,0,0,.8-1.364h0A.841.841,0,0,0,7.3,0L0,.548Z" transform="translate(92.493 221.334)" fill="#fff"/>
      <path id="Path-43" data-name="Path" d="M.344,3.176l3.042-.227,4.008-.3c.085-.006.169-.011.254-.019a1.253,1.253,0,0,0,1.061-.852A1.5,1.5,0,0,0,8.69.971,1.176,1.176,0,0,0,8.315.258,1.142,1.142,0,0,0,7.479.006c-1.2.085-2.4.179-3.6.269S1.5.443.307.541l-.062,0A.249.249,0,0,0,0,.791l.1,2.14c.015.314.5.316.49,0L.49.791l-.245.245L3.122.821l4.015-.3c.127-.009.254-.02.381-.028a.619.619,0,0,1,.686.529,1.032,1.032,0,0,1,0,.694.782.782,0,0,1-.417.387,1.066,1.066,0,0,1-.317.051l-3.684.275c-1.13.084-2.26.158-3.389.253l-.058,0C.032,2.71.029,3.2.344,3.176Z" transform="translate(92.248 221.091)"/>
      <circle id="Oval-2" data-name="Oval" cx="1.633" cy="1.633" r="1.633" transform="translate(91.141 221.346)"/>
      <path id="Path-44" data-name="Path" d="M0,1.785A1.879,1.879,0,1,0,1.622.018,1.879,1.879,0,0,0,0,1.785c-.022.315.468.313.49,0A1.389,1.389,0,1,1,1.541,3.223,1.389,1.389,0,0,1,.492,1.785C.506,1.47.016,1.47,0,1.785Z" transform="translate(90.896 221.103)"/>
      <path id="Path-45" data-name="Path" d="M13.452,4.152,12.145,3.74,9.006,2.752l-3.8-1.2L1.923.523C1.393.356.862.156.324.02L.3.013C0-.082-.13.39.171.485L1.478.9l3.139.988,3.8,1.2L11.7,4.114c.53.167,1.06.367,1.6.5l.023.007c.3.095.43-.378.13-.472Z" transform="translate(91.564 209.768)"/>
      <path id="Path-46" data-name="Path" d="M7.433.114,6.7,1.273,4.935,4.04,2.8,7.4.954,10.3c-.3.47-.63.931-.9,1.417l-.013.02c-.17.267.254.513.423.247L1.2,10.824,2.96,8.057,5.1,4.695,6.941,1.8c.3-.47.63-.931.9-1.417l.013-.02C8.025.095,7.6-.151,7.433.114Z" transform="translate(131.432 199.992)"/>
      <path id="Path-47" data-name="Path" d="M1.827.176.945,4.489l-.6,2.947c-.1.484-.218.97-.293,1.459a4.189,4.189,0,0,0,.081,1.683,6.861,6.861,0,0,0,.234.685l.484,1.29c.11.293.583.166.472-.13L.9,11.313A5.039,5.039,0,0,1,.488,9.572a8.786,8.786,0,0,1,.285-1.8L1.962,1.957,2.3.307C2.362,0,1.89-.133,1.827.176Z" transform="translate(108.415 164.952)"/>
      <path id="Path-48" data-name="Path" d="M38.416,21.706a5.529,5.529,0,0,0-.023-2.317,3.564,3.564,0,0,0-1.2-1.952,4.124,4.124,0,0,0-1.737-.718c-.286-.066-.576-.129-.867-.215-1.113-.33-2.212-.727-3.3-1.124-1.838-.669-3.654-1.4-5.427-2.231a40.35,40.35,0,0,1-7.342-4.3,19.4,19.4,0,0,1-4.985-5.7c-.537-.869-.749-1.973-1.535-2.626A2.279,2.279,0,0,0,10.932.042,3.242,3.242,0,0,0,9.074.289c-2.209.984-3.3,3.564-4.354,5.581a44.3,44.3,0,0,0-2.928,6.893A36.462,36.462,0,0,0,.44,18.355a15.71,15.71,0,0,0-.29,5.461A4.9,4.9,0,0,0,.961,25.8a2.486,2.486,0,0,0,1.815,1.04,4.245,4.245,0,0,0,2.512-1.126,4.707,4.707,0,0,1,.944-.571A34.445,34.445,0,0,1,14.057,23.1a49.121,49.121,0,0,1,18.885.834l.989.236a4.1,4.1,0,0,0,3-.055A3.424,3.424,0,0,0,38.416,21.706Z" transform="translate(57.421 116.203)" fill="#fff"/>
      <path id="Path-49" data-name="Path" d="M38.9,22.023c.3-1.682.012-3.635-1.5-4.665a8.17,8.17,0,0,0-2.463-.829c-.939-.271-1.862-.6-2.781-.932a58.2,58.2,0,0,1-10.374-4.754A25.444,25.444,0,0,1,17.47,7.7a19.955,19.955,0,0,1-3.045-3.727c-.216-.333-.44-.666-.622-1.02s-.319-.7-.481-1.045A3.122,3.122,0,0,0,11.833.242C10.311-.427,8.649.392,7.568,1.483a14.1,14.1,0,0,0-2.36,3.629C4.4,6.693,3.6,8.266,2.922,9.907a40.118,40.118,0,0,0-1.838,5.526q-.356,1.414-.6,2.854c-.152.92-.308,1.841-.407,2.769a10.5,10.5,0,0,0,.026,2.806,5.217,5.217,0,0,0,.94,2.387A2.714,2.714,0,0,0,3.02,27.339a3.862,3.862,0,0,0,2.322-.932,7.532,7.532,0,0,1,1.132-.742A13.787,13.787,0,0,1,7.8,25.153c.874-.306,1.764-.565,2.663-.788A44.719,44.719,0,0,1,16.1,23.356a48.48,48.48,0,0,1,11.5.068,51.517,51.517,0,0,1,5.67,1.035,11.466,11.466,0,0,0,2.61.47,2.746,2.746,0,0,0,2.094-.9,4.139,4.139,0,0,0,.93-2.011c.058-.308-.414-.44-.472-.13a3.546,3.546,0,0,1-.963,1.958,2.536,2.536,0,0,1-2.156.55c-.883-.114-1.749-.383-2.615-.579q-1.359-.308-2.733-.542a49.8,49.8,0,0,0-11.149-.646,47.947,47.947,0,0,0-5.512.642,35.933,35.933,0,0,0-5.357,1.313A9.051,9.051,0,0,0,5.52,25.676a5.1,5.1,0,0,1-2.186,1.162,2.162,2.162,0,0,1-1.918-.908A4.973,4.973,0,0,1,.55,23.522,11.12,11.12,0,0,1,.6,20.843C.7,19.922.857,19,1.017,18.09A37.047,37.047,0,0,1,2.431,12.6,43.3,43.3,0,0,1,4.556,7.468c.351-.716.724-1.421,1.087-2.131.32-.626.644-1.251,1.012-1.851A6.236,6.236,0,0,1,9.627.68,2.59,2.59,0,0,1,11.99.891a4.193,4.193,0,0,1,1.156,1.817,13.355,13.355,0,0,0,1.2,2.029,22.259,22.259,0,0,0,1.374,1.826A19.274,19.274,0,0,0,19.31,9.812a46.6,46.6,0,0,0,9.653,5.1c1.753.71,3.536,1.377,5.342,1.942.459.144.92.261,1.388.37a4.994,4.994,0,0,1,1.121.364,3.068,3.068,0,0,1,1.475,1.747,5.039,5.039,0,0,1,.135,2.561C38.369,22.2,38.841,22.334,38.9,22.023Z" transform="translate(57.177 115.951)"/>
      <path id="Path-50" data-name="Path" d="M11.042,0a2.626,2.626,0,0,1-.3.147,14.573,14.573,0,0,1-1.892.58,15.88,15.88,0,0,1-4.189.41,4.676,4.676,0,0,1-.891-.15L2.321.645A1.417,1.417,0,0,0,1.45.627C.929.848.789,1.693.614,2.17A5.5,5.5,0,0,0,0,4.2a.775.775,0,0,0,.151.539.857.857,0,0,0,.3.182,19.036,19.036,0,0,1,4.77,3.2,20.094,20.094,0,0,1,2.288,2.435c.1.132.208.264.31.4a21.285,21.285,0,0,0,2.354-5.7A32.051,32.051,0,0,0,11.042,0Z" transform="translate(56.006 124.803)" fill="#125be4"/>
      <path id="Path-51" data-name="Path" d="M11.161.032A6.374,6.374,0,0,1,9.983.476Q9.359.667,8.72.8a15.558,15.558,0,0,1-2.624.33,10.943,10.943,0,0,1-1.3,0A8.809,8.809,0,0,1,3.5.857,10.654,10.654,0,0,0,2.186.571a1.079,1.079,0,0,0-.916.3A4.483,4.483,0,0,0,.576,2.464,4.9,4.9,0,0,0,0,4.558.84.84,0,0,0,.63,5.4c.364.161.719.341,1.067.534A18.753,18.753,0,0,1,3.816,7.321a20.612,20.612,0,0,1,4.037,4,.249.249,0,0,0,.423,0,23.346,23.346,0,0,0,2.932-8.437c.14-.875.244-1.755.322-2.638.028-.314-.462-.312-.49,0A27.114,27.114,0,0,1,8.971,8.929a19.5,19.5,0,0,1-1.119,2.142h.423a21,21,0,0,0-3.4-3.535A18.12,18.12,0,0,0,.82,4.952C.662,4.882.538,4.825.5,4.641A1.738,1.738,0,0,1,.52,4.069a4.234,4.234,0,0,1,.32-.976,8.756,8.756,0,0,0,.341-.885,4.041,4.041,0,0,1,.284-.769.634.634,0,0,1,.657-.383,8.287,8.287,0,0,1,1.245.274A12.141,12.141,0,0,0,4.66,1.6a8.4,8.4,0,0,0,1.259.025A16.331,16.331,0,0,0,8.747,1.3q.69-.143,1.366-.348a7.009,7.009,0,0,0,1.3-.494C11.686.3,11.439-.118,11.161.032Z" transform="translate(55.763 124.56)"/>
      <path id="Path-52" data-name="Path" d="M4.684.234A22.8,22.8,0,0,1,4.21,7.281a33.287,33.287,0,0,1-2.32,6.853A38.85,38.85,0,0,1,.03,17.68a.245.245,0,0,0,.423.247,38.067,38.067,0,0,0,3.094-6.567A29.233,29.233,0,0,0,5.176,4.224a21.027,21.027,0,0,0,0-3.99c-.031-.311-.521-.314-.49,0Z" transform="translate(62.267 120.597)"/>
      <path id="Path-53" data-name="Path" d="M8.118,0l-2.2,7.022c-.107-.009-1.278.082-1.388.082a4,4,0,0,0-1.851,7.547L0,23.911s18.29,1.79,20.072,4.195c.117-6.61-.187-23.185-.187-23.185-.358-2.035-1-2.668-2.342-2.817L8.879.313" transform="translate(106.605 140.949)" fill="#fff"/>
      <path id="Path-54" data-name="Path" d="M8.126.171,7.379,2.547,6.2,6.319l-.274.874.236-.18a6.629,6.629,0,0,0-.773.043c-.266.018-.532.031-.8.043a4.245,4.245,0,0,0-1.791,8l-.113-.277-.906,3.137L.339,22.937.008,24.082a.249.249,0,0,0,.236.31c.605.059,1.21.126,1.815.194q2.2.247,4.4.544c1.841.25,3.678.526,5.507.851,1.694.3,3.389.636,5.047,1.1a16.337,16.337,0,0,1,1.868.626l.048.02.1.045.177.082c.108.052.215.107.319.166s.183.108.271.169l.06.043c.057.041,0,0,.019.014s.069.056.1.086.06.056.088.086.073.088.042.047a.247.247,0,0,0,.456-.124c.023-1.319.027-2.638.027-3.958q0-2.446-.022-4.891-.02-2.533-.052-5.066-.028-2.285-.063-4.57Q20.426,8.2,20.4,6.54c-.008-.457.009-.922-.024-1.377a5,5,0,0,0-.264-1.14A3.416,3.416,0,0,0,19.6,2.988,2.521,2.521,0,0,0,17.848,2.1c-.063-.01.026.005,0,0L17.819,2.1l-.108-.022-.4-.083-1.4-.29L12.036.9,9.329.342,9.188.313c-.308-.064-.439.409-.13.472l1.93.4,3.834.792,2.733.565a4.53,4.53,0,0,1,1.045.251,2.3,2.3,0,0,1,1.11,1.6,3.746,3.746,0,0,1,.178.943q.007.376.013.752.026,1.485.048,2.969.033,2.155.061,4.31.032,2.5.056,4.991.023,2.466.031,4.933c0,1.407,0,2.814-.013,4.221q0,.416-.012.832l.456-.124a2.751,2.751,0,0,0-1.019-.759,11.866,11.866,0,0,0-1.738-.664,43.358,43.358,0,0,0-4.9-1.145c-1.855-.347-3.721-.636-5.591-.9q-2.368-.331-4.743-.6Q1.77,24.062,1,23.981a6.172,6.172,0,0,0-.726-.075l-.032,0,.236.31.906-3.137L2.824,16.1l.331-1.146a.248.248,0,0,0-.113-.277A3.756,3.756,0,0,1,4.457,7.6c.295-.023.592-.028.888-.048A6.954,6.954,0,0,1,6.157,7.5a.249.249,0,0,0,.236-.18L7.14,4.946,8.324,1.175,8.6.3c.095-.3-.378-.43-.472-.13Z" transform="translate(106.361 140.713)"/>
      <path id="Path-55" data-name="Path" d="M13.548,13.341l.562,10.181A25.748,25.748,0,0,0,16.2,32.344l2.343,5.4L.331,36.535,0,21.281a19.934,19.934,0,0,1,1.629-8.329l5.054-11.7L6.818,0h.64a4.082,4.082,0,0,1,2.961,1.269l.569.6L7.833,8.116" transform="translate(114.81 140.263)" fill="#ff9416"/>
      <path id="Path-56" data-name="Path" d="M13.544,13.589l.176,3.177.3,5.342a39.524,39.524,0,0,0,.475,4.9,25.77,25.77,0,0,0,1.468,5.066c.224.554.468,1.1.706,1.649l1.861,4.293.043.1.212-.369-1.817-.121-4.344-.29-5.253-.35-4.557-.3-1.5-.1A6.348,6.348,0,0,0,.6,36.539l-.031,0,.245.245-.036-1.7L.695,31.1.6,26.439.516,22.73c-.019-.888-.05-1.776,0-2.663a19.868,19.868,0,0,1,1.612-6.832L3.17,10.813,4.963,6.66,6.589,2.895l.455-1.053.09-.209a1.985,1.985,0,0,0,.083-.559L7.3.248,7.058.493c.254,0,.508-.006.761,0A3.806,3.806,0,0,1,9.4.89a6.143,6.143,0,0,1,1.653,1.4l-.038-.3L9.948,4.108,8.254,7.463l-.392.777c-.142.281.281.529.423.247L9.353,6.371l1.694-3.355.392-.777a.254.254,0,0,0-.038-.3A6.4,6.4,0,0,0,9.6.441,4.4,4.4,0,0,0,7.911.008C7.627-.006,7.342,0,7.058,0a.251.251,0,0,0-.245.245l-.09.862a2.107,2.107,0,0,0-.039.373c0,.038.065-.169.021-.084-.116.225-.2.47-.3.7L4.942,5.482,3.108,9.73l-1.291,2.99a21.632,21.632,0,0,0-1.569,5.21,23.678,23.678,0,0,0-.235,4.217l.069,3.227.1,4.592.092,4.3L.324,36.67l0,.112a.251.251,0,0,0,.245.245l1.817.121,4.344.29,5.253.35,4.557.3,1.5.1c.234.016.472.045.706.047l.031,0c.205.014.279-.214.212-.369l-1.652-3.811-.68-1.568a25.561,25.561,0,0,1-2.065-8.75q-.033-.588-.065-1.176l-.285-5.155c-.069-1.254-.124-2.509-.208-3.762,0-.02,0-.041,0-.062-.017-.314-.507-.316-.49,0Z" transform="translate(114.57 140.015)"/>
      <path id="Path-57" data-name="Path" d="M10.223,4.222A3.564,3.564,0,0,0,9.02,2.27a4.123,4.123,0,0,0-1.737-.718c-.286-.066-.576-.129-.867-.215C5.3,1.006,4.2.609,3.114.212L2.538,0a43.039,43.039,0,0,1-1.3,5.6A16.486,16.486,0,0,1,0,7.868c1.609.225,3.2.527,4.772.9l.989.236a4.1,4.1,0,0,0,3-.055,3.425,3.425,0,0,0,1.488-2.412,5.529,5.529,0,0,0-.023-2.317Z" transform="translate(85.591 131.37)" fill="#ff2323"/>
      <path id="Path-58" data-name="Path" d="M10.7,4.4A3.631,3.631,0,0,0,8.662,1.883,12.752,12.752,0,0,0,6.927,1.4C6.275,1.228,5.634,1,5,.784c-.72-.25-1.436-.51-2.15-.776a.248.248,0,0,0-.31.236,10.311,10.311,0,0,1-.2,1.216c-.116.565-.246,1.127-.382,1.687-.206.85-.4,1.722-.682,2.55a6.672,6.672,0,0,1-.45.948c-.245.458-.516.9-.789,1.343a.247.247,0,0,0,.146.36q1.582.223,3.148.542c1.018.208,2.022.476,3.038.694a3.975,3.975,0,0,0,2.653-.118,3.272,3.272,0,0,0,1.5-1.848A5.737,5.737,0,0,0,10.7,4.4c-.073-.307-.545-.177-.472.13a5.3,5.3,0,0,1-.105,2.72,2.9,2.9,0,0,1-1.3,1.763A3.474,3.474,0,0,1,6.434,9.1C5.487,8.89,4.549,8.644,3.6,8.447Q1.964,8.108.309,7.876l.146.36A14.546,14.546,0,0,0,1.722,5.892a8.754,8.754,0,0,0,.254-.857c.3-1.087.568-2.183.8-3.286a11.958,11.958,0,0,0,.252-1.5L2.717.48c1.19.443,2.386.88,3.6,1.252,1.079.331,2.3.4,3.115,1.27a3.482,3.482,0,0,1,.8,1.528A.245.245,0,0,0,10.7,4.4Z" transform="translate(85.347 131.126)"/>
      <path id="Path-59" data-name="Path" d="M29.115,1.8c-3.713.587-7.2,1.463-11.065,1.886.37,2.433.522,3.69.8,6.135L0,9.013c3.194-.476,6.4-.914,9.554-1.6q1.214-.264,2.416-.58a7.694,7.694,0,0,0,2.327-.67c.427-.335.137-1.521.085-2.073q-.119-1.264-.345-2.514A9.682,9.682,0,0,1,13.826,0Z" transform="translate(22.686 129.455)" fill="#ff9416"/>
      <path id="Path-60" data-name="Path" d="M29.291,1.808c-2.846.452-5.659,1.09-8.5,1.54-.829.131-1.66.245-2.495.337a.251.251,0,0,0-.236.31c.307,2.018.561,4.042.793,6.07l.245-.245-1.885-.081L12.72,9.547,7.257,9.314l-4.691-.2L1.009,9.046a6.535,6.535,0,0,0-.737-.032H.241l.065.481C3.428,9.03,6.558,8.6,9.645,7.939q1.144-.245,2.277-.534c.543-.139,1.093-.231,1.639-.358.426-.1,1.05-.23,1.294-.639a2.308,2.308,0,0,0,.1-1.447c-.093-.7-.16-1.4-.26-2.1A22.567,22.567,0,0,1,14.312.245L14.067.49l1.515.178,3.658.43,4.409.519,3.828.45,1.256.148c.2.023.4.063.6.07l.026,0a.247.247,0,0,0,.245-.245.251.251,0,0,0-.245-.245l-1.515-.178-3.658-.43L19.774.672,15.946.221,14.69.073c-.2-.023-.4-.063-.6-.07l-.026,0a.247.247,0,0,0-.245.245,16.841,16.841,0,0,0,.324,2.247c.109.682.167,1.369.258,2.053a4.7,4.7,0,0,1,.1,1.4.438.438,0,0,1-.257.36,2.922,2.922,0,0,1-.713.247c-.507.124-1.025.2-1.53.327q-1.1.286-2.2.527c-1.494.327-3,.6-4.508.844-1.7.277-3.411.52-5.117.774-.284.042-.2.47.065.481l1.885.081,4.488.192,5.463.234,4.691.2c.761.033,1.532.105,2.294.1h.031a.246.246,0,0,0,.245-.245c-.237-2.072-.5-4.138-.81-6.2l-.236.31c2.923-.322,5.8-.931,8.686-1.469.813-.152,1.627-.3,2.444-.425C29.732,2.231,29.6,1.759,29.291,1.808Z" transform="translate(22.444 129.21)" fill="#ff9416"/>
      <path id="Path-61" data-name="Path" d="M15.56,0c-2.126,1.954-3.982,3.994-6.277,5.909,1.271,1.4,1.9,2.139,3.12,3.584L0,16.989c1.841-1.662,3.7-3.3,5.431-5.085q.664-.685,1.3-1.4c.329-.37,1.05-.95,1.2-1.418.131-.4-.558-1.031-.826-1.363q-.613-.758-1.289-1.462a7.437,7.437,0,0,1-.8-.917Z" transform="translate(36.304 138.225)" fill="#ff9416"/>
      <path id="Path-62" data-name="Path" d="M15.634.067C13.519,2.014,11.565,4.13,9.357,5.976a.248.248,0,0,0,0,.346c1.065,1.173,2.1,2.372,3.12,3.584l.05-.385-1.233.745-2.962,1.79L4.748,14.223,1.65,16.1l-1.021.617a4.719,4.719,0,0,0-.484.293l-.021.013.3.385C2.2,15.8,4,14.21,5.677,12.5q.619-.632,1.214-1.288c.312-.345.645-.664.965-1,.248-.262.6-.622.586-1.011a1.826,1.826,0,0,0-.573-1.016c-.365-.418-.715-.849-1.085-1.262A16.591,16.591,0,0,1,5.473,5.464L5.385,5.8l3.56-1.8,5.678-2.879L15.931.452c.281-.143.034-.565-.247-.423l-3.56,1.8L6.446,4.713l-1.308.663a.246.246,0,0,0-.088.335A12.509,12.509,0,0,0,6.18,6.982c.364.393.7.805,1.048,1.213a4.038,4.038,0,0,1,.68.868c.137.3-.208.6-.4.8-.3.311-.606.6-.894.922q-.568.63-1.16,1.238c-.8.821-1.625,1.613-2.465,2.391-.963.891-1.942,1.764-2.916,2.643-.207.187.06.528.3.385L1.6,16.7l2.962-1.79L8.15,12.74l3.1-1.872c.5-.3,1.016-.589,1.505-.91l.021-.013a.249.249,0,0,0,.05-.385C11.8,8.349,10.769,7.149,9.7,5.976v.346C11.911,4.477,13.866,2.36,15.981.414,16.213.2,15.866-.146,15.634.067Z" transform="translate(36.056 137.985)" fill="#ff9416"/>
      <path id="Path-63" data-name="Path" d="M21.72,7.68c-2.629-1.193-5.233-2.1-7.893-3.467C13.037,5.929,12.6,6.8,11.748,8.485L9.429,6.81,0,0C2.249,1.045,4.489,2.117,6.8,3.011q.89.343,1.794.649a5.909,5.909,0,0,0,1.775.554c.415-.034.731-.917.931-1.293q.458-.86.841-1.758a7.438,7.438,0,0,1,.53-1.1Z" transform="translate(29.736 116.002)" fill="#ff9416"/>
      <path id="Path-64" data-name="Path" d="M22.082,7.709c-2.618-1.186-5.331-2.157-7.893-3.467a.248.248,0,0,0-.335.088c-.663,1.439-1.363,2.859-2.079,4.273l.335-.088-1.168-.844L8.136,5.645,4.742,3.193,1.807,1.074.84.375A4.756,4.756,0,0,0,.382.044L.362.03.114.453c2.2,1.024,4.4,2.072,6.66,2.957q.853.333,1.718.633c.435.15.853.339,1.285.494a1.371,1.371,0,0,0,1.122.071,2.068,2.068,0,0,0,.662-.925c.233-.489.49-.965.72-1.456a16.567,16.567,0,0,1,.842-1.8l-.385.05,3.053,2.571,4.869,4.1,1.122.945c.24.2.588-.143.346-.346L19.078,5.176l-4.869-4.1L13.087.131a.249.249,0,0,0-.385.05,12.482,12.482,0,0,0-.712,1.513c-.217.482-.463.947-.7,1.42a4.763,4.763,0,0,1-.507.944.316.316,0,0,1-.253.154,1.909,1.909,0,0,1-.6-.14c-.4-.139-.775-.32-1.172-.455q-.834-.284-1.655-.6C6.026,2.6,4.961,2.141,3.9,1.666,2.717,1.133,1.541.578.362.03A.245.245,0,0,0,.114.453L1.283,1.3,4.088,3.323,7.483,5.774l2.934,2.119.967.7c.151.109.3.233.459.331l.02.014A.246.246,0,0,0,12.2,8.85c.716-1.414,1.416-2.834,2.079-4.273l-.335.088c2.562,1.31,5.274,2.282,7.893,3.467C22.119,8.261,22.369,7.839,22.082,7.709Z" transform="translate(29.498 115.761)" fill="#ff9416"/>
      <path id="Path-65" data-name="Path" d="M0,12.053,17.032,19.89l2.31.968C23,22.1,27.836,22.519,30.082,18.528l7.86-12.951c-.806-.354-5.127-1.364-6.04-1.913A18.422,18.422,0,0,1,28.085.748L22.913,10.2,7.008,1.243A8.282,8.282,0,0,0,3.713.214L1.415,0" transform="translate(121.255 141.796)" fill="#ff9416"/>
      <path id="Path-66" data-name="Path" d="M.127,12.511l2.176,1L7.271,15.8l5.544,2.551,3.793,1.745c.913.42,1.844.8,2.771,1.184a10.335,10.335,0,0,0,1.334.422,15.856,15.856,0,0,0,1.963.4,10.045,10.045,0,0,0,3.988-.174,6.251,6.251,0,0,0,3.281-2.135,12.589,12.589,0,0,0,.837-1.285l2.31-3.807,3.161-5.209L38.3,6.111l.1-.166a.246.246,0,0,0-.088-.335,11.252,11.252,0,0,0-1.4-.449c-.693-.2-1.387-.386-2.079-.585-.645-.185-1.291-.371-1.921-.6a8.882,8.882,0,0,1-1.907-1.091,14.83,14.83,0,0,1-2.5-2.065.247.247,0,0,0-.385.05L26.38,4.057l-2.79,5.1-.638,1.166.335-.088-2.23-1.256-5-2.813-5.329-3-3.18-1.79a9.053,9.053,0,0,0-2.7-1.03A28.923,28.923,0,0,0,1.97.03L1.666,0c-.314-.029-.312.461,0,.49L3.926.7A8.243,8.243,0,0,1,7.2,1.738L10,3.315l5.185,2.919,5.154,2.9c.886.5,1.762,1.021,2.66,1.5l.04.022a.248.248,0,0,0,.335-.088l1.744-3.186,2.79-5.1.638-1.166-.385.05A14.477,14.477,0,0,0,30.318,3q.711.511,1.458.969a4.786,4.786,0,0,0,.744.381,38.79,38.79,0,0,0,3.953,1.2c.334.094.668.188,1,.289.126.038.251.077.375.119L38,6.006c.021.008.143.058.073.027L37.98,5.7,36.52,8.105l-3.048,5.023-2.7,4.449c-.2.337-.411.674-.614,1.012a6.2,6.2,0,0,1-2,2.159c-2.247,1.405-5.162,1.094-7.593.4a21.88,21.88,0,0,1-2.469-.938l-.55-.23-.156-.065c-.037-.015-.077-.041.015.006-.058-.03-.119-.055-.179-.082L14.114,18.41,8.8,15.967,3.528,13.539.517,12.154l-.143-.066c-.284-.131-.534.291-.247.423Z" transform="translate(121.005 141.55)"/>
      <path id="Path-67" data-name="Path" d="M3.389,2.918c-.28.467-1.631.208-3.389-.563L1.053,0C2.711,1.265,3.685,2.427,3.389,2.918Z" transform="translate(155.768 144.467)"/>
      <path id="Path-68" data-name="Path" d="M3.422,3.04c-.033.052.02-.024,0,0a.2.2,0,0,1-.035.034c.041-.031-.04.021-.056.029.036-.017-.059.017-.076.021a.632.632,0,0,1-.1.017,2.393,2.393,0,0,1-.682-.051A10.074,10.074,0,0,1,.367,2.389l.088.335L1.508.369,1.173.456A11.155,11.155,0,0,1,2.969,2.1a2.59,2.59,0,0,1,.415.629c0,.006.025.067.033.094s.013.047.018.071c.015.071,0-.044,0,.024,0,.02,0,.115,0,.057a.265.265,0,0,1-.014.055c.013-.038.007-.015-.006.009a.245.245,0,0,0,.423.247c.268-.475-.138-1.039-.422-1.4a10.953,10.953,0,0,0-2-1.853.245.245,0,0,0-.335.088L.032,2.477a.248.248,0,0,0,.088.335A9.794,9.794,0,0,0,2.51,3.6c.439.067,1.057.126,1.335-.309C4.015,3.021,3.591,2.775,3.422,3.04Z" transform="translate(155.524 144.223)"/>
      <path id="Path-69" data-name="Path" d="M3.816,6.792A18.422,18.422,0,0,1,0,3.877L.861,2.31,2.129,0,8.455,3.62,7.481,5.8,6.428,8.155A23.452,23.452,0,0,1,3.816,6.792Z" transform="translate(149.34 138.667)" fill="#fc7f3a"/>
      <path id="Path-70" data-name="Path" d="M4.183,6.824A17.268,17.268,0,0,1,.416,3.947l.038.3,1.73-3.15.4-.727L2.249.455,4.38,1.675,7.8,3.629l.78.446L8.487,3.74,6.865,7.368l-.406.908.335-.088A23.7,23.7,0,0,1,4.183,6.824a.245.245,0,0,0-.247.423A23.7,23.7,0,0,0,6.548,8.611a.249.249,0,0,0,.335-.088l1.608-3.6.42-.939a.251.251,0,0,0-.088-.335L6.691,2.432,3.276.479,2.5.032A.248.248,0,0,0,2.161.12L.524,3.1.032,4a.252.252,0,0,0,.038.3A17.754,17.754,0,0,0,3.936,7.247.245.245,0,0,0,4.183,6.824Z" transform="translate(149.097 138.424)"/>
      <path id="Path-71" data-name="Path" d="M2.581,0,0,4.749" transform="translate(142.459 150.402)" fill="#fff"/>
      <path id="Path-72" data-name="Path" d="M2.613.121.352,4.281l-.32.589c-.151.277.272.525.423.247L2.715.958l.32-.589c.151-.277-.272-.525-.423-.247Z" transform="translate(142.215 150.157)"/>
      <path id="Path-73" data-name="Path" d="M6.06,13,8.024,7.586a5.435,5.435,0,0,0,.711-1.48h0a5.027,5.027,0,0,1,1.947-2.915l.036-1.08S5.2-.314,4.7.034L3.066,3.953l-.235-2.7A.721.721,0,0,0,1.79.672h0a.721.721,0,0,0-.4.577L.943,5.995,0,8.3" transform="translate(151.012 131.199)" fill="#fc7f3a"/>
      <path id="Path-74" data-name="Path" d="M6.541,13.318,7.864,9.669l.609-1.68a.622.622,0,0,1,.044-.083,9.847,9.847,0,0,0,.545-1.048,13.353,13.353,0,0,1,.763-1.883,4.185,4.185,0,0,1,.659-.858,3.753,3.753,0,0,1,.422-.364c.129-.095.252-.149.265-.326.026-.354.024-.712.035-1.066a.239.239,0,0,0-.121-.212C9.655,1.521,8.205.915,6.726.41A10.305,10.305,0,0,0,5.571.069a1.066,1.066,0,0,0-.751,0A.529.529,0,0,0,4.657.34L4.5.709,3.99,1.941l-.916,2.2.481.065L3.341,1.74a3.405,3.405,0,0,0-.04-.375A.964.964,0,0,0,1.582.995a1.088,1.088,0,0,0-.193.566c-.085.837-.16,1.676-.239,2.514-.069.721-.105,1.453-.207,2.17.019-.137-.018,0-.034.04l-.1.249-.32.782L.008,8.487a.247.247,0,0,0,.171.3.251.251,0,0,0,.3-.171l.887-2.169a1.434,1.434,0,0,0,.087-.438l.11-1.151.273-2.869a1.69,1.69,0,0,1,.109-.663A.479.479,0,0,1,2.7,1.235a.577.577,0,0,1,.143.39L3.066,4.2a.246.246,0,0,0,.481.065L4.976.84,5.18.35,5.067.5c.041-.027-.069.025,0,0C5.109.482,5,.492,5.078.5S5.2.5,5.264.507c-.07-.009.036.007.05.009l.128.025c.1.021.2.046.292.072.487.132.965.3,1.439.473,1,.367,2.024.784,2.989,1.195.227.1.453.193.678.292l-.121-.212-.036,1.08L10.8,3.23A5.342,5.342,0,0,0,8.8,6.125,6.923,6.923,0,0,1,8.469,7q-.107.223-.234.435a2.851,2.851,0,0,0-.2.338c-.043.1-.075.207-.113.31L6.51,11.971l-.441,1.217c-.108.3.366.425.472.13Z" transform="translate(150.767 130.948)"/>
      <path id="Path-75" data-name="Path" d="M0,14.813a43.443,43.443,0,0,0,3.794,2.155L9.073,7.98a.285.285,0,0,1,.155-.123c1.264-.345,1.035-.368,2.134-1.686l.72-1.573a1.468,1.468,0,0,0,.086-1.031C11.9,2.69,10.878,2.255,9.835,1.8L5.473,0" transform="translate(151.975 129.893)" fill="#fc7f3a"/>
      <path id="Path-76" data-name="Path" d="M.119,15.269a13.2,13.2,0,0,0,1.627,1c.588.328,1.181.645,1.777.957l.389.2a.25.25,0,0,0,.335-.088L6.034,14.3l2.831-4.82L9.3,8.728a2.172,2.172,0,0,1,.212-.361c.075-.082.265-.1.381-.131a2.748,2.748,0,0,0,.633-.256A4.182,4.182,0,0,0,11.5,6.93a2.6,2.6,0,0,0,.382-.533l.264-.577a9.682,9.682,0,0,0,.487-1.1C13.139,3.1,11.306,2.29,10.124,1.8,8.722,1.216,7.317.642,5.914.063L5.781.008a.247.247,0,0,0-.3.171.251.251,0,0,0,.171.3L9.724,2.16c.287.118.565.238.848.37.593.275,1.359.631,1.587,1.3a1.805,1.805,0,0,1-.27,1.379l-.3.655a3.843,3.843,0,0,1-.191.416,7.948,7.948,0,0,1-.561.7,3.47,3.47,0,0,1-.43.486,1.475,1.475,0,0,1-.425.226c-.276.1-.648.119-.839.358a7.371,7.371,0,0,0-.528.884L5.9,13.552,4.581,15.8c-.239.407-.5.808-.721,1.227-.011.02-.023.04-.035.059L4.16,17c-1.011-.519-2.018-1.053-2.995-1.635a8.146,8.146,0,0,1-.8-.52.247.247,0,0,0-.335.088.251.251,0,0,0,.088.335Z" transform="translate(151.732 129.648)"/>
      <path id="Path-77" data-name="Path" d="M2.719,7.863C3.874,4.973,4.492,3.394,5.28,1.758S4.995-.693,3.819.74A56.51,56.51,0,0,0,0,8.915a3.841,3.841,0,0,1,2.662.791" transform="translate(154.133 126.018)" fill="#fc7f3a"/>
      <path id="Path-78" data-name="Path" d="M3.2,8.173C3.834,6.586,4.451,4.99,5.14,3.425q.192-.437.394-.87a5.631,5.631,0,0,0,.449-1.1C6.113.888,6.011.072,5.289,0S4,.62,3.662,1.155c-.347.554-.655,1.132-.95,1.715-.644,1.275-1.219,2.585-1.77,3.9C.62,7.541.3,8.314.009,9.094a.246.246,0,0,0,.236.31,3.413,3.413,0,0,1,2.489.719c.239.2.587-.142.346-.346A3.887,3.887,0,0,0,.245,8.914l.236.31c.684-1.8,1.436-3.579,2.266-5.316.289-.6.589-1.2.915-1.788A3.751,3.751,0,0,1,4.812.627c.181-.11.431-.206.6-.072a.724.724,0,0,1,.135.6A3.4,3.4,0,0,1,5.165,2.19q-.2.421-.386.846C4.048,4.685,3.4,6.369,2.727,8.043c-.117.293.357.42.472.13Z" transform="translate(153.888 125.773)"/>
      <path id="Path-79" data-name="Path" d="M0,6.369,1,1.61A2.381,2.381,0,0,1,3.253,0h4.34L7.005,1.566,3.592,1.225,1.92,6.551" transform="translate(111.131 139.724)" fill="#ff9416"/>
      <path id="Path-80" data-name="Path" d="M.478,6.683l.933-4.439A2.079,2.079,0,0,1,3.5.495c.655-.006,1.311,0,1.966,0H7.836L7.6.185,7.012,1.751l.236-.18-2.979-.3-.433-.043a.247.247,0,0,0-.236.18L2.134,6.076l-.207.66c-.095.3.378.431.472.13L3.864,2.2l.207-.66-.236.18,2.979.3.433.043a.249.249,0,0,0,.236-.18L8.072.315A.247.247,0,0,0,7.835,0C6.394,0,4.952-.006,3.51,0A2.682,2.682,0,0,0,1.757.663,2.371,2.371,0,0,0,.986,1.89l-.5,2.393L.006,6.553c-.065.308.407.439.472.13Z" transform="translate(110.888 139.475)"/>
      <path id="Path-81" data-name="Path" d="M3.157,0c-.442.894-1.2,2.548-1.624,3.177C.492,4.445-.459,3.724.239,2.276.582,1.563.889.863,1.234.031" transform="translate(160.556 135.232)" fill="#fc7f3a"/>
      <path id="Path-82" data-name="Path" d="M3.194.125c-.495,1-.935,2.046-1.514,3a1.751,1.751,0,0,1-.556.578.839.839,0,0,1-.278.121.392.392,0,0,1-.166,0,.334.334,0,0,1-.062-.036.157.157,0,0,1-.051-.058A.524.524,0,0,1,.5,3.5a1.65,1.65,0,0,1,.179-.8c.355-.783.714-1.56,1.044-2.354a.247.247,0,0,0-.171-.3.251.251,0,0,0-.3.171C.926.986.568,1.738.229,2.5c-.213.48-.408,1.231.051,1.642s1.093.048,1.456-.306A5.433,5.433,0,0,0,2.663,2.33c.326-.649.632-1.307.954-1.958.139-.282-.283-.53-.423-.247Z" transform="translate(160.308 134.984)"/>
      <path id="Path-83" data-name="Path" d="M3.157,0c-.442.894-1.2,2.548-1.624,3.177C.492,4.445-.459,3.724.239,2.276.582,1.563.889.863,1.234.031" transform="translate(159.281 134.607)" fill="#fc7f3a"/>
      <path id="Path-84" data-name="Path" d="M3.194.125c-.495,1-.935,2.046-1.514,3a1.751,1.751,0,0,1-.556.578.839.839,0,0,1-.278.121.392.392,0,0,1-.166,0,.334.334,0,0,1-.062-.036.157.157,0,0,1-.051-.058A.524.524,0,0,1,.5,3.5a1.65,1.65,0,0,1,.179-.8c.355-.783.714-1.56,1.043-2.354a.247.247,0,0,0-.171-.3.251.251,0,0,0-.3.171C.926.986.568,1.738.229,2.5c-.213.48-.408,1.231.051,1.642s1.093.048,1.456-.306a5.433,5.433,0,0,0,.927-1.507c.326-.649.632-1.307.954-1.958.139-.282-.283-.53-.423-.247Z" transform="translate(159.033 134.359)"/>
      <path id="Path-85" data-name="Path" d="M3.157.722c-.442.894-1.2,2.548-1.624,3.177C.492,5.167-.459,4.446.239,3,.53,2.394.972,1.424,1.31.636A.51.51,0,0,0,1.106,0h0" transform="translate(157.842 133.119)" fill="#fc7f3a"/>
      <path id="Path-86" data-name="Path" d="M3.2.847C2.9,1.441,2.624,2.04,2.33,2.633c-.143.288-.288.575-.442.858a2.936,2.936,0,0,1-.449.677,1.02,1.02,0,0,1-.689.389c-.143-.01-.223-.131-.247-.3a1.7,1.7,0,0,1,.22-.93q.233-.489.458-.982c.194-.425.384-.852.569-1.282A.781.781,0,0,0,1.481.037C1.211-.127.965.3,1.234.46a.278.278,0,0,1,.092.356c-.08.216-.185.425-.278.635Q.793,2.027.527,2.6c-.274.588-.711,1.3-.445,1.97.236.594.906.559,1.36.238A4.009,4.009,0,0,0,2.585,3.214c.356-.7.687-1.414,1.035-2.119C3.759.813,3.336.564,3.2.847Z" transform="translate(157.591 132.87)"/>
      <path id="Path-87" data-name="Path" d="M10.912.54,7.963.04A2.81,2.81,0,0,0,4.889,1.755l-.317.783a1.29,1.29,0,0,1-1.207.806h0A3.334,3.334,0,0,0,.1,5.886h0A3.334,3.334,0,0,0,2.631,9.938L7.569,11" transform="translate(106.912 123.385)" fill="#ff2323"/>
      <path id="Path-88" data-name="Path" d="M11.223.549,9.584.271A11.6,11.6,0,0,0,7.75,0,3.074,3.074,0,0,0,4.977,1.751c-.137.3-.246.6-.371.906a1.1,1.1,0,0,1-1.049.687A3.628,3.628,0,0,0,.672,4.837a3.578,3.578,0,0,0,1.757,5.475,11.8,11.8,0,0,0,1.338.313l3.9.84.086.019c.307.066.439-.406.13-.472l-3.324-.717L3.023,9.964a3.161,3.161,0,0,1-2-1.312A3.09,3.09,0,0,1,3.15,3.861c.261-.037.525-.01.784-.06a1.535,1.535,0,0,0,.717-.364,2.468,2.468,0,0,0,.568-1,3.639,3.639,0,0,1,.543-1.022A2.6,2.6,0,0,1,7.109.568a4.43,4.43,0,0,1,1.87.094L10.959,1l.133.023c.308.052.441-.42.13-.472Z" transform="translate(106.667 123.14)"/>
      <path id="Path-89" data-name="Path" d="M8.787.97A4.408,4.408,0,0,1,.025,0Z" transform="translate(114.697 140.916)" fill="#fc7f3a"/>
      <path id="Path-90" data-name="Path" d="M8.787,1.216A4.164,4.164,0,0,1,.515.246L.27.491,3.235.819l4.72.523,1.078.119c.313.035.31-.456,0-.49L6.068.643,1.348.121.27,0C.129-.014.038.127.025.246a4.651,4.651,0,0,0,9.252.97A.247.247,0,0,0,9.032.971a.251.251,0,0,0-.245.245Z" transform="translate(114.452 140.669)"/>
      <path id="Path-91" data-name="Path" d="M4.924,5.529,5.5,0,.6,1.216,0,4.819" transform="translate(116.484 136.941)" fill="#fc7f3a"/>
      <path id="Path-92" data-name="Path" d="M5.409,5.774,5.917.922,5.988.244a.247.247,0,0,0-.31-.236L1.384,1.073l-.611.151A.239.239,0,0,0,.6,1.4L.08,4.54,0,5c-.051.308.421.441.472.13L1,1.983l.076-.457L.9,1.7,5.2.632,5.808.481,5.5.244,4.99,5.1l-.071.678c-.033.313.457.311.49,0Z" transform="translate(116.243 136.697)"/>
      <path id="Path-93" data-name="Path" d="M8.375,11.343c2.955-1.745,2.392-3.95,2.73-5.456.2-.874-.73-2.942-.73-2.942L3.4,0,1.355,2.143s-4.9,9.577,3.945,9.2" transform="translate(113.414 127.508)" fill="#fc7f3a"/>
      <path id="Path-94" data-name="Path" d="M8.743,11.8a5.467,5.467,0,0,0,2.094-2.053,5.712,5.712,0,0,0,.578-2.109c.034-.316.055-.632.091-.948a6.689,6.689,0,0,0,.116-.881,6.556,6.556,0,0,0-.553-2.17,3.662,3.662,0,0,0-.234-.566.458.458,0,0,0-.243-.159l-.971-.41L6.149,1.041,4.586.381C4.307.264,4.03.127,3.745.026L3.7.01a.238.238,0,0,0-.238.063L2.345,1.251l-.706.742a1.907,1.907,0,0,0-.253.278,3.761,3.761,0,0,0-.22.47Q.921,3.295.717,3.865a11.664,11.664,0,0,0-.7,3.2A4.664,4.664,0,0,0,.869,10.3a5.04,5.04,0,0,0,3.906,1.533c.257.007.513,0,.77-.008.314-.013.316-.5,0-.49a5.421,5.421,0,0,1-4.1-1.128A3.848,3.848,0,0,1,.491,7.344,10.431,10.431,0,0,1,1.1,4.25q.106-.316.226-.627.053-.137.108-.273l.05-.121.026-.062c-.021.05,0,.009.007-.016.086-.2.188-.393.271-.594a.233.233,0,0,0,.021-.042c-.008.051-.048.059.016-.008l.534-.561L3.72.517l.093-.1L3.575.482l2.362,1L9.686,3.06l.869.367-.146-.113.036.083c.03.068,0,.008.03.072l.062.151c.108.27.209.543.3.82a3.537,3.537,0,0,1,.258,1.72c-.105.529-.12,1.073-.184,1.607a4.93,4.93,0,0,1-.466,1.675A4.949,4.949,0,0,1,8.5,11.377a.245.245,0,0,0,.247.423Z" transform="translate(113.169 127.262)"/>
      <path id="Path-95" data-name="Path" d="M.418.733C.323.807.383.76.407.743S.47.7.5.684C.55.657.6.633.649.61.678.6.688.594.653.608L.7.588Q.757.568.812.551A1.812,1.812,0,0,1,1.05.5H1.042l.035,0,.059,0q.074,0,.147,0A1.494,1.494,0,0,1,1.438.5C1.4.493,1.482.505,1.48.5l.082.018a1.583,1.583,0,0,1,.315.11A.252.252,0,0,0,2.213.545.247.247,0,0,0,2.125.209,1.992,1.992,0,0,0,.7.073a1.867,1.867,0,0,0-.63.313.246.246,0,0,0,0,.346.251.251,0,0,0,.346,0Z" transform="translate(116.783 131.369)"/>
      <path id="Path-96" data-name="Path" d="M.18.48a2.427,2.427,0,0,1,1.15.609,1.068,1.068,0,0,1,.412.549.92.92,0,0,1-.139.57,2.5,2.5,0,0,1-.441.6c-.12.123-.285.22-.395.349a.535.535,0,0,0-.106.309c-.034.512.515.625.914.642.315.014.315-.476,0-.49a1.114,1.114,0,0,1-.37-.058c-.049-.02-.054-.023-.058-.044,0,.02,0-.04.007-.05q.009-.059.012-.02t.056-.029a2.1,2.1,0,0,0,.367-.348A2.286,2.286,0,0,0,2.238,1.8,1.48,1.48,0,0,0,1.5.6,2.693,2.693,0,0,0,.31.007a.253.253,0,0,0-.3.171A.247.247,0,0,0,.18.48Z" transform="translate(113.989 130.908)"/>
      <circle id="Oval-3" data-name="Oval" cx="0.317" cy="0.317" r="0.317" transform="translate(114.057 132.712)"/>
      <path id="Path-97" data-name="Path" d="M.243.422A.355.355,0,0,1,.253.379.077.077,0,0,1,.261.355S.248.381.259.361.272.336.28.325l0-.007,0,.005S.3.307.3.3L.313.29l0,0Q.331.275.31.291C.315.282.337.273.345.268L.359.261c.024-.014-.026.008,0,0L.4.247h0q.02,0-.008,0s.017,0,.021,0H.466c.018,0-.03-.007,0,0l.021,0L.506.257l.012,0-.01,0c.009,0,.029.015.037.02A.084.084,0,0,1,.566.291S.545.272.561.288L.59.317C.608.336.581.3.589.315S.6.331.6.339L.612.354l0,.007q.008.018,0-.007C.621.36.625.386.627.394l0,.016c.007.028,0-.028,0,0a.455.455,0,0,1,0,.047c0,.016-.009.014,0,0a.089.089,0,0,0,0,.017C.626.488.622.5.617.516s.013-.023,0,0L.608.533.6.554l0,.007,0-.005C.595.562.57.582.566.586S.546.607.559.592s0,0-.008.005S.528.611.516.618s.006,0,.007,0S.5.624.491.626L.475.63l-.008,0q-.02,0,.008,0c-.005.005-.031,0-.038,0H.414c-.029,0,.02,0,0,0S.385.627.37.622l-.008,0,.006,0L.344.61.327.6.316.592.321.6C.313.6.291.566.286.561s-.009,0,0,.006C.284.564.279.552.275.547L.263.525.257.514Q.252.5.261.524C.253.517.249.487.247.477S.237.451.244.468s0,.011,0,0,0-.011,0-.017,0-.011,0-.017,0-.047,0-.011A.126.126,0,0,0,.157.271.124.124,0,0,0,.007.357.468.468,0,0,0,.046.638.434.434,0,0,0,.217.819.446.446,0,0,0,.73.767.439.439,0,1,0,.007.357.125.125,0,0,0,.092.508.124.124,0,0,0,.243.422Z" transform="translate(113.937 132.59)"/>
      <circle id="Oval-4" data-name="Oval" cx="0.317" cy="0.317" r="0.317" transform="translate(117.026 133.063)"/>
      <path id="Path-98" data-name="Path" d="M.243.422A.355.355,0,0,1,.253.379.077.077,0,0,1,.261.355S.248.381.259.361.272.336.28.325l0-.007,0,.005S.3.307.3.3L.313.29l0,0Q.331.275.31.291C.315.282.337.273.345.269L.359.261c.024-.014-.026.008,0,0L.4.247h0q.02,0-.008,0s.017,0,.021,0,.029,0,.043,0-.03-.007,0,0l.021,0L.506.257l.012,0-.01,0c.009,0,.029.015.037.02A.083.083,0,0,1,.566.291S.545.272.561.288L.59.317C.608.336.581.3.589.315S.6.331.6.339L.612.354l0,.007q.008.018,0-.007C.621.36.625.386.627.394l0,.016c.007.028,0-.028,0,0a.456.456,0,0,1,0,.047c0,.016-.009.014,0,0a.089.089,0,0,0,0,.017C.626.488.622.5.617.516s.013-.023,0,0L.608.533.6.554l0,.007,0-.005C.595.562.57.582.566.586S.546.607.559.592s0,0-.008.005S.528.611.516.618s.006,0,.007,0S.5.625.491.626L.475.63l-.008,0q-.02,0,.008,0c-.005.005-.031,0-.038,0H.414c-.029,0,.02,0,0,0S.385.627.37.622l-.008,0Q.343.612.367.622L.344.61.327.6.316.592.321.6C.313.6.291.566.286.561s-.009,0,0,.006C.284.564.279.552.275.547L.263.525.257.514Q.252.5.261.524C.253.517.249.487.247.477S.237.451.244.468s0,.011,0,0,0-.011,0-.017,0-.011,0-.017,0-.047,0-.011A.126.126,0,0,0,.157.271.124.124,0,0,0,.007.357.468.468,0,0,0,.046.638.434.434,0,0,0,.217.819.446.446,0,0,0,.73.767.439.439,0,1,0,.007.357.125.125,0,0,0,.092.508.124.124,0,0,0,.243.422Z" transform="translate(116.906 132.94)"/>
      <circle id="Oval-5" data-name="Oval" cx="0.413" cy="0.413" r="0.413" transform="translate(116.237 135.595)"/>
      <path id="Path-99" data-name="Path" d="M.245.5A.458.458,0,0,1,.258.447C.262.437.265.426.269.416c0,.005-.01.019,0,0S.288.382.3.367.322.338.3.357L.326.333.346.315S.369.3.35.31A.388.388,0,0,1,.4.281L.414.271c.029-.016-.022.006.01,0A.532.532,0,0,1,.482.25c.006,0,.03,0,.005,0l.028,0a.452.452,0,0,1,.056,0c.021,0-.028-.007.007,0L.606.254.634.262s.035.015.012,0A.434.434,0,0,1,.694.292L.721.311S.705.3.721.312L.759.35c.023.024-.007-.012,0,0S.777.375.784.386.81.438.8.415A.392.392,0,0,1,.817.466l0,.021C.83.521.822.464.824.5a.531.531,0,0,1,0,.062c0,.006,0,.031,0,.007,0,.008,0,.015,0,.023S.81.626.8.644.816.626.8.656L.789.675.772.7S.749.732.765.713A.488.488,0,0,1,.728.752S.7.774.716.763.7.773.7.773C.687.783.671.791.656.8S.65.8.655.8L.614.814C.605.817.557.826.582.823a.39.39,0,0,1-.05,0H.5c-.035,0,.014,0-.007,0A.435.435,0,0,1,.436.808S.4.793.424.8L.395.789.371.775S.338.749.357.765C.341.751.326.736.311.72S.3.7.31.72L.291.693.275.665S.26.631.27.656A.4.4,0,0,1,.25.593S.243.559.247.577s0-.024,0-.028,0-.015,0-.022,0-.051,0-.024A.126.126,0,0,0,.16.352.124.124,0,0,0,.009.438.534.534,0,1,0,.489,0a.534.534,0,0,0-.48.436A.125.125,0,0,0,.095.588.124.124,0,0,0,.245.5Z" transform="translate(116.115 135.473)"/>
      <path id="Path-100" data-name="Path" d="M1.675.086A.75.75,0,0,0,1.264,0,1.155,1.155,0,0,0,.458.481a3.2,3.2,0,0,0-.45.841.246.246,0,0,0,.171.3.252.252,0,0,0,.3-.171c.013-.034.026-.068.04-.1,0-.01.024-.057.007-.017l.018-.041Q.585,1.2.629,1.12A2.382,2.382,0,0,1,.8.834L.82.809C.835.787.852.787.814.815A.274.274,0,0,0,.851.769C.879.736.908.7.939.674S.99.627,1.016.6c.046-.04-.042.029,0,0L1.06.575c.024-.015.048-.029.073-.042L1.171.515C1.2.5,1.1.54,1.141.528L1.165.519A.681.681,0,0,1,1.232.5L1.265.492c.057-.012-.048,0-.022,0a.811.811,0,0,1,.116,0l.023,0c.032,0-.081-.014-.036,0L1.391.5c.023.006.045.015.068.022C1.4.5,1.4.492,1.428.509A.245.245,0,1,0,1.675.086Z" transform="translate(120.972 132.881)"/>
      <path id="Path-101" data-name="Path" d="M.957.207,0,0" transform="translate(110.578 134.804)" fill="#ffc41f"/>
      <path id="Path-102" data-name="Path" d="M1.269.217.431.035.312.009a.245.245,0,1,0-.13.472l.838.181.119.026a.245.245,0,1,0,.13-.472Z" transform="translate(110.331 134.558)"/>
      <path id="Path-103" data-name="Path" d="M.966,0,0,.163" transform="translate(110.623 136.375)" fill="#ffc41f"/>
      <path id="Path-104" data-name="Path" d="M1.146.007.3.149.18.17a.246.246,0,0,0-.171.3.252.252,0,0,0,.3.171L1.154.5,1.276.48a.246.246,0,0,0,.171-.3.252.252,0,0,0-.3-.171Z" transform="translate(110.378 136.132)"/>
      <path id="Path-105" data-name="Path" d="M.7,0,0,.684" transform="translate(111.278 137.422)" fill="#ffc41f"/>
      <path id="Path-106" data-name="Path" d="M.771.071l-.614.6L.071.755A.245.245,0,0,0,.417,1.1L1.032.5,1.118.417A.245.245,0,0,0,.771.071Z" transform="translate(111.034 137.178)"/>
      <path id="Path-107" data-name="Path" d="M0,5.715,6.858,7.267l.458,4.123A4.781,4.781,0,0,1,8.128,8.97a1.2,1.2,0,0,1,.882-.391,1.18,1.18,0,0,1,1.2,1.516A4.054,4.054,0,0,1,8.9,12.3l-.119,3h0A11.089,11.089,0,0,0,14.19,8.118a5.469,5.469,0,0,0-.068-3h0A5.477,5.477,0,0,0,9.894,1.353L2.694,0" transform="translate(113.009 123.558)" fill="#ff2323"/>
      <path id="Path-108" data-name="Path" d="M.176,6.193,2.5,6.718l3.684.833.85.192-.18-.236.4,3.611.057.512a.245.245,0,0,0,.49,0A4.9,4.9,0,0,1,8.276,9.76a1.393,1.393,0,0,1,.451-.524.823.823,0,0,1,.686-.144.879.879,0,0,1,.768.6,2.012,2.012,0,0,1-.231,1.373,3.733,3.733,0,0,1-.828,1.18c-.111.1-.216.153-.228.316-.005.075-.006.15-.009.225l-.037.934-.072,1.812a.247.247,0,0,0,.369.212,12.841,12.841,0,0,0,3.578-3.134,11.555,11.555,0,0,0,1.612-3.1,8.435,8.435,0,0,0,.5-2.11,5.681,5.681,0,0,0-.253-2.162,5.789,5.789,0,0,0-4.444-3.9L6.6.681C5.42.46,4.242.229,3.061.016L3,0c-.308-.058-.44.414-.13.472l2.892.543,3.965.745a6.575,6.575,0,0,1,1.6.461,5.236,5.236,0,0,1,2.845,6.162,12.035,12.035,0,0,1-1.437,3.346A11.208,11.208,0,0,1,9.243,15.1l-.346.221.369.212.119-3-.121.212a2.5,2.5,0,0,0,.643-.661,5.009,5.009,0,0,0,.543-.936,2.094,2.094,0,0,0,.038-1.963,1.56,1.56,0,0,0-1.658-.553,2.2,2.2,0,0,0-1.252,1.572,6.679,6.679,0,0,0-.264,1.424H7.8L7.4,8.02l-.057-.512a.253.253,0,0,0-.18-.236L4.84,6.746,1.156,5.913.306,5.72c-.307-.069-.438.4-.13.472Z" transform="translate(112.768 123.317)"/>
      <path id="Path-109" data-name="Path" d="M0,10.157,3.836,1.248,3.965,0h.64A4.082,4.082,0,0,1,7.566,1.269l.569.6L4.9,6.565" transform="translate(117.662 140.263)" fill="#ff9416"/>
      <path id="Path-110" data-name="Path" d="M.445,10.529l1.6-3.706,2.1-4.883a2,2,0,0,0,.172-.449c.064-.409.086-.83.129-1.242L4.2.493c.253,0,.506-.006.759,0A3.809,3.809,0,0,1,6.565.9,6.188,6.188,0,0,1,8.2,2.289l-.038-.3L5.328,6.1l-.407.59c-.179.26.245.505.423.247L8.174,2.83l.407-.59a.248.248,0,0,0-.038-.3A6.453,6.453,0,0,0,6.76.452,4.4,4.4,0,0,0,5.078.01C4.786-.007,4.492,0,4.2,0a.251.251,0,0,0-.245.245L3.833,1.414c-.021.2.068-.124.008,0-.028.057-.05.117-.075.174l-.8,1.848L.613,8.909.022,10.281c-.123.286.3.536.423.247Z" transform="translate(117.429 140.015)"/>
      <path id="Path-111" data-name="Path" d="M0,0S.962,5.995,5.755,6.038" transform="translate(119.445 166.793)" fill="#ff9416"/>
      <path id="Path-112" data-name="Path" d="M0,.307A9.281,9.281,0,0,0,.637,2.393,7.121,7.121,0,0,0,3.271,5.75a5.222,5.222,0,0,0,2.723.775.245.245,0,0,0,0-.49,4.73,4.73,0,0,1-2.3-.6A5.354,5.354,0,0,1,2.131,4.041,8.944,8.944,0,0,1,.64.9,7.108,7.108,0,0,1,.476.177C.426-.133-.046,0,0,.307Z" transform="translate(119.205 166.551)"/>
      <path id="Path-113" data-name="Path" d="M3.372,0A4.309,4.309,0,0,0,0,3.023c2.58.539,3.546-.68,3.546-.68S4.059,5.2,5.326,5.311A5.262,5.262,0,0,0,4.5.048" transform="translate(120.407 149.039)" fill="#ff2323"/>
      <path id="Path-114" data-name="Path" d="M3.617,0A4.15,4.15,0,0,0,.9,1.611,6.015,6.015,0,0,0,.009,3.2a.246.246,0,0,0,.171.3A4.949,4.949,0,0,0,3.05,3.367a2.291,2.291,0,0,0,.914-.6l-.409-.108a7.856,7.856,0,0,0,.268,1.033,4.3,4.3,0,0,0,.885,1.674,1.385,1.385,0,0,0,.863.441.247.247,0,0,0,.236-.18,6.9,6.9,0,0,0,.358-2.416A5.2,5.2,0,0,0,4.915.12c-.2-.242-.548.106-.346.346a4.65,4.65,0,0,1,1.111,2.84,6.573,6.573,0,0,1-.345,2.185l.236-.18C4.97,5.25,4.6,4.388,4.409,3.88a7.781,7.781,0,0,1-.381-1.357.246.246,0,0,0-.409-.108,1.285,1.285,0,0,1-.181.174c-.019.016-.039.031-.008.007l-.066.048q-.066.047-.135.089a2.581,2.581,0,0,1-.323.168,4.405,4.405,0,0,1-2.6.132l.171.3a4.378,4.378,0,0,1,2.9-2.8c.07-.017.141-.028.211-.042.052-.01-.059,0,.021,0,.312-.026.315-.516,0-.49Z" transform="translate(120.162 148.793)"/>
      <path id="Path-115" data-name="Path" d="M3.4.088A2.78,2.78,0,0,0,2.175,2.979,2.774,2.774,0,1,0,5.493,5.135,2.776,2.776,0,0,0,6.249,0" transform="translate(122.401 141.138)" fill="#ff2323"/>
      <path id="Path-116" data-name="Path" d="M3.519.118A3.07,3.07,0,0,0,2.186,3.286l.171-.3A3.02,3.02,0,1,0,5.977,5.311l-.171.3A3.022,3.022,0,0,0,7.764,1.163,3.079,3.079,0,0,0,6.621.03a.245.245,0,0,0-.247.423,2.531,2.531,0,0,1-.7,4.687.25.25,0,0,0-.171.3A2.534,2.534,0,0,1,2.762,8.451a2.532,2.532,0,0,1-.274-4.994.25.25,0,0,0,.171-.3A2.56,2.56,0,0,1,3.767.541c.262-.172.017-.6-.247-.423Z" transform="translate(122.154 140.896)"/>
    </g>
  </g>
</svg>
